<svg xmlns="http://www.w3.org/2000/svg" viewBox="0 0 500 500"><g id="freepik--background-complete--inject-151"><g><path d="M319.24,250.71c-47.98-.45-91.41-.85-122.88-1.15-15.7-.07-28.41-.13-37.24-.18-4.37,.01-7.78,.02-10.13,.02-1.13,.01-2.01,.03-2.63,.03-.59,.01-.9,.03-.9,.05s.3,.04,.9,.06c.63,.01,1.5,.03,2.63,.06,2.35,.03,5.75,.07,10.12,.12,8.83,.05,21.54,.11,37.24,.2,31.48,.02,74.9,.05,122.89,.08,47.96,0,91.39,.06,122.84,.28,15.72,.11,28.44,.26,37.24,.42,4.4,.08,7.81,.17,10.12,.26,2.31,.09,3.53,.18,3.53,.26,0,.08-1.22,.16-3.53,.22s-5.73,.12-10.13,.16c-8.79,.08-21.52,.1-37.24,.05-31.44-.09-74.87-.46-122.83-.94Z" style="fill:#f5f5f5;"></path><path d="M318.28,261.23c-47.33-7.69-90.16-14.66-121.2-19.7-15.5-2.44-28.05-4.42-36.76-5.79-4.32-.65-7.68-1.15-10.01-1.5-1.12-.16-1.99-.28-2.61-.36-.59-.08-.89-.1-.89-.09,0,.02,.29,.08,.88,.19,.62,.11,1.47,.26,2.59,.46,2.32,.38,5.67,.94,9.98,1.65,8.71,1.38,21.26,3.37,36.75,5.82,31.09,4.77,73.98,11.35,121.38,18.62,47.38,7.23,90.28,13.85,121.3,18.82,15.51,2.48,28.06,4.55,36.72,6.04,4.33,.75,7.69,1.35,9.96,1.79,2.27,.44,3.46,.71,3.44,.79-.01,.08-1.23-.02-3.53-.31-2.3-.28-5.68-.75-10.03-1.37-8.7-1.25-21.27-3.15-36.79-5.57-31.05-4.83-73.89-11.77-121.19-19.49Z" style="fill:#f5f5f5;"></path><path d="M315.64,271.48c-45.49-14.84-86.66-28.28-116.5-38.01-14.91-4.78-26.98-8.66-35.36-11.35-4.16-1.3-7.4-2.32-9.64-3.01-1.08-.33-1.92-.58-2.52-.76-.57-.16-.86-.24-.87-.22,0,.02,.28,.13,.83,.33,.59,.2,1.41,.48,2.48,.85,2.23,.73,5.45,1.8,9.59,3.16,8.38,2.7,20.45,6.58,35.35,11.37,29.93,9.47,71.22,22.53,116.85,36.97,45.62,14.39,86.91,27.49,116.74,37.15,14.92,4.83,26.97,8.79,35.28,11.59,4.15,1.4,7.37,2.51,9.55,3.29,2.17,.78,3.3,1.23,3.27,1.31-.03,.08-1.21-.21-3.43-.84-2.22-.63-5.49-1.61-9.68-2.89-8.39-2.57-20.5-6.37-35.43-11.13-29.88-9.53-71.06-22.93-116.52-37.8Z" style="fill:#f5f5f5;"></path><path d="M311.37,281.18c-42.52-21.61-81-41.17-108.89-55.35-13.95-7.01-25.24-12.68-33.08-16.61-3.9-1.92-6.93-3.42-9.03-4.45-1.02-.49-1.8-.86-2.36-1.13-.53-.25-.81-.37-.82-.35,0,.02,.25,.17,.77,.45,.55,.29,1.32,.69,2.32,1.22,2.08,1.06,5.09,2.61,8.96,4.59,7.84,3.94,19.13,9.62,33.07,16.64,28.02,13.93,66.69,33.15,109.41,54.38,42.72,21.19,81.37,40.44,109.27,54.54,13.95,7.05,25.21,12.8,32.96,16.84,3.88,2.02,6.88,3.6,8.9,4.7,2.02,1.1,3.06,1.72,3.02,1.79-.04,.08-1.16-.39-3.25-1.36-2.09-.97-5.16-2.43-9.09-4.34-7.87-3.82-19.21-9.43-33.19-16.42-27.96-13.98-66.46-33.51-108.95-55.14Z" style="fill:#f5f5f5;"></path><path d="M305.6,290.12c-38.52-27.81-73.38-52.97-98.65-71.21-12.65-9.04-22.89-16.36-30-21.44-3.54-2.49-6.3-4.43-8.2-5.77-.93-.64-1.64-1.13-2.15-1.48-.49-.33-.74-.49-.76-.47-.01,.01,.22,.2,.69,.56,.5,.37,1.19,.89,2.09,1.56,1.88,1.37,4.61,3.35,8.11,5.89,7.11,5.09,17.34,12.41,29.99,21.46,25.44,18.02,60.54,42.87,99.32,70.34,38.78,27.42,73.87,52.31,99.15,70.47,12.64,9.08,22.84,16.47,29.85,21.64,3.5,2.58,6.21,4.6,8.03,6,1.82,1.4,2.75,2.16,2.69,2.23-.05,.07-1.08-.57-2.99-1.84-1.91-1.27-4.7-3.18-8.28-5.66-7.16-4.97-17.46-12.23-30.14-21.26-25.37-18.05-60.26-43.19-98.74-71.02Z" style="fill:#f5f5f5;"></path><path d="M298.45,298.07c-33.6-33.29-64.02-63.42-86.06-85.26-11.05-10.84-20-19.62-26.21-25.71-3.1-3-5.51-5.33-7.18-6.94-.81-.77-1.44-1.36-1.89-1.78-.43-.4-.66-.59-.67-.58-.01,.01,.19,.24,.59,.66,.43,.44,1.03,1.05,1.82,1.85,1.64,1.64,4.02,4,7.07,7.05,6.21,6.1,15.15,14.88,26.19,25.73,22.25,21.64,52.94,51.5,86.85,84.49,33.92,32.95,64.59,62.84,86.67,84.6,11.04,10.88,19.93,19.73,26.03,25.89,3.05,3.08,5.4,5.49,6.97,7.14,1.57,1.65,2.37,2.55,2.31,2.61-.06,.06-.98-.72-2.66-2.27-1.68-1.55-4.14-3.85-7.28-6.85-6.28-5.99-15.29-14.72-26.37-25.55-22.17-21.67-52.61-51.78-86.17-85.08Z" style="fill:#f5f5f5;"></path><path d="M290.13,304.85c-27.87-37.97-53.09-72.32-71.37-97.23-9.18-12.38-16.61-22.4-21.77-29.36-2.58-3.43-4.59-6.1-5.98-7.94-.68-.88-1.2-1.56-1.58-2.05-.36-.46-.55-.69-.57-.68-.02,.01,.15,.26,.48,.74,.36,.5,.85,1.2,1.5,2.11,1.36,1.86,3.33,4.56,5.85,8.03,5.16,6.96,12.58,16.99,21.75,29.38,18.51,24.74,44.05,58.87,72.27,96.59,28.24,37.68,53.75,71.84,72.07,96.67,9.16,12.42,16.53,22.5,21.57,29.51,2.52,3.5,4.46,6.24,5.74,8.11,1.29,1.87,1.93,2.88,1.86,2.93-.07,.05-.85-.86-2.27-2.64-1.42-1.78-3.47-4.43-6.09-7.86-5.24-6.86-12.75-16.85-21.96-29.23-18.43-24.76-43.69-59.1-71.51-97.07Z" style="fill:#f5f5f5;"></path><path d="M280.82,310.28c-21.42-41.73-40.8-79.5-54.84-106.88-7.08-13.62-12.81-24.65-16.78-32.31-2-3.78-3.56-6.72-4.63-8.75-.53-.97-.94-1.72-1.23-2.26-.28-.51-.44-.76-.45-.75-.02,0,.1,.28,.35,.8,.27,.55,.65,1.31,1.14,2.31,1.04,2.05,2.55,5.01,4.49,8.82,3.97,7.66,9.69,18.69,16.76,32.32,14.3,27.25,34.04,64.84,55.85,106.39,21.83,41.51,41.54,79.12,55.64,106.44,7.05,13.66,12.71,24.73,16.55,32.42,1.92,3.84,3.4,6.84,4.37,8.88,.97,2.04,1.44,3.14,1.36,3.17-.08,.04-.7-.98-1.82-2.95-1.11-1.97-2.72-4.9-4.75-8.69-4.07-7.58-9.88-18.58-16.99-32.21-14.22-27.25-33.64-65.01-55.01-106.74Z" style="fill:#f5f5f5;"></path><path d="M270.75,314.22c-14.39-44.49-27.42-84.75-36.86-113.93-4.78-14.53-8.66-26.3-11.35-34.47-1.36-4.04-2.42-7.18-3.16-9.35-.37-1.04-.65-1.85-.85-2.42-.2-.54-.31-.82-.33-.81-.02,0,.06,.29,.22,.85,.18,.58,.43,1.4,.75,2.45,.7,2.18,1.71,5.34,3,9.4,2.68,8.17,6.55,19.94,11.32,34.48,9.72,29.1,23.12,69.24,37.93,113.6,14.84,44.33,28.21,84.49,37.71,113.62,4.75,14.56,8.54,26.37,11.1,34.55,1.28,4.09,2.25,7.27,2.88,9.44,.63,2.17,.92,3.32,.83,3.34-.08,.03-.54-1.07-1.32-3.19-.78-2.12-1.89-5.26-3.29-9.31-2.8-8.1-6.75-19.86-11.56-34.4-9.64-29.09-22.7-69.35-37.04-113.83Z" style="fill:#f5f5f5;"></path><path d="M260.16,316.58c-7.01-46.14-13.36-87.89-17.96-118.15-2.37-15.09-4.29-27.3-5.62-35.78-.69-4.2-1.23-7.46-1.6-9.72-.19-1.09-.34-1.92-.45-2.52-.11-.57-.17-.86-.19-.85-.02,0,0,.3,.08,.87,.08,.6,.2,1.44,.35,2.54,.34,2.26,.82,5.53,1.45,9.74,1.33,8.48,3.24,20.69,5.6,35.78,4.88,30.22,11.62,71.91,19.07,117.99,7.48,46.04,14.18,87.75,18.85,117.97,2.34,15.11,4.17,27.35,5.37,35.81,.6,4.23,1.04,7.52,1.31,9.76,.27,2.24,.37,3.42,.28,3.43-.09,.01-.35-1.14-.78-3.36-.43-2.21-1.01-5.48-1.74-9.7-1.45-8.43-3.45-20.64-5.85-35.74-4.81-30.2-11.19-71.95-18.16-118.07Z" style="fill:#f5f5f5;"></path><path d="M249.32,317.29c.43-46.64,.82-88.84,1.11-119.43,.07-15.26,.12-27.61,.16-36.19-.01-4.25-.02-7.56-.03-9.84-.02-1.1-.03-1.95-.04-2.56-.01-.58-.03-.87-.05-.87-.02,0-.04,.3-.06,.87-.01,.61-.03,1.46-.06,2.56-.03,2.28-.07,5.59-.12,9.84-.04,8.58-.1,20.93-.18,36.19,0,30.59,0,72.8,0,119.43,.03,46.61,0,88.83-.22,119.38-.1,15.28-.24,27.64-.41,36.19-.08,4.27-.17,7.59-.26,9.84-.09,2.25-.18,3.43-.26,3.43-.09,0-.17-1.18-.23-3.43-.07-2.25-.12-5.57-.17-9.84-.08-8.55-.11-20.91-.07-36.19,.07-30.56,.43-72.77,.89-119.38Z" style="fill:#f5f5f5;"></path><path d="M238.49,316.37c7.89-46,15.02-87.63,20.2-117.81,2.5-15.07,4.53-27.26,5.94-35.73,.67-4.2,1.18-7.47,1.54-9.73,.16-1.09,.28-1.93,.37-2.53,.08-.57,.11-.87,.09-.87-.02,0-.09,.29-.2,.85-.11,.6-.27,1.43-.47,2.52-.39,2.25-.96,5.51-1.7,9.7-1.41,8.47-3.45,20.66-5.97,35.73-4.89,30.22-11.63,71.91-19.09,117.98-7.41,46.05-14.19,87.75-19.29,117.9-2.54,15.08-4.66,27.27-6.19,35.69-.76,4.21-1.38,7.47-1.83,9.68-.45,2.21-.73,3.36-.81,3.35-.09-.01,.02-1.19,.31-3.43,.29-2.23,.77-5.52,1.41-9.75,1.28-8.46,3.23-20.68,5.71-35.76,4.96-30.18,12.06-71.82,19.98-117.79Z" style="fill:#f5f5f5;"></path><path d="M227.94,313.81c15.24-44.22,29.04-84.24,39.04-113.25,4.91-14.49,8.89-26.23,11.65-34.38,1.34-4.05,2.38-7.19,3.1-9.37,.33-1.05,.59-1.86,.78-2.45,.17-.55,.25-.84,.23-.84-.02,0-.13,.27-.33,.81-.21,.57-.5,1.37-.87,2.41-.75,2.16-1.85,5.3-3.25,9.32-2.77,8.15-6.76,19.88-11.68,34.37-9.72,29.1-23.14,69.24-37.96,113.59-14.78,44.35-28.23,84.48-38.15,113.48-4.96,14.5-9.02,26.22-11.9,34.29-1.44,4.04-2.58,7.17-3.38,9.28-.8,2.11-1.26,3.21-1.35,3.18-.08-.03,.21-1.18,.86-3.34,.65-2.16,1.65-5.33,2.97-9.41,2.63-8.15,6.54-19.92,11.43-34.44,9.78-29.04,23.55-69.08,38.82-113.26Z" style="fill:#f5f5f5;"></path><path d="M217.96,309.67c22.21-41.34,42.31-78.75,56.88-105.87,7.2-13.56,13.03-24.54,17.07-32.16,1.98-3.79,3.51-6.74,4.58-8.78,.5-.99,.89-1.75,1.16-2.3,.26-.52,.38-.79,.36-.8-.02,0-.17,.25-.46,.75-.3,.53-.71,1.28-1.25,2.25-1.09,2.02-2.68,4.95-4.72,8.71-4.05,7.62-9.89,18.6-17.1,32.15-14.31,27.24-34.06,64.83-55.89,106.37-21.78,41.53-41.56,79.11-56.05,106.23-7.24,13.56-13.16,24.51-17.3,32.05-2.07,3.77-3.7,6.69-4.84,8.65-1.13,1.96-1.77,2.98-1.84,2.94-.08-.04,.4-1.13,1.4-3.16,.99-2.03,2.49-5.01,4.46-8.84,3.92-7.65,9.69-18.67,16.87-32.26,14.36-27.18,34.44-64.62,56.67-105.92Z" style="fill:#f5f5f5;"></path><path d="M208.76,304.06c28.59-37.46,54.46-71.36,73.21-95.93,9.29-12.3,16.81-22.26,22.04-29.17,2.56-3.44,4.56-6.12,5.93-7.98,.65-.9,1.16-1.59,1.52-2.09,.34-.48,.5-.72,.49-.73-.02-.01-.21,.22-.58,.67-.38,.48-.91,1.16-1.6,2.03-1.41,1.83-3.44,4.48-6.06,7.89-5.23,6.91-12.76,16.86-22.06,29.16-18.52,24.74-44.07,58.86-72.31,96.57-28.19,37.71-53.78,71.82-72.45,96.41-9.33,12.29-16.94,22.21-22.24,29.03-2.65,3.41-4.73,6.04-6.17,7.81-1.43,1.77-2.22,2.67-2.29,2.62-.07-.05,.58-1.05,1.89-2.91,1.31-1.86,3.27-4.57,5.82-8.05,5.11-6.96,12.57-16.97,21.85-29.31,18.56-24.67,44.41-58.59,73.01-96.01Z" style="fill:#f5f5f5;"></path><path d="M200.57,297.12c34.23-32.68,65.21-62.26,87.67-83.69,11.15-10.75,20.17-19.45,26.44-25.49,3.08-3.02,5.48-5.36,7.14-6.98,.79-.79,1.4-1.4,1.83-1.84,.41-.42,.61-.64,.6-.65-.01-.01-.24,.18-.68,.58-.45,.42-1.08,1.01-1.91,1.77-1.68,1.6-4.12,3.9-7.25,6.87-6.27,6.04-15.3,14.73-26.46,25.47-22.25,21.63-52.96,51.48-86.88,84.46-33.88,32.99-64.62,62.82-87,84.28-11.19,10.73-20.28,19.38-26.62,25.31-3.17,2.97-5.64,5.25-7.34,6.78-1.7,1.53-2.62,2.3-2.68,2.24-.06-.06,.74-.95,2.33-2.59,1.59-1.64,3.96-4.02,7.04-7.08,6.16-6.1,15.13-14.87,26.28-25.65,22.28-21.56,53.24-51.17,87.48-83.81Z" style="fill:#f5f5f5;"></path><path d="M193.59,289.04c39.05-27.11,74.38-51.64,100-69.42,12.73-8.93,23.04-16.16,30.2-21.18,3.53-2.51,6.27-4.47,8.17-5.82,.91-.66,1.61-1.17,2.11-1.54,.47-.35,.71-.54,.7-.55-.01-.01-.27,.14-.76,.47-.51,.35-1.23,.83-2.17,1.46-1.92,1.32-4.69,3.24-8.26,5.69-7.16,5.02-17.47,12.24-30.21,21.16-25.45,18.01-60.55,42.85-99.34,70.3-38.75,27.47-73.88,52.29-99.43,70.11-12.77,8.91-23.14,16.08-30.34,20.98-3.6,2.45-6.41,4.33-8.34,5.59-1.92,1.25-2.96,1.88-3.01,1.81-.05-.07,.88-.83,2.72-2.21,1.83-1.38,4.56-3.38,8.09-5.93,7.06-5.1,17.33-12.4,30.06-21.36,25.46-17.93,60.78-42.49,99.83-69.56Z" style="fill:#f5f5f5;"></path><path d="M188,279.99c42.93-20.84,81.78-39.7,109.94-53.37,14.01-6.89,25.36-12.46,33.23-16.33,3.89-1.95,6.91-3.46,9-4.51,1-.52,1.77-.91,2.33-1.2,.52-.28,.78-.43,.78-.44,0-.02-.29,.1-.83,.34-.56,.26-1.35,.63-2.37,1.11-2.11,1.01-5.15,2.48-9.07,4.37-7.88,3.87-19.23,9.43-33.24,16.31-28.03,13.92-66.7,33.12-109.43,54.34-42.69,21.24-81.38,40.42-109.48,54.14-14.05,6.86-25.44,12.36-33.35,16.11-3.95,1.87-7.03,3.31-9.13,4.25-2.1,.95-3.23,1.4-3.27,1.33-.04-.08,1.01-.68,3.04-1.77,2.03-1.08,5.04-2.64,8.94-4.62,7.79-3.96,19.11-9.61,33.13-16.53,28.03-13.84,66.87-32.73,109.79-53.53Z" style="fill:#f5f5f5;"></path><path d="M183.94,270.2c45.77-14.02,87.18-26.7,117.21-35.89,14.95-4.66,27.06-8.43,35.46-11.05,4.15-1.33,7.39-2.36,9.62-3.07,1.07-.36,1.9-.63,2.49-.83,.56-.19,.84-.3,.84-.32,0-.02-.3,.05-.87,.21-.6,.17-1.44,.42-2.52,.73-2.24,.68-5.49,1.66-9.67,2.93-8.41,2.61-20.51,6.37-35.47,11.02-29.93,9.46-71.23,22.51-116.86,36.94-45.6,14.45-86.91,27.47-116.88,36.73-14.98,4.63-27.13,8.32-35.54,10.81-4.21,1.24-7.48,2.19-9.71,2.8-2.23,.61-3.41,.89-3.44,.81-.03-.08,1.1-.52,3.29-1.28,2.18-.76,5.41-1.84,9.58-3.2,8.34-2.72,20.43-6.57,35.39-11.26,29.92-9.38,71.34-22.1,117.09-36.07Z" style="fill:#f5f5f5;"></path><path d="M181.51,259.91c47.47-6.84,90.42-13.04,121.56-17.52,15.52-2.31,28.08-4.19,36.81-5.49,4.32-.68,7.68-1.2,10-1.56,1.12-.19,1.98-.33,2.59-.44,.58-.1,.88-.17,.88-.19,0-.02-.31,0-.9,.08-.62,.08-1.49,.19-2.61,.34-2.32,.33-5.69,.8-10.02,1.41-8.73,1.29-21.29,3.16-36.81,5.46-31.09,4.77-73.99,11.34-121.39,18.6-47.37,7.3-90.28,13.84-121.37,18.39-15.55,2.28-28.14,4.07-36.85,5.24-4.36,.59-7.74,1.02-10.04,1.28-2.3,.26-3.51,.36-3.53,.28-.01-.08,1.18-.35,3.45-.76,2.28-.42,5.64-.99,9.98-1.69,8.67-1.41,21.24-3.37,36.77-5.71,31.07-4.69,74.03-10.92,121.48-17.72Z" style="fill:#f5f5f5;"></path><path d="M180.76,249.38c47.98,.39,91.41,.74,122.88,1,15.7,.05,28.41,.1,37.24,.13,4.37-.02,7.78-.03,10.12-.04,1.13-.02,2.01-.03,2.63-.04,.59-.01,.9-.03,.9-.05,0-.02-.3-.04-.9-.06-.63-.01-1.5-.03-2.63-.06-2.35-.03-5.75-.06-10.12-.11-8.83-.04-21.54-.09-37.24-.15-31.48,.02-74.9,.04-122.89,.07-47.96,.06-91.39,.05-122.84-.13-15.72-.09-28.44-.22-37.24-.38-4.4-.08-7.81-.16-10.12-.24-2.31-.08-3.53-.17-3.53-.26,0-.08,1.22-.16,3.53-.23,2.32-.07,5.73-.12,10.13-.17,8.79-.09,21.52-.12,37.24-.09,31.44,.05,74.87,.37,122.83,.79Z" style="fill:#f5f5f5;"></path><path d="M181.71,238.86c47.34,7.64,90.18,14.55,121.23,19.55,15.5,2.42,28.05,4.39,36.77,5.75,4.32,.64,7.69,1.14,10.01,1.49,1.12,.15,1.99,.27,2.61,.36,.59,.07,.89,.1,.89,.09,0-.02-.29-.08-.88-.19-.62-.11-1.48-.26-2.59-.46-2.32-.38-5.67-.93-9.98-1.64-8.71-1.37-21.26-3.34-36.76-5.78-31.1-4.73-74-11.26-121.41-18.47-47.39-7.17-90.29-13.74-121.32-18.67-15.52-2.46-28.06-4.51-36.72-6-4.33-.74-7.69-1.34-9.96-1.77-2.27-.43-3.46-.7-3.45-.79,.01-.08,1.23,.02,3.53,.3,2.3,.28,5.68,.74,10.03,1.36,8.7,1.24,21.28,3.13,36.8,5.53,31.05,4.8,73.9,11.67,121.21,19.34Z" style="fill:#f5f5f5;"></path><path d="M184.33,228.61c45.51,14.79,86.69,28.17,116.55,37.87,14.92,4.77,26.99,8.62,35.38,11.3,4.16,1.3,7.4,2.31,9.64,3,1.08,.32,1.92,.57,2.52,.75,.57,.16,.86,.24,.87,.22,0-.02-.28-.13-.83-.32-.59-.2-1.41-.48-2.48-.85-2.23-.73-5.45-1.79-9.59-3.15-8.38-2.69-20.46-6.55-35.37-11.33-29.94-9.43-71.25-22.44-116.9-36.82-45.64-14.34-86.94-27.38-116.79-37-14.92-4.81-26.98-8.75-35.29-11.54-4.16-1.39-7.38-2.5-9.55-3.28-2.17-.78-3.3-1.23-3.27-1.31,.03-.08,1.21,.21,3.43,.84,2.22,.63,5.49,1.6,9.69,2.88,8.39,2.55,20.5,6.34,35.45,11.09,29.89,9.49,71.09,22.84,116.56,37.66Z" style="fill:#f5f5f5;"></path><path d="M188.59,218.89c42.55,21.56,81.06,41.07,108.97,55.21,13.96,6.99,25.26,12.65,33.11,16.57,3.9,1.92,6.94,3.41,9.03,4.44,1.02,.49,1.8,.86,2.36,1.13,.54,.25,.81,.37,.82,.35,0-.02-.25-.17-.77-.45-.55-.29-1.32-.69-2.32-1.22-2.08-1.06-5.09-2.6-8.96-4.58-7.84-3.93-19.14-9.6-33.09-16.6-28.04-13.9-66.73-33.07-109.48-54.25-42.75-21.14-81.42-40.34-109.34-54.41-13.96-7.03-25.23-12.77-32.99-16.79-3.88-2.01-6.88-3.6-8.9-4.69-2.02-1.1-3.06-1.71-3.02-1.79,.04-.08,1.16,.39,3.25,1.36,2.09,.96,5.16,2.42,9.1,4.33,7.87,3.81,19.22,9.4,33.21,16.38,27.98,13.94,66.51,33.43,109.02,55.01Z" style="fill:#f5f5f5;"></path><path d="M194.35,209.95c38.56,27.76,73.45,52.88,98.75,71.09,12.66,9.02,22.91,16.33,30.03,21.4,3.55,2.49,6.3,4.42,8.21,5.76,.93,.63,1.64,1.12,2.15,1.47,.49,.33,.74,.49,.76,.47,.01-.01-.22-.2-.69-.56-.5-.37-1.19-.88-2.09-1.55-1.88-1.36-4.61-3.34-8.12-5.88-7.11-5.08-17.36-12.39-30.02-21.42-25.46-17.98-60.59-42.8-99.41-70.21-38.82-27.37-73.93-52.22-99.24-70.35-12.66-9.06-22.86-16.45-29.88-21.6-3.51-2.58-6.22-4.6-8.04-5.99-1.82-1.39-2.75-2.16-2.7-2.23,.05-.07,1.08,.56,3,1.83,1.91,1.27,4.71,3.18,8.29,5.65,7.16,4.96,17.47,12.21,30.17,21.22,25.39,18.02,60.31,43.12,98.83,70.9Z" style="fill:#f5f5f5;"></path><path d="M201.48,201.99c33.65,33.25,64.1,63.34,86.17,85.15,11.06,10.83,20.02,19.59,26.24,25.68,3.1,2.99,5.52,5.32,7.19,6.93,.81,.77,1.44,1.36,1.89,1.78,.43,.4,.66,.59,.67,.58,.01-.01-.19-.24-.59-.66-.43-.44-1.04-1.05-1.82-1.85-1.64-1.63-4.02-4-7.08-7.04-6.22-6.09-15.17-14.86-26.22-25.7-22.27-21.61-53-51.43-86.96-84.39-33.97-32.91-64.68-62.76-86.77-84.5-11.05-10.87-19.95-19.7-26.06-25.85-3.05-3.08-5.41-5.48-6.98-7.13-1.57-1.65-2.37-2.55-2.31-2.61,.06-.06,.98,.72,2.67,2.26,1.69,1.54,4.14,3.85,7.28,6.84,6.28,5.98,15.31,14.7,26.4,25.52,22.2,21.64,52.68,51.71,86.28,84.97Z" style="fill:#f5f5f5;"></path><path d="M209.8,195.2c27.92,37.93,53.18,72.26,71.49,97.14,9.2,12.37,16.64,22.38,21.81,29.33,2.59,3.43,4.6,6.09,5.99,7.93,.68,.88,1.21,1.56,1.58,2.05,.36,.46,.55,.69,.57,.68s-.15-.26-.48-.74c-.36-.5-.85-1.2-1.5-2.1-1.36-1.86-3.33-4.56-5.86-8.02-5.17-6.96-12.6-16.97-21.79-29.35-18.54-24.72-44.13-58.82-72.4-96.5-28.29-37.64-53.85-71.77-72.2-96.59-9.18-12.41-16.56-22.48-21.6-29.48-2.52-3.5-4.46-6.23-5.75-8.1-1.29-1.87-1.93-2.88-1.86-2.93,.07-.05,.85,.86,2.27,2.64,1.42,1.78,3.48,4.43,6.1,7.86,5.25,6.86,12.77,16.83,22,29.2,18.47,24.73,43.76,59.05,71.63,96.98Z" style="fill:#f5f5f5;"></path><path d="M219.1,189.76c21.47,41.71,40.9,79.45,54.98,106.81,7.09,13.61,12.84,24.63,16.83,32.29,2,3.78,3.56,6.72,4.64,8.75,.53,.97,.94,1.72,1.23,2.26,.28,.51,.44,.76,.45,.75,.02,0-.1-.28-.36-.8-.27-.55-.65-1.31-1.14-2.31-1.04-2.05-2.56-5.01-4.5-8.81-3.98-7.66-9.72-18.68-16.8-32.3-14.34-27.23-34.12-64.8-55.99-106.32-21.88-41.48-41.64-79.07-55.77-106.37-7.07-13.65-12.74-24.72-16.6-32.4-1.93-3.84-3.41-6.83-4.38-8.88-.97-2.04-1.45-3.13-1.37-3.17,.08-.04,.7,.98,1.82,2.95,1.12,1.97,2.72,4.9,4.76,8.69,4.08,7.57,9.9,18.57,17.03,32.19,14.26,27.24,33.72,64.97,55.15,106.67Z" style="fill:#f5f5f5;"></path><path d="M229.17,185.81c14.45,44.47,27.53,84.72,37.01,113.89,4.8,14.53,8.69,26.29,11.39,34.46,1.37,4.04,2.43,7.18,3.17,9.35,.37,1.04,.65,1.85,.85,2.42,.2,.54,.31,.82,.33,.81,.02,0-.06-.29-.22-.85-.18-.58-.43-1.4-.76-2.45-.7-2.18-1.71-5.34-3.02-9.39-2.69-8.17-6.57-19.93-11.36-34.47-9.75-29.09-23.21-69.21-38.08-113.55-14.9-44.31-28.32-84.45-37.86-113.57-4.77-14.56-8.58-26.36-11.14-34.53-1.28-4.09-2.26-7.27-2.89-9.43-.63-2.17-.92-3.32-.84-3.34,.08-.03,.54,1.07,1.32,3.19,.78,2.12,1.9,5.26,3.3,9.31,2.81,8.1,6.78,19.85,11.61,34.39,9.67,29.08,22.79,69.32,37.19,113.78Z" style="fill:#f5f5f5;"></path><path d="M239.76,183.44c7.07,46.13,13.47,87.87,18.11,118.13,2.39,15.08,4.33,27.29,5.67,35.77,.7,4.2,1.24,7.46,1.62,9.71,.19,1.09,.34,1.92,.45,2.52,.11,.57,.17,.86,.19,.85,.02,0,0-.3-.08-.87-.08-.6-.2-1.44-.35-2.54-.34-2.26-.83-5.53-1.46-9.74-1.34-8.48-3.26-20.69-5.64-35.77-4.92-30.22-11.71-71.9-19.22-117.96-7.54-46.03-14.3-87.73-19-117.95-2.36-15.11-4.2-27.34-5.41-35.81-.61-4.23-1.05-7.52-1.33-9.76-.27-2.24-.37-3.42-.29-3.43,.09-.01,.36,1.14,.79,3.35,.43,2.21,1.02,5.48,1.75,9.7,1.46,8.43,3.48,20.64,5.9,35.74,4.85,30.19,11.28,71.94,18.31,118.05Z" style="fill:#f5f5f5;"></path><path d="M250.59,182.71c-.37,46.64-.71,88.84-.95,119.43-.05,15.26-.08,27.61-.11,36.19,.02,4.25,.03,7.56,.04,9.84,.02,1.1,.03,1.95,.04,2.56,.02,.58,.03,.87,.05,.87,.02,0,.04-.3,.06-.87,.01-.61,.03-1.46,.06-2.56,.03-2.28,.06-5.59,.11-9.84,.03-8.58,.08-20.93,.13-36.19-.04-30.59-.09-72.8-.15-119.43-.09-46.61-.11-88.83,.06-119.38,.08-15.28,.21-27.64,.36-36.19,.08-4.27,.16-7.59,.24-9.84,.09-2.25,.17-3.43,.26-3.43,.09,0,.17,1.18,.24,3.43,.07,2.25,.13,5.57,.18,9.84,.1,8.55,.14,20.91,.12,36.19-.03,30.56-.33,72.77-.74,119.38Z" style="fill:#f5f5f5;"></path><path d="M261.42,183.62c-7.83,46.01-14.91,87.65-20.04,117.83-2.48,15.07-4.49,27.27-5.89,35.74-.66,4.2-1.17,7.47-1.53,9.73-.16,1.09-.28,1.93-.37,2.53-.08,.57-.11,.87-.09,.87,.02,0,.09-.29,.2-.85,.11-.6,.27-1.43,.47-2.52,.39-2.25,.96-5.51,1.68-9.7,1.4-8.47,3.42-20.67,5.92-35.73,4.85-30.23,11.54-71.93,18.93-118.01,7.35-46.06,14.08-87.77,19.13-117.93,2.52-15.08,4.63-27.28,6.15-35.7,.76-4.21,1.37-7.47,1.82-9.68,.44-2.21,.72-3.36,.81-3.35,.09,.01-.02,1.19-.31,3.43-.29,2.23-.76,5.52-1.39,9.75-1.27,8.46-3.2,20.68-5.66,35.77-4.92,30.18-11.96,71.84-19.82,117.82Z" style="fill:#f5f5f5;"></path><path d="M271.97,186.17c-15.19,44.24-28.93,84.27-38.89,113.29-4.89,14.5-8.86,26.24-11.61,34.39-1.33,4.05-2.37,7.2-3.08,9.37-.33,1.05-.59,1.86-.77,2.45-.17,.55-.24,.84-.23,.85,.02,0,.13-.27,.33-.81,.21-.57,.5-1.38,.87-2.42,.75-2.16,1.84-5.3,3.24-9.32,2.76-8.15,6.73-19.88,11.64-34.38,9.68-29.11,23.05-69.26,37.81-113.64,14.72-44.36,28.12-84.52,38-113.53,4.94-14.51,8.99-26.23,11.85-34.31,1.43-4.04,2.57-7.17,3.37-9.28,.8-2.11,1.26-3.21,1.34-3.18,.08,.03-.21,1.18-.86,3.34-.65,2.16-1.64,5.34-2.95,9.42-2.62,8.16-6.51,19.93-11.39,34.46-9.74,29.05-23.46,69.11-38.67,113.31Z" style="fill:#f5f5f5;"></path><path d="M281.97,190.29c-22.16,41.37-42.21,78.8-56.74,105.94-7.18,13.57-13,24.56-17.03,32.19-1.97,3.79-3.51,6.75-4.56,8.78-.5,.99-.88,1.75-1.16,2.3-.26,.52-.38,.79-.36,.8,.02,0,.17-.25,.46-.75,.3-.54,.71-1.28,1.25-2.25,1.09-2.02,2.67-4.95,4.7-8.71,4.04-7.63,9.86-18.61,17.06-32.17,14.28-27.26,33.98-64.87,55.75-106.44,21.72-41.56,41.46-79.16,55.91-106.3,7.22-13.57,13.12-24.53,17.26-32.07,2.07-3.77,3.69-6.69,4.82-8.65,1.13-1.97,1.76-2.98,1.84-2.94,.08,.04-.4,1.13-1.39,3.16-.99,2.04-2.49,5.02-4.44,8.84-3.91,7.65-9.66,18.69-16.83,32.29-14.33,27.2-34.35,64.66-56.53,105.99Z" style="fill:#f5f5f5;"></path><path d="M291.17,195.89c-28.54,37.49-54.36,71.42-73.08,96.02-9.28,12.31-16.79,22.28-22,29.2-2.56,3.45-4.55,6.13-5.92,7.98-.65,.9-1.16,1.6-1.52,2.09-.34,.48-.5,.72-.49,.73,.01,.01,.21-.22,.57-.67,.38-.48,.91-1.16,1.6-2.03,1.4-1.83,3.44-4.48,6.05-7.89,5.22-6.92,12.74-16.88,22.02-29.19,18.49-24.76,43.99-58.91,72.18-96.66,28.14-37.75,53.68-71.89,72.32-96.5,9.32-12.31,16.91-22.23,22.21-29.05,2.65-3.41,4.73-6.05,6.16-7.82,1.43-1.77,2.22-2.67,2.29-2.62,.07,.05-.58,1.05-1.88,2.91-1.3,1.86-3.26,4.58-5.81,8.06-5.1,6.97-12.55,16.99-21.81,29.33-18.53,24.69-44.33,58.65-72.88,96.1Z" style="fill:#f5f5f5;"></path><path d="M299.37,202.82c-34.19,32.72-65.13,62.34-87.56,83.8-11.13,10.76-20.15,19.47-26.41,25.52-3.08,3.02-5.47,5.37-7.13,6.99-.79,.79-1.4,1.4-1.83,1.84-.41,.42-.61,.64-.6,.65,.01,.01,.24-.18,.67-.58,.45-.42,1.08-1.01,1.9-1.77,1.68-1.6,4.11-3.91,7.24-6.88,6.26-6.04,15.28-14.75,26.42-25.5,22.23-21.66,52.89-51.55,86.77-84.57,33.84-33.03,64.53-62.9,86.89-84.39,11.17-10.75,20.26-19.41,26.59-25.34,3.16-2.97,5.64-5.26,7.33-6.79,1.7-1.53,2.62-2.31,2.68-2.25,.06,.06-.74,.95-2.33,2.59-1.59,1.64-3.96,4.03-7.03,7.08-6.15,6.11-15.11,14.89-26.24,25.68-22.25,21.59-53.17,51.23-87.37,83.91Z" style="fill:#f5f5f5;"></path><path d="M306.36,210.9c-39.01,27.16-74.32,51.73-99.9,69.54-12.72,8.95-23.02,16.19-30.17,21.22-3.52,2.52-6.27,4.48-8.16,5.83-.91,.66-1.6,1.17-2.1,1.54-.47,.35-.71,.54-.69,.55,.01,.01,.27-.14,.76-.47,.51-.35,1.23-.83,2.16-1.46,1.91-1.32,4.69-3.24,8.25-5.7,7.15-5.02,17.46-12.26,30.18-21.2,25.42-18.04,60.49-42.92,99.25-70.43,38.71-27.52,73.81-52.38,99.33-70.23,12.76-8.93,23.12-16.11,30.32-21.02,3.6-2.45,6.41-4.34,8.33-5.6,1.92-1.26,2.96-1.88,3.01-1.81,.05,.07-.88,.83-2.71,2.21-1.83,1.38-4.55,3.38-8.08,5.94-7.05,5.11-17.31,12.42-30.03,21.4-25.44,17.96-60.73,42.57-99.74,69.68Z" style="fill:#f5f5f5;"></path><path d="M311.96,219.93c-42.9,20.89-81.72,39.8-109.86,53.51-14,6.9-25.34,12.49-33.21,16.37-3.88,1.95-6.91,3.47-8.99,4.52-1,.52-1.77,.92-2.33,1.2-.52,.28-.78,.43-.77,.44,0,.02,.29-.1,.83-.35,.56-.26,1.35-.63,2.37-1.11,2.1-1.02,5.15-2.49,9.07-4.38,7.87-3.88,19.21-9.46,33.22-16.35,28.01-13.95,66.65-33.21,109.36-54.48,42.66-21.3,81.33-40.52,109.41-54.28,14.04-6.88,25.43-12.4,33.33-16.15,3.95-1.88,7.03-3.31,9.13-4.26,2.1-.95,3.22-1.41,3.26-1.33,.04,.08-1.01,.68-3.03,1.77-2.03,1.09-5.04,2.65-8.93,4.64-7.79,3.97-19.1,9.64-33.11,16.57-28.01,13.88-66.83,32.82-109.72,53.67Z" style="fill:#f5f5f5;"></path><path d="M316.04,229.72c-45.75,14.07-87.15,26.81-117.16,36.04-14.95,4.68-27.05,8.46-35.45,11.09-4.15,1.33-7.38,2.37-9.61,3.09-1.07,.36-1.9,.63-2.49,.83-.56,.19-.84,.3-.84,.32,0,.02,.3-.06,.87-.21,.6-.18,1.44-.42,2.52-.74,2.24-.68,5.49-1.67,9.66-2.94,8.4-2.62,20.51-6.4,35.46-11.07,29.92-9.5,71.2-22.6,116.81-37.08,45.58-14.51,86.88-27.58,116.83-36.87,14.98-4.65,27.12-8.35,35.53-10.85,4.2-1.25,7.48-2.2,9.71-2.81,2.23-.62,3.41-.9,3.44-.82,.03,.08-1.1,.52-3.28,1.29-2.18,.76-5.41,1.85-9.57,3.21-8.33,2.73-20.42,6.6-35.38,11.31-29.91,9.42-71.31,22.19-117.05,36.22Z" style="fill:#f5f5f5;"></path><path d="M318.48,240c-47.46,6.9-90.4,13.15-121.53,17.68-15.52,2.33-28.08,4.22-36.8,5.53-4.32,.68-7.68,1.21-9.99,1.58-1.12,.19-1.98,.34-2.59,.44-.58,.11-.88,.17-.88,.19,0,.02,.31,0,.89-.08,.62-.08,1.49-.19,2.61-.34,2.32-.33,5.69-.81,10.02-1.43,8.72-1.31,21.29-3.19,36.81-5.51,31.09-4.8,73.97-11.43,121.36-18.76,47.36-7.36,90.26-13.95,121.35-18.54,15.54-2.3,28.13-4.1,36.84-5.29,4.35-.59,7.74-1.03,10.04-1.29,2.3-.27,3.51-.36,3.53-.28,.01,.08-1.17,.35-3.45,.77-2.28,.42-5.64,1-9.97,1.71-8.67,1.42-21.23,3.39-36.77,5.75-31.06,4.73-74.01,11.01-121.45,17.87Z" style="fill:#f5f5f5;"></path></g><polygon points="8.97 490.79 8.97 417.82 487.14 417.82 487.14 493.15 8.97 490.79" style="fill:#f5f5f5;"></polygon><g><path d="M213.12,167.25l3.99,1.5-3.46,.98c-1.15,.33-2.07,1.21-2.44,2.35l-1.25,3.83-1.54-3.84c-.38-.95-1.15-1.7-2.12-2.05l-3.5-1.27,3.79-1.56c.92-.38,1.64-1.11,2-2.04l1.37-3.56,.98,3.31c.32,1.08,1.13,1.95,2.19,2.35Z" style="fill:#e0e0e0;"></path><path d="M71.31,306.32l2.73,1.02-2.37,.67c-.79,.22-1.42,.83-1.67,1.61l-.86,2.62-1.05-2.63c-.26-.65-.79-1.16-1.45-1.4l-2.39-.87,2.59-1.07c.63-.26,1.12-.76,1.36-1.4l.94-2.43,.67,2.26c.22,.74,.77,1.34,1.5,1.61Z" style="fill:#e0e0e0;"></path><path d="M398.17,370.33l2.4,.9-2.08,.59c-.69,.2-1.24,.73-1.47,1.41l-.75,2.3-.93-2.31c-.23-.57-.69-1.02-1.27-1.23l-2.1-.76,2.28-.94c.55-.23,.99-.67,1.2-1.23l.82-2.14,.59,1.99c.19,.65,.68,1.17,1.32,1.41Z" style="fill:#e0e0e0;"></path><path d="M347.16,115.78l2.4,.9-2.08,.59c-.69,.2-1.24,.73-1.47,1.41l-.75,2.3-.93-2.31c-.23-.57-.69-1.02-1.27-1.23l-2.1-.76,2.28-.94c.55-.23,.99-.67,1.2-1.23l.82-2.14,.59,1.99c.19,.65,.68,1.17,1.32,1.41Z" style="fill:#e0e0e0;"></path><path d="M97.41,343.48l3.99,1.5-3.46,.98c-1.15,.33-2.07,1.21-2.44,2.35l-1.25,3.83-1.54-3.84c-.38-.95-1.15-1.7-2.12-2.05l-3.5-1.27,3.79-1.56c.92-.38,1.64-1.11,2-2.04l1.37-3.56,.98,3.31c.32,1.08,1.13,1.95,2.19,2.35Z" style="fill:#e0e0e0;"></path><path d="M390.39,388.4l3.99,1.5-3.46,.98c-1.15,.33-2.07,1.21-2.44,2.35l-1.25,3.83-1.54-3.84c-.38-.95-1.15-1.7-2.12-2.05l-3.5-1.27,3.79-1.56c.92-.38,1.64-1.11,2-2.04l1.37-3.56,.98,3.31c.32,1.08,1.13,1.95,2.19,2.35Z" style="fill:#e0e0e0;"></path><path d="M354.31,97.18l3.99,1.5-3.46,.98c-1.15,.33-2.07,1.21-2.44,2.35l-1.25,3.83-1.54-3.84c-.38-.95-1.15-1.7-2.12-2.05l-3.5-1.27,3.79-1.56c.92-.38,1.64-1.11,2-2.04l1.37-3.56,.98,3.31c.32,1.08,1.13,1.95,2.19,2.35Z" style="fill:#e0e0e0;"></path><path d="M207.36,190.28l1.5,.56-1.3,.37c-.43,.12-.78,.45-.92,.88l-.47,1.44-.58-1.45c-.14-.36-.43-.64-.8-.77l-1.32-.48,1.43-.59c.35-.14,.62-.42,.75-.77l.52-1.34,.37,1.25c.12,.41,.43,.74,.82,.88Z" style="fill:#e0e0e0;"></path><path d="M79.22,218.8l1.5,.56-1.3,.37c-.43,.12-.78,.45-.92,.88l-.47,1.44-.58-1.45c-.14-.36-.43-.64-.8-.77l-1.32-.48,1.43-.59c.35-.14,.62-.42,.75-.77l.52-1.34,.37,1.25c.12,.41,.43,.74,.82,.88Z" style="fill:#e0e0e0;"></path><path d="M418.4,164.35l1.5,.56-1.3,.37c-.43,.12-.78,.45-.92,.88l-.47,1.44-.58-1.45c-.14-.36-.43-.64-.8-.77l-1.32-.48,1.43-.59c.35-.14,.62-.42,.75-.77l.52-1.34,.37,1.25c.12,.41,.43,.74,.82,.88Z" style="fill:#e0e0e0;"></path><path d="M186.75,179.88l2.2,.83-1.91,.54c-.64,.18-1.14,.67-1.35,1.3l-.69,2.11-.85-2.12c-.21-.53-.64-.94-1.17-1.13l-1.93-.7,2.09-.86c.51-.21,.9-.62,1.1-1.13l.76-1.96,.54,1.83c.18,.6,.62,1.08,1.21,1.3Z" style="fill:#e0e0e0;"></path></g></g><g id="freepik--Table--inject-151"><path d="M470.6,415.78c0,.14-99.64,.26-222.53,.26s-222.55-.12-222.55-.26,99.62-.26,222.55-.26,222.53,.12,222.53,.26Z" style="fill:#263238;"></path></g><g id="freepik--Food--inject-151"><g><g><ellipse cx="256.67" cy="453.04" rx="55.79" ry="14.24" style="fill:#0F493D;"></ellipse><g><path d="M147.74,363.66s.69,94.07,108.93,96.09h.69c108.24-2.02,108.93-97.25,108.93-97.25l-218.55,1.16Z" style="fill:#0F493D;"></path><ellipse cx="257.01" cy="363.77" rx="109.28" ry="27.24" style="fill:#0F493D;"></ellipse><path d="M355.12,363.77c-2.01-11.75-43.92-21.59-98.11-21.59s-94.09,9.59-97.83,20.9c-.77,2.32-1.85,6.87,.94,9.01-.07,.05-.15,.1-.22,.14,15.19,17.75,57.48,19.42,101.22,19.42s84.34-6.73,93.61-21c-.11-.07-.22-.15-.34-.22,1.22-2.18,1.17-4.12,.73-6.68Zm-97.2-8.4c-.36,0-.72,0-1.08,0,.06,0,.12,0,.18,0,.3,0,.6,0,.9,0Zm1.35,0c-.13,0-.26,0-.39,0,.13,0,.26,0,.39,0Z" style="opacity:.3;"></path></g><path d="M163.17,375.42c-1.23,.82,20.2,11.87,59.33,15.69,12.45,1.22,27.11,2.45,42.87,1.42,63.71-4.18,75.64-10.8,84.69-17.12,2.26-1.58,6.18-7.85,5.86-8.76-1.54-4.32,5.57,8.5,5.57,8.5l-11.43,25.83-77.2,22.66s-68.16-1.39-69.35-2.15c-1.19-.75-31.17-16.34-31.17-16.34l-17.61-15.78,8.45-13.97Z" style="fill:#0F493D;"></path><path d="M147.74,368.7s.04,.21,.08,.61c.04,.4,.07,1,.33,1.75,.41,1.5,1.52,3.61,3.67,5.69,2.12,2.09,5.16,4.17,8.93,6.11,3.77,1.93,8.28,3.71,13.37,5.34,20.37,6.51,49.95,10.4,82.55,10.43,32.61-.03,62.19-3.92,82.57-10.43,5.08-1.63,9.59-3.4,13.36-5.34,3.77-1.93,6.81-4.02,8.93-6.11,2.14-2.08,3.26-4.18,3.67-5.68,.26-.74,.29-1.34,.33-1.74,.05-.4,.08-.61,.08-.61,0,0,0,.21-.03,.61-.03,.4-.04,1.01-.29,1.77-.38,1.53-1.48,3.68-3.62,5.8-2.12,2.13-5.16,4.26-8.94,6.22-3.78,1.97-8.29,3.77-13.39,5.43-20.4,6.62-50.03,10.57-82.68,10.6-32.64-.03-62.26-3.98-82.67-10.6-5.09-1.66-9.61-3.46-13.39-5.43-3.77-1.97-6.82-4.09-8.94-6.22-2.14-2.12-3.25-4.27-3.63-5.8-.25-.76-.26-1.37-.29-1.77-.03-.4-.03-.61-.03-.61Z" style="fill:#263238;"></path><path d="M158.5,368.12s.04,.18,.08,.54c.02,.18,.05,.4,.08,.66,.06,.26,.17,.55,.27,.88,.44,1.31,1.6,3.09,3.64,4.78,4.06,3.45,11.26,6.56,20.38,9.14,18.32,5.16,44.63,8.23,73.65,8.26,29.03-.03,55.34-3.1,73.66-8.26,9.13-2.58,16.32-5.68,20.38-9.14,2.04-1.69,3.2-3.47,3.64-4.78,.1-.33,.21-.62,.27-.88,.03-.26,.06-.48,.08-.66,.04-.35,.08-.54,.08-.54,0,0,0,.18-.03,.54l-.05,.67c-.05,.26-.15,.56-.25,.9-.42,1.34-1.57,3.17-3.61,4.9-4.06,3.54-11.27,6.71-20.41,9.34-18.34,5.27-44.7,8.4-73.76,8.43-29.05-.03-55.4-3.16-73.75-8.43-9.14-2.63-16.35-5.8-20.41-9.34-2.04-1.73-3.19-3.56-3.61-4.9-.09-.34-.2-.64-.25-.9l-.05-.67c-.03-.36-.03-.54-.03-.54Z" style="fill:#263238;"></path><path d="M366.29,362.5s.01,.28,0,.84c-.02,.56-.05,1.38-.13,2.46-.16,2.16-.48,5.35-1.17,9.41-.7,4.06-1.77,8.99-3.52,14.58-1.75,5.58-4.17,11.82-7.64,18.32-3.46,6.5-7.99,13.26-13.86,19.65-5.84,6.41-13.14,12.29-21.6,17.14-8.46,4.86-18.08,8.6-28.39,11.09-10.31,2.49-21.27,3.76-32.51,4.02-11.25-.21-22.21-1.38-32.55-3.77-10.33-2.38-20-6.01-28.52-10.75-8.53-4.73-15.88-10.54-21.86-16.82-5.96-6.31-10.56-13.02-14.09-19.48-3.53-6.47-6.01-12.69-7.79-18.26-1.78-5.57-2.88-10.5-3.59-14.56-.71-4.06-1.04-7.24-1.19-9.4-.08-1.08-.11-1.91-.13-2.46-.01-.56,0-.84,0-.84,0,0,.02,.28,.05,.84,.03,.55,.08,1.38,.18,2.46,.19,2.15,.55,5.33,1.29,9.37,.74,4.04,1.87,8.95,3.67,14.5,1.81,5.55,4.3,11.74,7.84,18.17,3.54,6.43,8.14,13.1,14.08,19.36,5.97,6.23,13.29,12,21.78,16.69,8.48,4.71,18.11,8.31,28.41,10.67,10.29,2.38,21.24,3.54,32.43,3.75,11.2-.26,22.13-1.52,32.39-4,10.27-2.46,19.85-6.19,28.27-11.01,8.42-4.82,15.7-10.65,21.52-17.02,5.85-6.35,10.38-13.07,13.85-19.53,3.48-6.47,5.92-12.68,7.69-18.24,1.77-5.56,2.87-10.48,3.6-14.53,.72-4.05,1.08-7.22,1.27-9.38,.1-1.08,.14-1.9,.18-2.46,.03-.55,.05-.84,.05-.84Z" style="fill:#263238;"></path></g><g><g><path d="M107.11,210.96c-13.81,1.43-39.73,19.88-17.83,46.22,21.9,26.35,51.54,4.88,54.55-13.26,2.37-14.29-11.01-35.62-36.72-32.96Z" style="fill:#0F493D;"></path><g style="opacity:.3;"><path d="M107.11,210.96c-13.81,1.43-39.73,19.88-17.83,46.22,21.9,26.35,51.54,4.88,54.55-13.26,2.37-14.29-11.01-35.62-36.72-32.96Z"></path></g></g><path d="M107.11,207.9c-13.81,1.43-39.73,19.88-17.83,46.22,21.9,26.35,51.54,4.88,54.55-13.26,2.37-14.29-11.01-35.62-36.72-32.96Z" style="fill:#0F493D;"></path><g style="opacity:.3;"><path d="M90.28,227.99c-1.5-2,1.78-10.84,13.39-14.53,11.6-3.69,20.3,1.52,19.41,3.25-.89,1.73-2.46,10.41-13.61,12.79-10.42,2.23-17.4,.87-19.19-1.52Z"></path></g><g style="opacity:.3;"><path d="M130.67,224.09c1.68-.91,11.83,9.32,6.69,19.3-5.13,9.97-11.83,16.05-16.51,14.09-4.69-1.95-6.25-12.84-2.68-20.43,3.57-7.59,10.49-11.87,12.49-12.96Z"></path></g><g style="opacity:.3;"><path d="M86.93,234.93c1.06-1.91,14.25-2.44,20.53,2.12,6.27,4.55,8.62,19.48,6.84,22.29-1.85,2.91-15.54-1.64-20.9-6.85-5.36-5.2-8.03-14.74-6.47-17.56Z"></path></g><path d="M94.52,221.4c-1.94,1.72,3.79,7.89,4.69,6.37,.89-1.52-3.12-7.75-4.69-6.37Z" style="fill:#0F493D;"></path><path d="M100.69,217.15c-1.11,.37,1.64,11.97,4.32,10.86,2.68-1.11-2.39-11.51-4.32-10.86Z" style="fill:#0F493D;"></path><path d="M108.13,215.2c-1.11,.43,.22,7.66,2.45,7.4,2.23-.25-1.34-7.84-2.45-7.4Z" style="fill:#0F493D;"></path><path d="M116.21,214.33c-2.67,0-2.26,10.05,0,10.28,2.26,.23,3.68-10.27,0-10.28Z" style="fill:#0F493D;"></path><path d="M101.07,237.94c-.4-1.25-10.93,.05-10.04,2.65,.89,2.6,10.89,.05,10.04-2.65Z" style="fill:#0F493D;"></path><path d="M109.28,246.99c1.27,.23,.98,10.36-1.98,9.09-2.96-1.28,.71-9.32,1.98-9.09Z" style="fill:#0F493D;"></path><path d="M105.77,242.4c1.24,.93-5.5,11.12-9.04,8.95-3.55-2.17,7.8-9.88,9.04-8.95Z" style="fill:#0F493D;"></path><path d="M124.13,235.79c.37-2.38,11.82,.08,11.04,2.38s-11.53,.77-11.04-2.38Z" style="fill:#0F493D;"></path><path d="M126.08,231.78c.67,1.46,7.99-.13,7.14-2.13-.85-2-7.81,.67-7.14,2.13Z" style="fill:#0F493D;"></path><path d="M121.41,239.68c-.51,.77,7.61,7.23,8.22,5.34,.61-1.88-6.94-7.28-8.22-5.34Z" style="fill:#0F493D;"></path><path d="M118.47,242.49c-1.8,1.08,.69,9.7,2.76,9.11,2.07-.58-.19-10.65-2.76-9.11Z" style="fill:#0F493D;"></path><path d="M105.19,209.37c.02,.08-1.32,.33-3.35,1.07-1.02,.36-2.2,.89-3.46,1.55-1.25,.68-2.58,1.51-3.88,2.51-1.29,1.01-2.42,2.09-3.38,3.13-.94,1.05-1.73,2.06-2.32,2.94-1.19,1.77-1.74,2.98-1.81,2.94-.03-.01,.1-.32,.34-.86,.12-.28,.28-.61,.49-.98,.21-.37,.43-.81,.73-1.25,.56-.92,1.33-1.95,2.27-3.03,.96-1.07,2.1-2.17,3.4-3.2,1.32-1.01,2.68-1.85,3.96-2.52,1.29-.65,2.5-1.16,3.55-1.49,.51-.19,1-.3,1.42-.42,.42-.12,.79-.2,1.09-.25,.6-.11,.94-.16,.94-.14Z" style="fill:#fff;"></path><path d="M119.05,210.3c-.04,.11-1.4-.29-3.13-.52-1.73-.24-3.15-.21-3.16-.32-.01-.1,1.44-.32,3.22-.07,1.78,.23,3.12,.82,3.08,.92Z" style="fill:#fff;"></path><path d="M120.77,227.57c.06,.09-1.79,1.26-4.34,2.17-2.54,.92-4.73,1.2-4.75,1.1-.02-.12,2.1-.57,4.6-1.48,2.51-.9,4.42-1.9,4.48-1.79Z" style="fill:#fff;"></path></g><g><path d="M113.48,135.41s-15.69-10.89-15.83-14.71c-.15-3.82,6.2-1.44,6.2-1.44,0,0-4.69-9.33-1.76-12.49,1.97-2.12,10.93,5.9,10.93,5.9,0,0-2.39-6.99,.93-6.72,3.32,.28,10.3,8.67,10.67,16.8,.37,8.12-11.14,12.67-11.14,12.67Z" style="fill:#455a64;"></path><path d="M124.9,115.1c-.94-.11-1.72,.7-2.29,1.46-1.78,2.38-3.19,5.04-4.15,7.86-2.15-2.25-4.63-4.17-7.34-5.68-.96-.53-2.13-1.02-3.11-.53-.99,.49-1.31,1.75-1.38,2.85-.21,3.09,.63,6.24,2.35,8.81-2.14-1.1-4.59-1.56-6.98-1.31-.83,.09-1.74,.31-2.21,1.01-.85,1.25,.31,2.87,1.44,3.88,4.32,3.88,9.32,7,14.69,9.2l11.3,.35c.85-8.32,.7-16.74-.44-25.02-.17-1.22-.64-2.73-1.86-2.87Z" style="fill:#455a64;"></path><path d="M124.9,115.1c-.94-.11-1.72,.7-2.29,1.46-1.78,2.38-3.19,5.04-4.15,7.86-2.15-2.25-4.63-4.17-7.34-5.68-.96-.53-2.13-1.02-3.11-.53-.99,.49-1.31,1.75-1.38,2.85-.21,3.09,.63,6.24,2.35,8.81-2.14-1.1-4.59-1.56-6.98-1.31-.83,.09-1.74,.31-2.21,1.01-.85,1.25,.31,2.87,1.44,3.88,4.32,3.88,9.32,7,14.69,9.2l11.3,.35c.85-8.32,.7-16.74-.44-25.02-.17-1.22-.64-2.73-1.86-2.87Z" style="fill:#455a64;"></path><g style="opacity:.1;"><path d="M124.9,115.1c-.94-.11-1.72,.7-2.29,1.46-1.78,2.38-3.19,5.04-4.15,7.86-2.15-2.25-4.63-4.17-7.34-5.68-.96-.53-2.13-1.02-3.11-.53-.99,.49-1.31,1.75-1.38,2.85-.21,3.09,.63,6.24,2.35,8.81-2.14-1.1-4.59-1.56-6.98-1.31-.83,.09-1.74,.31-2.21,1.01-.85,1.25,.31,2.87,1.44,3.88,4.32,3.88,9.32,7,14.69,9.2l11.3,.35c.85-8.32,.7-16.74-.44-25.02-.17-1.22-.64-2.73-1.86-2.87Z"></path></g><path d="M122.22,151.86s-14.83-6.55-17.25-10.28c-2.42-3.73,12.18,.2,12.18,.2,0,0-4.95-7.12-3.86-11.51,1.09-4.39,11.93,6.46,11.93,6.46,0,0,1.11-14.39,4.4-13.84,3.29,.54,5.64,21.06,5.64,21.06l81.96,108.47s-.97,8.45-19.51,12.55l-31.03-46.46s-12.3-4.8-14.28-9.3c-1.98-4.49,5.7-1.77,5.7-1.77l-15.74-24.77s-16.91-8.53-17.69-12.8c-.78-4.28,7.46-1,7.46-1l-9.91-16.99Z" style="fill:#455a64;"></path><path d="M162.06,188.17s-.35-.29-.93-.87c-.65-.66-1.47-1.48-2.44-2.46-1.04-1.03-2.28-2.25-3.72-3.54-.72-.64-1.49-1.3-2.33-1.91-.42-.31-.86-.6-1.32-.83-.23-.12-.47-.2-.7-.25-.23-.03-.36,.02-.52,.17-.27,.32-.3,.88-.26,1.38,.04,.52,.14,1.04,.27,1.54,.25,1.01,.59,1.96,.93,2.86,.69,1.8,1.41,3.38,2.03,4.71,.6,1.24,1.1,2.29,1.5,3.12,.36,.74,.55,1.15,.52,1.17-.03,.02-.28-.36-.7-1.07-.41-.71-.99-1.75-1.65-3.06-.66-1.31-1.42-2.89-2.14-4.7-.36-.91-.71-1.87-.98-2.91-.14-.52-.24-1.06-.29-1.62-.03-.55-.06-1.2,.39-1.77,.13-.12,.26-.25,.45-.3,.19-.07,.36-.05,.53-.04,.31,.06,.59,.17,.85,.3,.51,.26,.97,.56,1.4,.88,.86,.64,1.63,1.31,2.35,1.97,1.43,1.32,2.65,2.57,3.66,3.64,1,1.07,1.79,1.96,2.32,2.58,.53,.62,.81,.99,.78,1.01Z" style="fill:#263238;"></path><path d="M186.14,219.88s-.3-.23-.77-.7c-.55-.55-1.22-1.22-1.99-1.99-.85-.83-1.86-1.83-3.03-2.87-.59-.52-1.21-1.05-1.89-1.55-.34-.25-.7-.48-1.07-.67-.18-.1-.38-.16-.55-.2-.18-.02-.26,.01-.38,.12-.2,.23-.24,.68-.2,1.09,.04,.42,.11,.83,.22,1.24,.2,.81,.48,1.59,.75,2.32,.56,1.46,1.14,2.75,1.64,3.83,.47,.99,.87,1.84,1.2,2.55,.28,.6,.43,.94,.4,.96-.03,.02-.24-.29-.58-.86-.34-.57-.81-1.42-1.36-2.48-.54-1.06-1.16-2.34-1.75-3.82-.29-.74-.58-1.52-.8-2.37-.11-.42-.2-.86-.24-1.33-.02-.45-.05-.99,.33-1.48,.19-.23,.57-.35,.84-.29,.26,.05,.5,.14,.7,.25,.42,.21,.79,.46,1.14,.72,.7,.52,1.33,1.07,1.91,1.6,1.17,1.07,2.15,2.1,2.97,2.97,.81,.87,1.45,1.6,1.88,2.11,.43,.51,.65,.81,.62,.83Z" style="fill:#263238;"></path><path d="M123.32,147.96c-.06,.12-1.97-.92-3.86-2.79-1.9-1.86-2.96-3.75-2.84-3.81,.13-.09,1.36,1.63,3.21,3.44,1.84,1.82,3.58,3.03,3.49,3.16Z" style="fill:#263238;"></path></g><g><path d="M381.34,298.25s7.08-14.52,10.25-15.14,2.01,5,2.01,5c0,0,7.19-5.13,10.22-3.09,2.03,1.37-3.52,9.9-3.52,9.9,0,0,5.54-2.9,5.73-.09,.2,2.81-5.92,9.73-12.66,11.09-6.74,1.36-12.03-7.68-12.03-7.68Z" style="fill:#455a64;"></path><path d="M399.8,305.18c-.03-.8-.8-1.35-1.51-1.72-2.22-1.18-4.63-2.01-7.1-2.46,1.6-2.08,2.88-4.41,3.8-6.87,.32-.87,.58-1.91,.04-2.67-.54-.77-1.63-.87-2.56-.79-2.61,.22-5.13,1.33-7.06,3.1,.64-1.93,.71-4.04,.19-6-.18-.69-.49-1.42-1.13-1.72-1.16-.55-2.36,.63-3.06,1.7-2.68,4.12-4.65,8.69-5.79,13.47l1.17,9.49c7.07-.36,14.09-1.57,20.86-3.6,1-.3,2.2-.89,2.16-1.93Z" style="fill:#455a64;"></path><path d="M399.8,305.18c-.03-.8-.8-1.35-1.51-1.72-2.22-1.18-4.63-2.01-7.1-2.46,1.6-2.08,2.88-4.41,3.8-6.87,.32-.87,.58-1.91,.04-2.67-.54-.77-1.63-.87-2.56-.79-2.61,.22-5.13,1.33-7.06,3.1,.64-1.93,.71-4.04,.19-6-.18-.69-.49-1.42-1.13-1.72-1.16-.55-2.36,.63-3.06,1.7-2.68,4.12-4.65,8.69-5.79,13.47l1.17,9.49c7.07-.36,14.09-1.57,20.86-3.6,1-.3,2.2-.89,2.16-1.93Z" style="fill:#455a64;"></path><g style="opacity:.1;"><path d="M399.8,305.18c-.03-.8-.8-1.35-1.51-1.72-2.22-1.18-4.63-2.01-7.1-2.46,1.6-2.08,2.88-4.41,3.8-6.87,.32-.87,.58-1.91,.04-2.67-.54-.77-1.63-.87-2.56-.79-2.61,.22-5.13,1.33-7.06,3.1,.64-1.93,.71-4.04,.19-6-.18-.69-.49-1.42-1.13-1.72-1.16-.55-2.36,.63-3.06,1.7-2.68,4.12-4.65,8.69-5.79,13.47l1.17,9.49c7.07-.36,14.09-1.57,20.86-3.6,1-.3,2.2-.89,2.16-1.93Z"></path></g><path d="M381.76,308.24s7.67-10.47,3.86-10.81c-3.81-.34-9.13,4.72-9.13,4.72,0,0,1.39-12.71-1.41-10.21-2.8,2.51-6.37,15.75-6.37,15.75l-12.92,10.48s1.67-7.31-1.8-6.11c-3.48,1.2-8.42,16.44-8.42,16.44l-18.67,16.36s1.29-6.78-2.21-4.54c-3.5,2.24-5.93,13.14-5.93,13.14l-34.84,31.95c.83,2.13,1.68,3.94,2.54,5.5l21.77-2.45,68.8-70.89s16.85-4.61,16.88-7.43c.03-2.82-12.14-1.89-12.14-1.89Z" style="fill:#455a64;"></path><path d="M343.51,345.68s.19-.34,.6-.9c.48-.65,1.06-1.44,1.73-2.36,.72-1,1.58-2.2,2.47-3.57,.44-.69,.89-1.41,1.29-2.19,.2-.39,.39-.79,.52-1.21,.07-.21,.11-.41,.12-.6,0-.19-.06-.27-.19-.38-.28-.17-.74-.13-1.16-.03-.42,.1-.84,.25-1.24,.42-.81,.34-1.56,.74-2.27,1.14-1.41,.8-2.65,1.61-3.68,2.29-.95,.64-1.76,1.19-2.42,1.65-.57,.39-.9,.6-.92,.57-.02-.03,.26-.29,.8-.73,.54-.44,1.33-1.06,2.34-1.79,1.01-.73,2.23-1.57,3.65-2.41,.71-.42,1.47-.84,2.31-1.2,.42-.18,.86-.34,1.33-.46,.46-.1,1.01-.21,1.56,.11,.26,.16,.45,.52,.42,.81-.01,.28-.06,.53-.14,.76-.15,.46-.35,.88-.56,1.29-.42,.8-.89,1.53-1.34,2.22-.92,1.37-1.81,2.55-2.58,3.53-.77,.98-1.41,1.75-1.87,2.27-.46,.52-.73,.8-.76,.77Z" style="fill:#263238;"></path><path d="M320.11,369.91c-.06-.05,.69-1.04,1.87-2.67,.59-.82,1.28-1.79,2-2.9,.36-.56,.72-1.15,1.05-1.78,.16-.31,.31-.64,.42-.97,.06-.17,.08-.33,.09-.48,0-.14-.04-.18-.13-.27-.2-.13-.57-.1-.91-.02-.34,.08-.68,.2-1,.34-.65,.27-1.26,.6-1.84,.92-1.15,.65-2.15,1.3-2.99,1.85-1.68,1.11-2.69,1.83-2.74,1.77-.04-.05,.9-.88,2.53-2.08,.82-.59,1.81-1.28,2.96-1.97,.58-.34,1.2-.69,1.88-.98,.34-.15,.7-.28,1.09-.38,.38-.08,.83-.18,1.31,.09,.22,.13,.39,.46,.37,.7,0,.23-.05,.44-.12,.63-.12,.38-.29,.73-.46,1.05-.34,.66-.73,1.25-1.1,1.81-.75,1.11-1.48,2.07-2.1,2.86-1.26,1.58-2.11,2.5-2.16,2.45Z" style="fill:#263238;"></path><path d="M372.12,308.09c-.13-.05,.48-1.79,1.8-3.61,1.31-1.83,2.77-2.95,2.85-2.85,.1,.11-1.16,1.37-2.43,3.15-1.28,1.77-2.08,3.36-2.22,3.3Z" style="fill:#263238;"></path></g><g><path d="M155.41,320.74c0,3.11,1.15,6.12,2.59,8.88,7.34,14.04,22.62,22.93,38.35,24.79l27.29-1.9c2.18-1.17,3.64-3.57,3.7-6.04,.06-2.47-1.3-4.93-3.42-6.2,1.45-4.67,.11-10.08-3.34-13.54s-8.87-4.8-13.53-3.36c-.6-3.91-3.52-7.36-7.27-8.61-3.75-1.25-8.16-.23-10.98,2.54-1.96-3.95-5.44-7.32-9.74-8.32-4.3-1-9.33,.82-11.32,4.76-1.89-2.48-5.82-2.76-8.42-1.05-2.6,1.71-3.91,4.95-3.9,8.07Z" style="fill:#455a64;"></path><g style="opacity:.3;"><path d="M155.41,320.74c0,3.11,1.15,6.12,2.59,8.88,7.34,14.04,22.62,22.93,38.35,24.79l27.29-1.9c2.18-1.17,3.64-3.57,3.7-6.04,.06-2.47-1.3-4.93-3.42-6.2,1.45-4.67,.11-10.08-3.34-13.54s-8.87-4.8-13.53-3.36c-.6-3.91-3.52-7.36-7.27-8.61-3.75-1.25-8.16-.23-10.98,2.54-1.96-3.95-5.44-7.32-9.74-8.32-4.3-1-9.33,.82-11.32,4.76-1.89-2.48-5.82-2.76-8.42-1.05-2.6,1.71-3.91,4.95-3.9,8.07Z"></path></g><path d="M148.83,330.74c.39,5.55,4.49,10.73,10.05,10.86-2.79,2.66-3.84,5.43-3.13,9.09,.86,4.4,4.02,8.28,8.16,9.99,4.14,1.72,9.12,1.22,12.84-1.27-.32,5.24,6.4,11.08,11.62,11.63,5.08,.54,9.83-3.15,12.93-7.43,2.83,5.02,9.16,7.89,14.79,6.54,5.95-1.43,10.47-7.41,10.22-13.53s-5.25-11.7-11.31-12.63c1.39-5.41-2.74-11.18-8.06-12.88-5.32-1.7-11.24-.05-15.93,2.98-1.48-4.12-4.22-7.99-8.22-9.77s-9.32-.87-11.75,2.76c-1.42-5.38-7.28-9.18-12.77-8.27-5.49,.91-9.82,6.39-9.44,11.94Z" style="fill:#455a64;"></path><path d="M210.34,332.85c-.54-.38-2.02-11.57,.36-22.22,2.38-10.66,4.71-13.3,4.71-13.3l-16.96-6.67s-3.31,13.19-7.66,17.13c-4.35,3.94-20.48,16.9-20.48,16.9l6.54,3.55s10.37-10.4,12.81-8.85-6.13,14.15-6.13,14.15l7.15,6.45s8.58-28.76,12.07-27.8c3.49,.96-1.63,24.58-1.63,24.58l9.21-3.92Z" style="fill:#455a64;"></path><path d="M165.61,351.62c1.95-1.43,4.69-1.01,6.13,.94,1.43,1.95,1.01,4.69-.94,6.13s-4.69,1.01-6.13-.94c-1.43-1.95-1.01-4.69,.94-6.13Z" style="fill:#fff; opacity:.3;"></path><path d="M184.83,359.35c.65-.48,1.57-.34,2.05,.31,.48,.65,.34,1.57-.31,2.05-.65,.48-1.57,.34-2.05-.31-.48-.65-.34-1.57,.31-2.05Z" style="opacity:.2;"></path><path d="M179.94,359.88c.65-.48,1.57-.34,2.05,.31,.48,.65,.34,1.57-.31,2.05-.65,.48-1.57,.34-2.05-.31-.48-.65-.34-1.57,.31-2.05Z" style="opacity:.2;"></path><path d="M184.9,364.16c.42-.31,1-.22,1.31,.2,.31,.42,.22,1-.2,1.31-.42,.31-1,.22-1.31-.2-.31-.42-.22-1,.2-1.31Z" style="opacity:.2;"></path><path d="M176.51,339.2c-.61-.54-.66-1.47-.12-2.07,.54-.61,1.47-.66,2.07-.12,.61,.54,.66,1.47,.12,2.07-.54,.61-1.47,.66-2.07,.12Z" style="opacity:.2;"></path><path d="M178.06,343.87c-.61-.54-.66-1.47-.12-2.07,.54-.61,1.47-.66,2.07-.12,.61,.54,.66,1.47,.12,2.07-.54,.61-1.47,.66-2.07,.12Z" style="opacity:.2;"></path><path d="M181.2,338.13c-.39-.34-.42-.93-.08-1.32,.34-.39,.93-.42,1.32-.08,.39,.34,.42,.93,.08,1.32s-.93,.42-1.32,.08Z" style="opacity:.2;"></path><g style="opacity:.2;"><path d="M158.27,318.8c-5.49,.91-9.82,6.39-9.44,11.94s4.49,10.73,10.05,10.86c-2.75,2.57-3.84,5.43-3.13,9.09,.64,3.31,2.6,6.33,5.3,8.35-6.67-10.67,5.26-13.27,5.26-13.27-2.85-1.64-4.71-3.21-5.89-4.66-3.19-3.92-.5-10.05,4.55-10.07,2.98-.01,5.34,2.2,6.54,5.44,1.72-3.79,6.88-5.18,10.7-3.53,3.82,1.65,6.27,5.61,7.08,9.7,2.45-3.88,8.02-5.4,12.1-3.29,4.08,2.11,6.06,7.53,4.31,11.78,1.82-2.94,5.79-4.15,9.13-3.25,3.34,.9,6.01,3.6,7.46,6.75,1.41,3.05,1.78,6.49,1.68,9.86,1.56-2.32,2.44-5.08,2.33-7.87-.25-6.12-5.25-11.7-11.31-12.63,1.39-5.41-2.74-11.18-8.06-12.88-5.32-1.7-11.24-.05-15.93,2.98-1.48-4.12-4.22-7.99-8.22-9.77s-9.32-.87-11.75,2.76c-1.42-5.38-7.28-9.18-12.77-8.27Z"></path></g><path d="M221.31,365.04s-.17,.23-.56,.56c-.39,.33-1,.76-1.82,1.19-1.61,.86-4.17,1.63-7,1.31-2.83-.32-5.16-1.63-6.54-2.82-.7-.6-1.2-1.15-1.51-1.56-.31-.41-.45-.65-.43-.67,.07-.06,.75,.85,2.17,1.94,1.4,1.09,3.66,2.29,6.37,2.59,2.71,.3,5.17-.37,6.78-1.13,1.63-.75,2.49-1.49,2.55-1.42Z" style="fill:#fff;"></path><path d="M201.3,360.52s-.29,.96-1.2,2.29c-.9,1.32-2.4,3.02-4.48,4.35-1.04,.66-2.11,1.16-3.13,1.49-1.03,.3-1.98,.49-2.79,.49-.4,.03-.77,0-1.09-.03-.32-.02-.59-.06-.81-.12-.44-.1-.67-.18-.67-.21,.02-.1,.99,.13,2.54,0,.78-.04,1.69-.27,2.66-.58,.97-.34,1.99-.84,3-1.48,2.01-1.29,3.51-2.89,4.46-4.13,.96-1.25,1.41-2.12,1.49-2.08Z" style="fill:#fff;"></path><path d="M161.59,356.87c.06-.07,.74,.51,2,1.17,1.25,.66,3.13,1.35,5.29,1.45,2.16,.1,4.1-.43,5.4-.98,1.31-.55,2.05-1.07,2.1-.99,.04,.04-.63,.68-1.95,1.33-1.3,.65-3.31,1.26-5.57,1.16-2.26-.1-4.21-.88-5.45-1.65-1.26-.77-1.86-1.46-1.82-1.5Z" style="fill:#fff;"></path></g><g><path d="M234.01,93.16c-3.22-1.76-6.98-2.27-10.65-2.34-18.68-.34-36.52,10.45-47.33,25.68l-13.46,29.31c-.02,2.92,1.63,5.79,4.16,7.24,2.53,1.46,5.84,1.44,8.35-.04,4.01,4.14,10.37,5.82,15.9,4.2s9.98-6.46,11.13-12.11c4.38,1.59,9.61,.52,13.02-2.66,3.41-3.18,4.85-8.32,3.58-12.8,5.2,.2,10.66-1.49,14.12-5.37s4.42-10.12,1.47-14.41c3.63-.55,6.15-4.46,5.85-8.12s-2.92-6.84-6.14-8.6Z" style="fill:#455a64;"></path><g style="opacity:.3;"><path d="M234.01,93.16c-3.22-1.76-6.98-2.27-10.65-2.34-18.68-.34-36.52,10.45-47.33,25.68l-13.46,29.31c-.02,2.92,1.63,5.79,4.16,7.24,2.53,1.46,5.84,1.44,8.35-.04,4.01,4.14,10.37,5.82,15.9,4.2s9.98-6.46,11.13-12.11c4.38,1.59,9.61,.52,13.02-2.66,3.41-3.18,4.85-8.32,3.58-12.8,5.2,.2,10.66-1.49,14.12-5.37s4.42-10.12,1.47-14.41c3.63-.55,6.15-4.46,5.85-8.12s-2.92-6.84-6.14-8.6Z"></path></g><path d="M227.39,80.69c-5.96-2.74-13.64-1.41-16.93,4.26-1.18-4.39-3.45-7.05-7.63-8.38-5.04-1.6-10.84-.51-14.96,2.8-4.12,3.31-6.42,8.75-5.94,14.01-5.24-3.29-15.08,.36-18.6,5.45-3.43,4.95-2.29,11.96,.38,17.58-6.8,.09-13.34,5.02-15.13,11.61-1.89,6.97,1.75,15.03,8.22,18.22,6.48,3.2,15.08,1.18,19.47-4.56,4.81,4.49,13.12,3.48,17.89-1.06,4.77-4.54,6.41-11.6,5.93-18.17,5.1,.79,10.66,.15,14.75-2.98,4.1-3.13,6.17-9.16,3.78-13.73,6.37,1.57,13.61-2.35,15.78-8.54,2.17-6.19-1.06-13.78-7.02-16.51Z" style="fill:#455a64;"></path><path d="M190.43,143.15c.7-.34,13.11,4.45,22.8,12.94,9.68,8.49,11.1,12.4,11.1,12.4l16.49-13.78s-11.78-10.88-13.4-17.61c-1.61-6.73-5.91-30.75-5.91-30.75l-7.37,4.76s4.9,16.61,1.92,18.26c-2.98,1.65-11.18-14.34-11.18-14.34l-10.71,3.75s24.91,25.14,21.94,28.21c-2.97,3.07-24.52-15.58-24.52-15.58l-1.15,11.75Z" style="fill:#455a64;"></path><path d="M196.29,86.25c.38,2.83-1.61,5.43-4.43,5.81-2.83,.38-5.43-1.61-5.81-4.43-.38-2.83,1.61-5.43,4.43-5.81s5.43,1.61,5.81,4.43Z" style="fill:#fff; opacity:.3;"></path><path d="M177.43,101.78c.13,.95-.54,1.82-1.49,1.95-.95,.13-1.82-.54-1.95-1.49-.13-.95,.54-1.82,1.49-1.95,.95-.13,1.82,.54,1.95,1.49Z" style="opacity:.2;"></path><path d="M179.64,96.41c.13,.95-.54,1.82-1.49,1.95-.95,.13-1.82-.54-1.95-1.49-.13-.95,.54-1.82,1.49-1.95,.95-.13,1.82,.54,1.95,1.49Z" style="opacity:.2;"></path><path d="M172.41,99.13c.08,.6-.34,1.16-.95,1.24-.6,.08-1.16-.34-1.24-.95-.08-.6,.34-1.16,.95-1.24,.6-.08,1.16,.34,1.24,.95Z" style="opacity:.2;"></path><path d="M202.98,104.55c.9-.32,1.89,.15,2.21,1.05,.32,.9-.15,1.89-1.05,2.21-.9,.32-1.89-.15-2.21-1.05-.32-.9,.15-1.89,1.05-2.21Z" style="opacity:.2;"></path><path d="M197.27,103.51c.9-.32,1.89,.15,2.21,1.05,.32,.9-.15,1.89-1.05,2.21-.9,.32-1.89-.15-2.21-1.05s.15-1.89,1.05-2.21Z" style="opacity:.2;"></path><path d="M201.44,110.01c.57-.21,1.2,.09,1.41,.67,.21,.57-.09,1.2-.67,1.41-.57,.21-1.2-.09-1.41-.67-.21-.57,.09-1.2,.67-1.41Z" style="opacity:.2;"></path><g style="opacity:.2;"><path d="M234.41,97.21c2.17-6.19-1.06-13.78-7.02-16.51-5.96-2.74-13.64-1.41-16.93,4.26-1.11-4.29-3.45-7.05-7.63-8.38-3.79-1.21-8.02-.89-11.64,.76,14.81-.87,10.75,12.95,10.75,12.95,3.31-2.02,5.99-3.06,8.15-3.47,5.86-1.09,10.69,5.16,7.85,10.41-1.67,3.09-5.29,4.28-9.33,3.7,2.95,3.92,1.47,10.05-2.4,13.07-3.87,3.03-9.35,3.31-14.04,1.84,2.64,4.73,1.06,11.36-3.43,14.38-4.49,3.03-11.22,2.02-14.62-2.2,2.02,3.55,1.02,8.34-1.8,11.29-2.82,2.95-7.13,4.18-11.2,3.91-3.96-.27-7.73-1.83-11.15-3.83,1.52,2.92,3.87,5.4,6.83,6.86,6.48,3.2,15.08,1.18,19.47-4.56,4.81,4.49,13.12,3.48,17.89-1.06,4.77-4.54,6.41-11.6,5.93-18.17,5.1,.79,10.66,.15,14.75-2.98,4.1-3.13,6.17-9.16,3.78-13.73,6.37,1.57,13.61-2.35,15.78-8.54Z"></path></g><path d="M150.91,136.31s-.13-.31-.25-.91c-.11-.59-.21-1.47-.18-2.55,.03-2.15,.68-5.22,2.6-7.96,1.92-2.74,4.58-4.41,6.59-5.17,1.01-.39,1.86-.6,2.46-.7,.6-.1,.93-.11,.93-.08,.02,.1-1.31,.27-3.25,1.12-1.93,.83-4.45,2.49-6.31,5.13-1.85,2.64-2.54,5.59-2.66,7.68-.14,2.12,.16,3.42,.06,3.44Z" style="fill:#fff;"></path><path d="M166.9,118.15s-.21-.2-.52-.63c-.32-.42-.71-1.08-1.14-1.92-.85-1.68-1.75-4.19-1.96-7.09-.09-1.45-.01-2.83,.22-4.07,.27-1.23,.6-2.32,1.06-3.16,.19-.44,.43-.79,.64-1.11,.2-.32,.39-.58,.58-.77,.35-.4,.55-.6,.58-.58,.09,.07-.71,.93-1.46,2.62-.4,.83-.68,1.9-.92,3.09-.2,1.2-.26,2.55-.17,3.95,.2,2.82,1.02,5.28,1.77,6.97,.76,1.69,1.41,2.65,1.33,2.71Z" style="fill:#fff;"></path><path d="M193.13,79.12c.03,.08-.96,.45-2.37,1.38-1.4,.91-3.19,2.47-4.51,4.66-1.32,2.19-1.88,4.5-2.04,6.16-.17,1.68-.04,2.73-.13,2.74-.03,0-.1-.25-.17-.73-.07-.48-.11-1.17-.07-2.03,.07-1.71,.58-4.13,1.96-6.4,1.38-2.28,3.28-3.85,4.76-4.71,.75-.43,1.38-.72,1.84-.88,.45-.16,.71-.22,.72-.19Z" style="fill:#fff;"></path></g><g><path d="M442.87,275.58c2.29-2.87,3.45-6.48,4.16-10.08,3.6-18.33-3.91-37.78-17.01-51.1l-26.51-18.38c-2.87-.53-5.98,.59-7.86,2.83-1.88,2.23-2.44,5.49-1.43,8.23-4.77,3.22-7.54,9.19-6.91,14.92,.63,5.73,4.62,10.96,9.98,13.08-2.33,4.04-2.19,9.37,.34,13.29,2.53,3.91,7.34,6.23,11.98,5.76-1.11,5.08-.39,10.75,2.82,14.84,3.22,4.09,9.19,6.12,13.93,3.97-.09,3.67,3.32,6.84,6.97,7.18,3.66,.35,7.25-1.67,9.54-4.54Z" style="fill:#455a64;"></path><g style="opacity:.3;"><path d="M442.87,275.58c2.29-2.87,3.45-6.48,4.16-10.08,3.6-18.33-3.91-37.78-17.01-51.1l-26.51-18.38c-2.87-.53-5.98,.59-7.86,2.83-1.88,2.23-2.44,5.49-1.43,8.23-4.77,3.22-7.54,9.19-6.91,14.92,.63,5.73,4.62,10.96,9.98,13.08-2.33,4.04-2.19,9.37,.34,13.29,2.53,3.91,7.34,6.23,11.98,5.76-1.11,5.08-.39,10.75,2.82,14.84,3.22,4.09,9.19,6.12,13.93,3.97-.09,3.67,3.32,6.84,6.97,7.18,3.66,.35,7.25-1.67,9.54-4.54Z"></path></g><path d="M456.29,271.23c3.74-5.39,3.78-13.18-1.24-17.41,4.53-.39,7.54-2.16,9.58-6.05,2.46-4.68,2.4-10.58-.14-15.22-2.54-4.63-7.49-7.85-12.76-8.3,4.16-4.58,2.28-14.91-2.11-19.27-4.28-4.24-11.37-4.35-17.38-2.7,1.1-6.71-2.61-14.01-8.79-16.92-6.53-3.08-15.1-.91-19.38,4.91-4.28,5.82-3.8,14.64,1.08,19.96-5.27,3.95-5.72,12.31-2.08,17.8,3.64,5.49,10.3,8.34,16.85,9.01-1.67,4.88-2.01,10.47,.36,15.05s7.93,7.68,12.85,6.13c-2.66,6-.07,13.82,5.65,17.03,5.72,3.22,13.75,1.37,17.49-4.03Z" style="fill:#455a64;"></path><path d="M401.26,223.93c.22,.75-6.67,12.13-16.72,20.18-10.05,8.05-14.15,8.76-14.15,8.76l10.69,18.64s12.77-9.7,19.68-10.11c6.9-.41,31.31-.44,31.31-.44l-3.4-8.09s-17.21,1.92-18.31-1.31c-1.1-3.23,16.08-8.5,16.08-8.5l-1.82-11.2s-29.11,20.13-31.61,16.67c-2.5-3.46,19.63-21.42,19.63-21.42l-11.37-3.19Z" style="fill:#455a64;"></path><path d="M456.26,239.65c-2.85-.12-5.06-2.53-4.94-5.38,.12-2.85,2.53-5.06,5.38-4.94,2.85,.12,5.06,2.53,4.94,5.38-.12,2.85-2.53,5.06-5.38,4.94Z" style="fill:#fff; opacity:.3;"></path><path d="M444.27,218.36c-.95-.04-1.7-.85-1.66-1.8,.04-.95,.85-1.7,1.8-1.66s1.7,.85,1.66,1.8-.85,1.7-1.8,1.66Z" style="opacity:.2;"></path><path d="M449.17,221.47c-.95-.04-1.7-.85-1.66-1.8,.04-.95,.85-1.7,1.8-1.66,.95,.04,1.7,.85,1.66,1.8-.04,.95-.85,1.7-1.8,1.66Z" style="opacity:.2;"></path><path d="M447.76,213.88c-.61-.03-1.08-.54-1.05-1.15,.03-.61,.54-1.08,1.15-1.06s1.08,.54,1.05,1.15c-.03,.61-.54,1.08-1.15,1.05Z" style="opacity:.2;"></path><path d="M437.07,243.03c.16,.94-.47,1.84-1.42,2-.94,.16-1.84-.47-2-1.42-.16-.94,.47-1.84,1.42-2,.94-.16,1.84,.47,2,1.42Z" style="opacity:.2;"></path><path d="M439.09,237.59c.16,.94-.47,1.84-1.42,2-.94,.16-1.84-.47-2-1.42-.16-.94,.47-1.84,1.42-2,.94-.16,1.84,.47,2,1.42Z" style="opacity:.2;"></path><path d="M431.96,240.56c.1,.6-.3,1.17-.9,1.27-.6,.1-1.17-.3-1.27-.9s.3-1.17,.9-1.27c.6-.1,1.17,.3,1.27,.9Z" style="opacity:.2;"></path><g style="opacity:.2;"><path d="M438.81,275.26c5.72,3.22,13.75,1.37,17.49-4.03s3.78-13.18-1.24-17.41c4.42-.34,7.54-2.16,9.58-6.05,1.85-3.52,2.27-7.74,1.29-11.59-1.74,14.74-14.63,8.32-14.63,8.32,1.41,3.61,1.97,6.43,1.99,8.63,.05,5.96-6.95,9.62-11.62,5.91-2.75-2.18-3.29-5.96-2.01-9.83-4.38,2.22-10.15-.31-12.45-4.65s-1.62-9.79,.64-14.14c-5.12,1.77-11.36-.95-13.56-5.89-2.2-4.95-.02-11.4,4.72-14.01-3.85,1.37-8.39-.45-10.8-3.75-2.41-3.3-2.87-7.75-1.89-11.71,.96-3.85,3.15-7.29,5.72-10.31-3.14,.98-5.99,2.87-7.95,5.53-4.28,5.82-3.8,14.64,1.08,19.96-5.27,3.95-5.72,12.31-2.08,17.8,3.64,5.49,10.3,8.34,16.85,9.01-1.67,4.88-2.01,10.47,.36,15.05s7.93,7.68,12.85,6.13c-2.66,6-.07,13.82,5.65,17.03Z"></path></g><path d="M414.9,186.21s.33-.08,.93-.08c.6,0,1.48,.05,2.54,.26,2.11,.4,5.02,1.59,7.38,3.96,2.37,2.37,3.54,5.28,3.94,7.39,.21,1.06,.27,1.94,.26,2.54,0,.6-.05,.93-.09,.93-.1,0-.03-1.34-.53-3.4-.48-2.04-1.67-4.82-3.95-7.11-2.28-2.28-5.06-3.48-7.1-3.97-2.06-.5-3.4-.44-3.4-.54Z" style="fill:#fff;"></path><path d="M429.99,205.13s.24-.17,.71-.41c.47-.24,1.19-.51,2.09-.79,1.8-.54,4.43-.99,7.32-.69,1.44,.16,2.79,.48,3.97,.93,1.16,.48,2.18,1,2.92,1.6,.4,.27,.71,.56,.98,.82,.28,.25,.5,.49,.66,.7,.33,.41,.5,.65,.47,.67-.08,.07-.79-.87-2.32-1.9-.75-.54-1.75-1.01-2.88-1.45-1.15-.4-2.46-.7-3.86-.86-2.81-.3-5.37,.08-7.17,.52-1.8,.45-2.86,.93-2.9,.84Z" style="fill:#fff;"></path><path d="M463.83,237.78c-.09,.02-.28-1.02-.95-2.57-.66-1.54-1.88-3.57-3.8-5.26-1.92-1.69-4.1-2.63-5.71-3.08-1.62-.46-2.68-.51-2.67-.6,0-.03,.27-.06,.75-.04,.48,.02,1.17,.09,2.02,.28,1.68,.37,3.96,1.29,5.96,3.05,2,1.75,3.22,3.9,3.8,5.51,.3,.81,.47,1.49,.55,1.96,.08,.47,.09,.74,.06,.75Z" style="fill:#fff;"></path></g><g><g><path d="M272.08,92.7c-13.81,1.36-39.73,18.89-17.83,43.92,21.9,25.03,51.54,4.64,54.55-12.6,2.37-13.58-11.01-33.85-36.72-31.32Z" style="fill:#0F493D;"></path><g style="opacity:.3;"><path d="M272.08,92.7c-13.81,1.36-39.73,18.89-17.83,43.92,21.9,25.03,51.54,4.64,54.55-12.6,2.37-13.58-11.01-33.85-36.72-31.32Z"></path></g></g><path d="M272.08,89.79c-13.81,1.36-39.73,18.89-17.83,43.92,21.9,25.03,51.54,4.64,54.55-12.6,2.37-13.58-11.01-33.85-36.72-31.32Z" style="fill:#0F493D;"></path><g style="opacity:.3;"><path d="M255.26,108.88c-1.5-1.9,1.78-10.3,13.39-13.8,11.6-3.5,20.3,1.44,19.41,3.09-.89,1.65-2.46,9.89-13.61,12.16-10.42,2.12-17.4,.82-19.19-1.44Z"></path></g><g style="opacity:.3;"><path d="M295.64,105.17c1.68-.86,11.83,8.86,6.69,18.34-5.13,9.48-11.83,15.25-16.51,13.39-4.69-1.85-6.25-12.21-2.68-19.42,3.57-7.21,10.49-11.28,12.49-12.31Z"></path></g><g style="opacity:.3;"><path d="M251.91,115.47c1.06-1.81,14.25-2.31,20.53,2.01,6.27,4.33,8.62,18.52,6.84,21.19-1.85,2.76-15.54-1.56-20.9-6.51-5.36-4.95-8.03-14.01-6.47-16.69Z"></path></g><path d="M259.49,102.62c-1.94,1.63,3.79,7.49,4.69,6.05,.89-1.44-3.12-7.36-4.69-6.05Z" style="fill:#0F493D;"></path><path d="M265.66,98.58c-1.11,.36,1.64,11.37,4.32,10.32,2.68-1.05-2.39-10.94-4.32-10.32Z" style="fill:#0F493D;"></path><path d="M273.11,96.72c-1.12,.41,.22,7.27,2.45,7.04,2.23-.24-1.34-7.45-2.45-7.04Z" style="fill:#0F493D;"></path><path d="M281.19,95.9c-2.67,0-2.26,9.55,0,9.77,2.26,.22,3.68-9.76,0-9.77Z" style="fill:#0F493D;"></path><path d="M266.04,118.33c-.4-1.19-10.93,.05-10.04,2.52,.89,2.47,10.89,.04,10.04-2.52Z" style="fill:#0F493D;"></path><path d="M274.25,126.93c1.27,.22,.98,9.85-1.98,8.64-2.96-1.21,.71-8.85,1.98-8.64Z" style="fill:#0F493D;"></path><path d="M270.75,122.57c1.24,.88-5.5,10.57-9.04,8.51-3.55-2.06,7.8-9.39,9.04-8.51Z" style="fill:#0F493D;"></path><path d="M289.1,116.29c.37-2.26,11.82,.08,11.04,2.26-.79,2.18-11.53,.73-11.04-2.26Z" style="fill:#0F493D;"></path><path d="M291.05,112.48c.67,1.39,7.99-.12,7.14-2.02-.85-1.9-7.81,.63-7.14,2.02Z" style="fill:#0F493D;"></path><path d="M286.38,119.99c-.51,.74,7.61,6.87,8.22,5.08,.61-1.79-6.94-6.92-8.22-5.08Z" style="fill:#0F493D;"></path><path d="M283.45,122.66c-1.8,1.02,.69,9.22,2.76,8.66,2.07-.55-.19-10.12-2.76-8.66Z" style="fill:#0F493D;"></path><path d="M270.16,91.19c.02,.07-1.32,.31-3.35,1.02-1.02,.35-2.2,.84-3.46,1.47-1.25,.65-2.58,1.44-3.88,2.39-1.29,.96-2.42,1.99-3.38,2.97-.94,1-1.73,1.95-2.32,2.8-1.19,1.68-1.74,2.83-1.81,2.8-.03-.01,.1-.3,.34-.82,.12-.26,.28-.58,.49-.93,.21-.35,.43-.77,.73-1.19,.56-.87,1.33-1.86,2.27-2.88,.96-1.01,2.1-2.06,3.4-3.04,1.32-.96,2.68-1.76,3.96-2.4,1.29-.62,2.5-1.1,3.55-1.42,.51-.18,1-.29,1.42-.4,.42-.11,.79-.19,1.09-.24,.6-.11,.94-.16,.94-.13Z" style="fill:#fff;"></path><path d="M284.02,92.07c-.04,.11-1.4-.28-3.13-.49-1.73-.22-3.15-.2-3.16-.31-.01-.1,1.44-.3,3.22-.07,1.78,.22,3.12,.78,3.08,.87Z" style="fill:#fff;"></path><path d="M285.75,108.49c.06,.08-1.79,1.2-4.34,2.06-2.54,.88-4.73,1.14-4.75,1.05-.02-.11,2.1-.54,4.6-1.4,2.51-.85,4.42-1.8,4.48-1.7Z" style="fill:#fff;"></path></g><g><path d="M372.45,125.89c-3.89,3.53-8.14,6.65-12.69,9.32-3.8,2.24-7.36,4.84-10.62,7.78-9.96,8.98-11.62,14.58-11.62,14.58-9.97,24.72,17.69,39.86,17.69,39.86l9.77-16.15c-2.08-1.38-3.83-3.2-5.1-5.33-4.81-7.98-2.1-18.25,6.07-22.96,4.91-2.93,11.03-3.18,16.18-.67l18.74-31.47c-10.64-5.77-20.95-1.87-28.42,5.04Z" style="fill:#455a64;"></path><path d="M372.5,129.37c-3.32,3.13-6.95,5.93-10.84,8.36-3.58,2.05-6.95,4.43-10.07,7.11-8.76,7.91-10.62,13.33-10.62,13.33-8.62,22.74,15.97,36.44,15.97,36.44l7.96-13.33c-7.75-5.35-9.59-15.83-4.11-23.4,4.81-6.64,13.82-8.96,21.36-5.49l16.98-28.47c-9.34-5.13-20.06-.61-26.63,5.46Z" style="fill:#455a64;"></path><g style="opacity:.2;"><path d="M372.45,129.28c-3.32,3.13-6.95,5.92-10.83,8.35-3.59,2.05-6.96,4.43-10.08,7.11-8.76,7.9-10.62,13.33-10.62,13.33-8.63,22.74,15.93,36.44,15.93,36.44l.55-.9c-4.59-2.79-22.55-15.24-15-35.15,0,0,1.84-5.41,10.62-13.33,3.12-2.67,6.49-5.04,10.07-7.08,3.89-2.43,7.52-5.22,10.83-8.36,6.27-5.78,15.7-9.16,24.67-5.09l.48-.8c-9.32-5.09-20.03-.58-26.61,5.48Z" style="fill:#fff;"></path></g><path d="M336.36,166.93c.1,.41,.17,.82,.2,1.24,.04,.5,.12,.99,.21,1.48,.11,.56,.19,1.21,.37,1.92,.18,.7,.34,1.48,.6,2.29,.26,.81,.55,1.67,.86,2.58,.75,1.94,1.66,3.81,2.72,5.61,1.09,1.78,2.32,3.48,3.69,5.07,.64,.74,1.25,1.41,1.88,2,.63,.59,1.2,1.15,1.75,1.63,.55,.48,1.08,.89,1.52,1.25,.44,.36,.86,.67,1.2,.9,.36,.23,.7,.49,1.02,.78-.39-.19-.76-.4-1.11-.65-.43-.26-.85-.55-1.25-.85-.55-.38-1.07-.79-1.58-1.22-.63-.51-1.23-1.04-1.81-1.61-.64-.59-1.26-1.27-1.93-1.99-1.39-1.59-2.65-3.3-3.75-5.1-1.07-1.82-1.98-3.72-2.72-5.68-.31-.92-.63-1.78-.84-2.61-.21-.84-.41-1.61-.55-2.33-.14-.72-.23-1.37-.32-1.94-.08-.49-.13-.99-.15-1.48-.04-.42-.04-.85-.02-1.27Z" style="fill:#fff;"></path><path d="M337.75,160.53c.06,.55-.01,1.11-.21,1.63-.23,.87-.49,1.56-.6,1.53,0-1.1,.29-2.18,.81-3.16Z" style="fill:#fff;"></path><path d="M359.88,175.94s.1,.13,.27,.41c.17,.27,.45,.66,.84,1.15,1.13,1.44,2.5,2.69,4.04,3.7l.07,.04-.05,.07-9.73,16.21-.08,.13-.13-.07c-3-1.76-5.8-3.82-8.35-6.16-2.89-2.61-5.39-5.6-7.44-8.89-2.24-3.61-3.63-7.66-4.09-11.85-.19-2.21-.12-4.43,.21-6.62,.39-2.24,1.01-4.44,1.84-6.56h0c.22-.61,.49-1.21,.8-1.78,1.26-2.28,2.77-4.42,4.5-6.39,1.66-1.92,3.44-3.75,5.31-5.48,3.5-3.3,7.36-6.21,11.52-8.67,3.76-2.18,7.33-4.65,10.68-7.41,1.57-1.28,2.96-2.69,4.48-3.84,.76-.61,1.52-1.11,2.28-1.64,.76-.53,1.52-.97,2.31-1.36,1.47-.79,3.01-1.44,4.61-1.93,1.43-.43,2.9-.73,4.39-.87,3.26-.33,6.55,.11,9.59,1.3,.6,.21,1.19,.46,1.75,.74l1.04,.53c.24,.12,.35,.19,.35,.19l-.36-.16-1.06-.5c-.57-.28-1.15-.53-1.75-.74-.81-.3-1.63-.54-2.47-.74-2.31-.54-4.7-.69-7.06-.44-1.47,.15-2.92,.45-4.33,.89-1.58,.51-3.1,1.16-4.55,1.94-.76,.39-1.52,.89-2.28,1.36-.76,.47-1.52,1.02-2.24,1.63-1.52,1.14-2.88,2.55-4.46,3.85-3.34,2.79-6.92,5.29-10.7,7.5-4.14,2.44-7.98,5.33-11.46,8.61-1.85,1.72-3.6,3.54-5.25,5.45-1.71,1.95-3.2,4.07-4.45,6.32-.29,.55-.55,1.13-.76,1.72h0c-.83,2.1-1.44,4.27-1.82,6.48-1.01,6.33,.34,12.8,3.79,18.24,2.02,3.27,4.49,6.24,7.35,8.84,2.51,2.34,5.28,4.4,8.25,6.16l-.2,.05,9.83-16.12v.11c-1.54-1.04-2.9-2.32-4.01-3.79-.39-.51-.73-1.05-1.02-1.61Z" style="fill:#263238;"></path></g><g><path d="M93.37,211.68c.64,5.21,.74,10.48,.29,15.74-.37,4.4-.29,8.81,.23,13.17,1.59,13.32,5.2,17.9,5.2,17.9,14.44,22.41,42.76,8.55,42.76,8.55l-7.56-17.3c-2.33,.9-4.82,1.28-7.29,1.09-9.29-.67-16.12-8.82-15.25-18.21,.44-5.7,3.76-10.84,8.79-13.6l-14.89-33.46c-10.85,5.36-13.62,16.03-12.28,26.12Z" style="fill:#455a64;"></path><path d="M96.24,213.65c.64,4.52,.83,9.1,.57,13.68-.39,4.11-.39,8.24,0,12.33,1.41,11.72,4.76,16.37,4.76,16.37,13.6,20.16,38.97,7.98,38.97,7.98l-6.3-14.19c-8.84,3.24-18.46-1.3-21.48-10.14-2.65-7.77,.65-16.45,7.84-20.61l-13.46-30.3c-9.58,4.67-12.08,16.03-10.91,24.9Z" style="fill:#455a64;"></path><g style="opacity:.2;"><path d="M96.14,213.63c.64,4.51,.83,9.09,.57,13.67-.4,4.11-.4,8.24,0,12.34,1.4,11.72,4.76,16.37,4.76,16.37,13.6,20.17,38.96,8.01,38.96,8.01l-.42-.97c-4.93,2.14-25.46,9.62-37.37-8.03,0,0-3.36-4.62-4.76-16.37-.38-4.09-.37-8.21,.02-12.31,.26-4.57,.07-9.15-.57-13.67-1.11-8.46,1.57-18.11,10.07-23.08l-.38-.85c-9.53,4.67-12.03,16.03-10.87,24.9Z" style="fill:#fff;"></path></g><path d="M106.07,264.83c.39,.15,.77,.34,1.13,.56,.43,.25,.88,.48,1.33,.68,.52,.24,1.1,.55,1.78,.8,.68,.26,1.41,.58,2.22,.83,.81,.26,1.68,.52,2.6,.78,2.02,.5,4.07,.84,6.15,1.01,2.08,.14,4.18,.11,6.27-.09,.98-.1,1.87-.21,2.72-.38,.85-.17,1.63-.32,2.34-.49s1.35-.37,1.9-.52c.55-.15,1.04-.32,1.42-.46,.4-.16,.81-.29,1.23-.39-.38,.21-.77,.39-1.17,.53-.46,.2-.94,.38-1.42,.53-.63,.23-1.26,.42-1.91,.58-.78,.22-1.56,.4-2.35,.55-.85,.19-1.77,.29-2.74,.42-2.11,.22-4.22,.26-6.32,.12-2.1-.18-4.18-.53-6.21-1.05-.93-.28-1.82-.51-2.62-.82-.81-.31-1.55-.59-2.22-.89-.67-.3-1.25-.6-1.77-.86-.44-.22-.88-.46-1.3-.73-.37-.21-.72-.45-1.05-.72Z" style="fill:#fff;"></path><path d="M101.65,260.01c.49,.27,.9,.65,1.21,1.11,.58,.69,.99,1.3,.9,1.37-.89-.64-1.62-1.49-2.11-2.48Z" style="fill:#fff;"></path><path d="M127,250.82s.17,0,.49,.01,.8,.01,1.42-.03c1.83-.1,3.64-.49,5.35-1.16l.08-.03,.03,.08,7.63,17.29,.06,.13-.13,.06c-3.17,1.44-6.47,2.53-9.85,3.26-3.8,.86-7.69,1.17-11.55,.94-4.24-.26-8.35-1.45-12.04-3.5-1.92-1.12-3.69-2.46-5.29-3.99-1.61-1.61-3.05-3.38-4.3-5.29h0c-.37-.53-.7-1.09-.99-1.68-1.14-2.35-2.02-4.82-2.63-7.36-.61-2.47-1.08-4.97-1.41-7.5-.68-4.76-.82-9.59-.43-14.41,.39-4.33,.43-8.67,.11-12.99-.14-2.02-.49-3.97-.55-5.88-.06-.97-.03-1.88-.02-2.8,0-.92,.08-1.8,.23-2.67,.2-1.65,.56-3.29,1.08-4.88,.47-1.42,1.08-2.79,1.82-4.09,1.61-2.85,3.87-5.28,6.6-7.08,.52-.37,1.06-.7,1.62-1l1.04-.54c.23-.12,.36-.17,.36-.17l-.34,.21-1.02,.58c-.56,.3-1.1,.63-1.62,1-.71,.49-1.39,1.02-2.03,1.59-1.77,1.58-3.27,3.44-4.43,5.51-.72,1.29-1.32,2.65-1.77,4.05-.49,1.58-.84,3.2-1.04,4.84-.12,.84-.15,1.75-.21,2.64-.06,.89-.04,1.83,.04,2.77,.06,1.9,.42,3.82,.57,5.87,.35,4.34,.33,8.71-.05,13.06-.39,4.79-.25,9.59,.43,14.33,.34,2.51,.81,4.99,1.42,7.43,.61,2.52,1.47,4.96,2.59,7.28,.28,.56,.61,1.1,.97,1.61h0c1.23,1.89,2.65,3.64,4.24,5.23,4.59,4.47,10.65,7.11,17.09,7.43,3.83,.24,7.69-.07,11.47-.9,3.36-.71,6.64-1.77,9.79-3.18l-.08,.2-7.5-17.32,.09,.06c-1.74,.66-3.57,1.03-5.41,1.09-.64,.02-1.28-.01-1.91-.1Z" style="fill:#263238;"></path></g><g><path d="M264.42,263.08s1.53-7.27,15.12-7.08c13.59,.19,24.31,10.53,30.82,18.95,6.51,8.42,18,16.69,22.4,15.43s2.63-20.85,2.63-20.85l-26.75-33.44-26.42-12.25s-25.27,10.34-26.04,10.53c-.77,.19-4.61,21.44-4.61,21.44l12.84,7.27Z" style="fill:#0F493D;"></path><path d="M264.42,263.08s1.53-7.27,15.12-7.08c13.59,.19,24.31,10.53,30.82,18.95,6.51,8.42,18,16.69,22.4,15.43s2.63-20.85,2.63-20.85l-26.75-33.44-26.42-12.25s-25.27,10.34-26.04,10.53c-.77,.19-4.61,21.44-4.61,21.44l12.84,7.27Z" style="opacity:.3;"></path><path d="M335.39,269.66s-7.84-37.01-36.33-61.48c-25.04-21.51-68.53-32.42-102.24-12.71,0,0-15.47,7.86-18.18,26.17-2.43,16.36,1.8,54.69,61.36,65.44,59.56,10.74,86.7,.12,86.7,.12,0,0,1.53-10.32-23.68-16.94-22.37-5.87-47.34-12.49-43.44-25.7,1.01-3.41,3.71-6.06,7.07-7.24,5.26-1.84,15.23-3.64,28.1,1.88,19.42,8.33,18.32,26.74,40.64,30.46Z" style="fill:#0F493D;"></path><g style="opacity:.2;"><path d="M245.97,238.97c.51,.49,.49,1.54-.23,2.97-.72,1.42-2.16,3.21-4.47,4.87-2.31,1.65-5.45,3.12-9.37,3.7-1.99,.27-4.15,.29-6.46-.15-2.29-.47-4.78-1.4-6.99-3.23-1.09-.91-2.07-2-2.82-3.18-.76-1.17-1.29-2.4-1.66-3.59-.74-2.4-.83-4.66-.65-6.71,.39-4.09,2-7.4,3.77-9.7,1.78-2.32,3.76-3.65,5.26-4.25,1.53-.59,2.57-.47,3,.1,.88,1.19-.76,3.78-1.77,7.65-.5,1.93-.85,4.19-.66,6.49,.1,1.13,.33,2.25,.72,3.14,.39,.92,.83,1.49,1.45,2.01,.62,.54,1.55,.98,2.62,1.31,1.09,.31,2.3,.49,3.48,.53,2.44,.07,4.85-.29,6.86-.76,4.05-.93,6.85-2.24,7.92-1.21Z"></path></g><g style="opacity:.2;"><path d="M252.36,229.66c-.4-.6-.05-1.64,.81-2.98,.84-1.34,2.24-3.01,3.29-4.9,.27-.47,.49-.96,.69-1.45,.22-.51,.28-.9,.38-1.39,.17-.94,.13-1.99-.13-2.73-.12-.37-.29-.63-.44-.79-.17-.16-.26-.23-.52-.36-.46-.25-1.64-.59-3.33-.7-7.12-.54-13.73,.83-18.53,2.19-4.82,1.35-8.06,2.58-9.02,1.43-.45-.55-.24-1.63,.69-3.07,.92-1.45,2.61-3.21,5.05-4.96,2.44-1.75,5.68-3.41,9.54-4.57,1.93-.56,4.01-1.01,6.21-1.27,2.2-.24,4.48-.3,6.87-.14,1.23,.1,2.54,.27,3.93,.65,1.38,.38,2.86,.97,4.25,1.94,1.38,.94,2.62,2.32,3.41,3.77,.81,1.46,1.22,2.97,1.37,4.38,.29,2.83-.31,5.25-1.28,7.29-.23,.51-.52,.99-.8,1.46-.3,.47-.61,.89-.92,1.26-.62,.74-1.26,1.4-1.9,1.93-2.59,2.15-4.88,2.97-6.51,3.37-1.64,.37-2.71,.24-3.11-.36Z"></path></g><g style="opacity:.2;"><path d="M262.9,260.52c.52,.45-.15,2.38-2.36,5.18-2.21,2.78-6.07,6.41-11.86,9.4-2.89,1.49-6.26,2.79-10.04,3.68-3.78,.87-7.99,1.31-12.38,1.07-8.77-.44-18.4-3.59-26.5-9.97-4.05-3.16-7.52-7.04-10.01-11.48-1.23-2.23-2.21-4.59-2.83-7.03-.62-2.44-.9-4.9-.88-7.24,.03-4.71,1.15-8.95,2.65-12.59,1.51-3.65,3.47-6.75,5.45-9.28,3.99-5.09,7.93-8.25,10.75-10.25,2.84-1.97,4.67-2.72,5.17-2.21,.5,.52-.4,2.28-2.29,5.06-1.86,2.79-4.78,6.58-7.49,11.47-1.35,2.45-2.58,5.15-3.46,8.14-.88,2.98-1.39,6.23-1.18,9.46,.2,3.24,1.13,6.36,2.97,9.41,1.83,3.03,4.44,5.92,7.6,8.38,6.31,4.98,13.85,7.76,20.84,8.59,3.51,.43,6.88,.37,10.04,0,3.15-.4,6.08-1.1,8.7-1.96,5.26-1.73,9.27-4.02,12.07-5.66,2.8-1.65,4.48-2.64,5.04-2.14Z"></path></g><ellipse cx="252.75" cy="234.89" rx="9.58" ry="6.3" style="fill:#fff;"></ellipse><ellipse cx="252.75" cy="234.89" rx="5.3" ry="3.48" style="fill:#0F493D;"></ellipse><path d="M324.1,244.81c.63-.76,1.05-1.47,1.26-2.07-.32-.65-.66-1.3-1-1.95-.69-.05-1.63,.16-2.73,.52-1.78,.59-4.02,1.55-6.46,2.63-2.45,1.07-4.66,2.07-6.3,2.99-.67,.38-1.23,.74-1.66,1.11,.96,1.01,1.85,2.04,2.72,3.08,2.07,.09,4.87-.39,7.69-1.63,2.88-1.27,5.16-3.06,6.48-4.67Z" style="opacity:.3;"></path><path d="M330.92,255.38c-1.28,.52-2.7,1.13-4.2,1.79-2.45,1.07-4.66,2.07-6.3,2.99-.73,.41-1.34,.82-1.78,1.21,1.09,1.06,2.25,2.06,3.53,2.99,1.98-.03,4.49-.53,7.01-1.64,1.36-.6,2.58-1.32,3.64-2.08-.53-1.6-1.16-3.36-1.88-5.27Z" style="opacity:.3;"></path><path d="M297.19,232.51c-.28,.21-.55,.44-.81,.64-.27,.19-.53,.38-.77,.57-1.97,1.48-3.36,2.53-3.15,3.37,.1,.41,.59,.68,1.44,.81,.21,.03,.45,.06,.7,.07,.25,0,.52-.01,.81-.03,.58-.05,1.25-.11,1.95-.31,.35-.09,.72-.19,1.11-.3,.38-.11,.76-.28,1.17-.43,.81-.3,1.62-.73,2.48-1.2,1.67-.98,3.39-2.29,4.94-3.91,1.53-1.64,2.74-3.43,3.62-5.15,.41-.88,.8-1.71,1.05-2.54,.13-.41,.27-.8,.36-1.19,.07-.31,.13-.61,.19-.9-.91-1.15-1.85-2.29-2.82-3.43-.35,.48-.72,1.05-1.14,1.67-.18,.26-.35,.53-.53,.81-.18,.28-.39,.56-.59,.85-.38,.6-.85,1.19-1.3,1.83-.96,1.25-2.03,2.57-3.25,3.89-1.24,1.3-2.5,2.45-3.69,3.47-.61,.48-1.18,.99-1.75,1.4Z" style="opacity:.3;"></path><path d="M264.08,197.49c1.8,.44,3.54,1.01,5.25,1.61,1.71,.61,3.34,1.27,4.81,2.02,1.47,.75,2.79,1.61,3.88,2.57,1.1,.97,1.93,2.03,2.57,3.25,.65,1.2,1.07,2.53,1.33,3.89,.26,1.36,.36,2.75,.34,4.1-.02,1.36-.16,2.69-.37,3.95-.22,1.27-.52,2.55-.81,3.77-1.22,4.88-2.36,8.9-2.95,11.73-.09,.39-.16,.76-.23,1.11,.73,0,1.48,.03,2.25,.08,.07-.13,.14-.27,.2-.4,1.28-2.59,3.02-6.36,4.83-11.27,.44-1.24,.89-2.55,1.28-4,.39-1.47,.67-3.03,.82-4.68,.15-1.65,.15-3.4-.09-5.21-.24-1.81-.72-3.7-1.58-5.53-.84-1.83-2.12-3.6-3.64-5.03-1.52-1.44-3.25-2.61-5.04-3.58-1.79-.97-3.64-1.74-5.51-2.44-1.88-.68-3.82-1.32-5.81-1.81-7.98-2.04-15.95-2.28-22.98-1.24-7.05,1.03-13.1,3.29-17.8,5.76-4.71,2.48-8.1,5.15-10.24,7.17-2.13,2.04-3.04,3.43-2.77,3.73,.29,.33,1.71-.44,4.18-1.83,2.47-1.38,6.02-3.35,10.63-5.17,4.6-1.82,10.27-3.47,16.69-4.11,6.41-.66,13.59-.27,20.79,1.57Z" style="opacity:.2;"></path><path d="M203.9,202.17c1.95-2.35,3.3-4.76,4.22-6.85,.87-2.1,1.28-3.84,1.45-5.08,.03-.25,.05-.48,.06-.69-1.17,.41-2.34,.85-3.5,1.32-.52,.69-1.1,1.48-1.75,2.33-1.26,1.56-2.74,3.37-4.6,5.17-1.88,1.78-4.09,3.56-6.6,5.14-3.23,2.04-6.52,3.49-9.5,4.5-1.06,1.68-2.04,3.53-2.87,5.57,1.98-.06,4.23-.32,6.59-.98,2.93-.79,6.05-2.08,9.02-3.96,2.97-1.88,5.49-4.15,7.46-6.47Z" style="opacity:.3;"></path><path d="M258.24,288.94c2.58-1.36,5.29-3.11,7.88-5.27,2.57-2.19,4.75-4.57,6.52-6.89,.85-1.19,1.66-2.31,2.3-3.44,.32-.56,.65-1.09,.93-1.63,.27-.54,.52-1.06,.75-1.56,.49-.98,.8-1.94,1.08-2.76,.13-.42,.26-.8,.35-1.16,.08-.37,.15-.71,.19-1.02,.19-1.24,.1-1.99-.28-2.15-.81-.35-2.44,1.73-4.99,4.85-.32,.39-.65,.8-1,1.22-.34,.42-.74,.84-1.12,1.29-.74,.91-1.62,1.8-2.49,2.78-1.81,1.89-3.86,3.89-6.15,5.85-2.31,1.93-4.62,3.61-6.79,5.08-1.1,.7-2.14,1.41-3.15,1.99-.5,.3-.98,.62-1.46,.89-.48,.27-.93,.53-1.37,.78-.42,.24-.82,.47-1.21,.69,2.92,.45,5.75,.85,8.5,1.21,.49-.23,1-.48,1.51-.73Z" style="opacity:.3;"></path><path d="M293.68,282.04c1.35-1.77,2.4-3.63,3.17-5.39,.36-.89,.69-1.74,.91-2.57,.25-.82,.4-1.6,.51-2.32,.15-1.06,.18-1.98,.12-2.73-.94-.25-1.88-.5-2.81-.75-.41,.56-.86,1.26-1.35,2.07-.34,.54-.68,1.13-1.08,1.75-.37,.63-.81,1.27-1.23,1.96-.9,1.35-1.9,2.8-3.02,4.28-1.14,1.46-2.29,2.79-3.37,4.01-.56,.59-1.07,1.18-1.58,1.69-.49,.54-.98,1.03-1.42,1.49-1.75,1.84-2.91,3.17-2.53,3.95,.34,.73,2.24,.74,4.93-.39,.67-.29,1.39-.63,2.11-1.08,.75-.42,1.48-.96,2.26-1.53,1.51-1.19,3.04-2.67,4.4-4.43Z" style="opacity:.3;"></path><path d="M308.39,290.27c.61-.44,1.18-.99,1.78-1.57,1.16-1.21,2.28-2.69,3.2-4.41,.89-1.72,1.48-3.49,1.82-5.13,.14-.83,.27-1.61,.28-2.36,.05-.74,.02-1.44-.05-2.07v-.04c-1.14-.56-2.39-1.11-3.77-1.65-.16,.37-.32,.76-.49,1.19-.2,.49-.39,1.03-.63,1.59-.2,.57-.47,1.15-.71,1.77-.53,1.22-1.13,2.54-1.82,3.88-.71,1.34-1.46,2.57-2.16,3.7-.37,.55-.7,1.1-1.05,1.59-.33,.51-.66,.97-.95,1.42-.93,1.39-1.61,2.49-1.63,3.26,1.82-.13,3.54-.28,5.16-.45,.34-.21,.69-.45,1.03-.72Z" style="opacity:.3;"></path><path d="M259.58,244.56c1.01-3.41,3.71-6.06,7.07-7.24,5.26-1.84,15.23-3.64,28.1,1.88,9.36,4.02,13.96,10.37,18.7,16.3h0s-5.04-11.21-17.24-19.1c-12.2-7.89-27.9-5.88-35.13-1.52-6.36,3.83-9.49,15.33-.86,23.95,8.63,8.63,37.05,9.91,37.64,10.06-20.86-5.56-41.89-12.14-38.28-24.34Z" style="fill:#fff;"></path><g><path d="M181.12,212.82s-8.26,22.31-3.72,46.69c4.55,24.38,23.14,45.45,64.87,53.3,41.73,7.85,83.06-5.37,84.3-5.37s0-22.73,0-22.73c0,0-27.69,10.74-79.75,1.24-52.06-9.5-61.66-38.57-64.46-53.3s-1.24-19.83-1.24-19.83Z" style="fill:#e0e0e0;"></path><path d="M205.74,289.47c0,1.75-1.42,3.18-3.18,3.18s-3.18-1.42-3.18-3.18,1.42-3.18,3.18-3.18,3.18,1.42,3.18,3.18Z" style="opacity:.2;"></path><path d="M195.32,281.34c-1.43,1.02-3.41,.68-4.43-.74s-.68-3.41,.74-4.43c1.43-1.02,3.41-.68,4.43,.74,1.02,1.43,.68,3.41-.74,4.43Z" style="opacity:.2;"></path><path d="M205.09,282.97c-.87,.62-2.07,.41-2.68-.45-.62-.87-.41-2.07,.45-2.68,.87-.62,2.07-.41,2.68,.45,.62,.87,.41,2.07-.45,2.68Z" style="opacity:.2;"></path><path d="M214.51,289.22c-.74,.53-1.77,.35-2.29-.39s-.35-1.77,.39-2.29c.74-.53,1.77-.35,2.29,.39,.53,.74,.35,1.77-.39,2.29Z" style="opacity:.2;"></path></g><g style="opacity:.2;"><path d="M189.92,219.92c-.67,4.32,.49,12.07,1.6,16.3,2.04,7.74,3.26,10.22,7.61,16.94,4.35,6.72,10.46,12.5,17.92,15.4,4.81,1.87,11.3,1.98,14.04-2.39,3.03-4.82-.7-10.82-2.62-16.18-2.87-8.04-1.22-17.53,4.2-24.13,3.28-3.99,7.72-6.86,11.37-10.52,3.65-3.66,6.62-8.68,5.71-13.77-1.22-6.85-8.76-10.65-15.65-11.63-12.17-1.74-27.06,2.27-34.07,10.6,0,0-8.35,8.04-10.12,19.39Z" style="fill:#fff;"></path></g></g><g><path d="M311.52,231.04c2.35-1.83,3.94-4.46,5.18-7.17,6.28-13.78,4.01-30.53-3.82-43.48l-17.45-19.47c-2.16-.95-4.83-.66-6.73,.75s-2.96,3.87-2.67,6.22c-4.37,1.65-7.67,5.83-8.25,10.47-.58,4.63,1.58,9.51,5.41,12.18-2.59,2.75-3.49,6.98-2.23,10.54,1.26,3.56,4.62,6.29,8.36,6.79-1.83,3.8-2.33,8.41-.56,12.23,1.77,3.83,6.1,6.55,10.24,5.74-.76,2.88,1.33,6.01,4.15,6.97,2.82,.96,6.03,.04,8.38-1.79Z" style="fill:#455a64;"></path><g style="opacity:.3;"><path d="M311.52,231.04c2.35-1.83,3.94-4.46,5.18-7.17,6.28-13.78,4.01-30.53-3.82-43.48l-17.45-19.47c-2.16-.95-4.83-.66-6.73,.75s-2.96,3.87-2.67,6.22c-4.37,1.65-7.67,5.83-8.25,10.47-.58,4.63,1.58,9.51,5.41,12.18-2.59,2.75-3.49,6.98-2.23,10.54,1.26,3.56,4.62,6.29,8.36,6.79-1.83,3.8-2.33,8.41-.56,12.23,1.77,3.83,6.1,6.55,10.24,5.74-.76,2.88,1.33,6.01,4.15,6.97,2.82,.96,6.03,.04,8.38-1.79Z"></path></g><path d="M322.92,230.13c3.96-3.55,5.45-9.69,2.29-13.96,3.64,.54,6.35-.29,8.69-2.97,2.81-3.23,3.88-7.89,2.75-12.02-1.13-4.13-4.43-7.6-8.5-8.94,4.14-2.83,4.6-11.33,1.95-15.59-2.58-4.15-8.15-5.56-13.2-5.39,2.13-5.08,.58-11.54-3.75-14.99-4.57-3.65-11.74-3.55-16.2,.23-4.47,3.78-5.75,10.83-2.89,15.95-4.89,2.13-6.82,8.63-4.98,13.64,1.84,5.01,6.56,8.51,11.6,10.27-2.23,3.53-3.55,7.88-2.54,11.93s4.81,7.54,8.98,7.24c-3.23,4.23-2.65,10.88,1.26,14.49,3.91,3.61,10.58,3.66,14.54,.11Z" style="fill:#455a64;"></path><path d="M288.41,182.5c.03,.63-7.54,8.32-16.98,12.78-9.44,4.46-12.8,4.25-12.8,4.25l4.93,16.71s11.89-5.25,17.41-4.28c5.52,.97,24.77,5.53,24.77,5.53l-1.16-7.02s-13.93-1.72-14.19-4.47,14.27-3.69,14.27-3.69l.67-9.18s-26.73,10.41-28.06,7.21c-1.32-3.2,19.5-13.2,19.5-13.2l-8.37-4.65Z" style="fill:#455a64;"></path><path d="M328.83,205.22c-2.23-.63-3.52-2.95-2.89-5.17,.63-2.23,2.95-3.52,5.17-2.89,2.23,.63,3.52,2.95,2.89,5.17-.63,2.23-2.95,3.52-5.17,2.89Z" style="fill:#fff; opacity:.3;"></path><path d="M323.37,186.18c-.75-.21-1.18-.99-.97-1.73,.21-.75,.99-1.18,1.73-.97,.75,.21,1.18,.99,.97,1.73-.21,.75-.99,1.18-1.73,.97Z" style="opacity:.2;"></path><path d="M326.64,189.56c-.75-.21-1.18-.99-.97-1.73,.21-.75,.99-1.18,1.73-.97s1.18,.99,.97,1.73-.99,1.18-1.73,.97Z" style="opacity:.2;"></path><path d="M326.96,183.31c-.47-.13-.75-.63-.62-1.1,.13-.47,.63-.75,1.1-.62,.47,.13,.75,.63,.62,1.1-.13,.47-.63,.75-1.1,.62Z" style="opacity:.2;"></path><path d="M313.06,204.28c-.05,.77-.72,1.36-1.49,1.31-.77-.05-1.36-.72-1.31-1.49,.05-.77,.72-1.36,1.49-1.31s1.36,.72,1.31,1.49Z" style="opacity:.2;"></path><path d="M315.67,200.38c-.05,.77-.72,1.36-1.49,1.31-.77-.05-1.36-.72-1.31-1.49s.72-1.36,1.49-1.31c.77,.05,1.36,.72,1.31,1.49Z" style="opacity:.2;"></path><path d="M309.49,201.37c-.03,.49-.46,.87-.95,.83-.49-.03-.87-.46-.83-.95,.03-.49,.46-.87,.95-.83,.49,.03,.87,.46,.83,.95Z" style="opacity:.2;"></path><g style="opacity:.2;"><path d="M308.38,230.02c3.91,3.61,10.58,3.66,14.54,.11,3.96-3.55,5.45-9.69,2.29-13.96,3.55,.56,6.35-.29,8.69-2.97,2.12-2.43,3.25-5.68,3.19-8.9-4.14,11.29-13.1,3.82-13.1,3.82,.44,3.11,.35,5.44-.05,7.18-1.08,4.71-7.28,6.28-10.27,2.48-1.76-2.24-1.48-5.32,.26-8.13-3.87,.93-7.95-2.15-8.95-6s.56-8.02,3.16-11.03c-4.37,.43-8.78-2.88-9.59-7.19-.8-4.31,2.12-9,6.35-10.16-3.29,.35-6.53-1.93-7.81-4.98-1.28-3.05-.81-6.65,.71-9.59,1.48-2.86,3.85-5.15,6.45-7.06-2.66,.19-5.27,1.14-7.31,2.86-4.47,3.78-5.75,10.83-2.89,15.95-4.89,2.13-6.82,8.63-4.98,13.64,1.84,5.01,6.56,8.51,11.6,10.27-2.23,3.53-3.55,7.88-2.54,11.93s4.81,7.54,8.98,7.24c-3.23,4.23-2.65,10.88,1.26,14.49Z"></path></g><path d="M306.25,155.32s.28-.01,.76,.09c.48,.1,1.16,.31,1.97,.67,1.6,.71,3.68,2.19,5.11,4.51,1.43,2.33,1.8,4.85,1.71,6.6-.04,.88-.16,1.58-.29,2.06-.13,.47-.23,.73-.26,.72-.09-.02,.2-1.07,.18-2.78,0-1.7-.43-4.1-1.79-6.32-1.36-2.22-3.31-3.68-4.83-4.45-1.52-.79-2.59-1-2.56-1.1Z" style="fill:#fff;"></path><path d="M314.59,173.07c-.01-.05,.9-.35,2.43-.45,1.53-.1,3.69,.03,5.92,.82,1.11,.4,2.12,.91,2.97,1.48,.83,.6,1.53,1.21,2.01,1.82,.26,.29,.45,.58,.61,.84,.18,.25,.3,.48,.38,.68,.18,.39,.26,.61,.23,.63-.09,.05-.49-.82-1.5-1.91-.49-.56-1.19-1.11-2-1.67-.83-.53-1.8-1.01-2.87-1.39-2.15-.76-4.24-.95-5.73-.94-1.5,0-2.43,.17-2.44,.08Z" style="fill:#fff;"></path><path d="M335.15,205.16c-.09,0-.05-.86-.3-2.2-.24-1.33-.82-3.15-2.02-4.84-1.2-1.68-2.72-2.84-3.9-3.5-1.18-.67-2-.92-1.98-1.01,.01-.06,.88,.07,2.15,.68,1.26,.6,2.9,1.76,4.15,3.52,1.25,1.77,1.81,3.7,1.96,5.08,.16,1.4,0,2.26-.07,2.25Z" style="fill:#fff;"></path></g><g><g><g><path d="M201.72,165.22s-11.3-6.56-17.06,1.02c-5.77,7.57-11.02,22.6,6.31,37.67,12.82,11.14,25.72,1.83,31.57-3.77,2.46-2.36,3.53-5.84,2.68-9.15-1.54-6.03-6.73-16.02-23.5-25.76Z" style="fill:#e0e0e0;"></path><path d="M201.72,165.22s.12,.05,.33,.17c.23,.13,.54,.31,.94,.54,.82,.47,2.03,1.18,3.53,2.19,2.99,2,7.32,5.04,11.64,9.88,2.12,2.44,4.25,5.33,5.82,8.82,.39,.87,.75,1.78,1.05,2.72,.29,.94,.6,1.91,.67,2.95,.18,2.06-.34,4.25-1.54,6.07-.58,.93-1.38,1.73-2.19,2.45-.81,.74-1.65,1.47-2.54,2.15-1.77,1.38-3.68,2.67-5.78,3.71-2.1,1.03-4.37,1.84-6.76,2.25-2.39,.45-4.91,.29-7.33-.29-2.45-.54-4.64-1.76-6.65-3.09-1.97-1.42-3.67-3.07-5.33-4.71-3.24-3.35-5.82-7.18-7.25-11.25-1.45-4.06-1.7-8.27-1.04-12.04,.67-3.78,2.21-7.06,3.94-9.79,.44-.68,.91-1.32,1.38-1.93,.54-.56,.99-1.19,1.62-1.59,1.14-.96,2.5-1.43,3.75-1.73,2.56-.49,4.82-.09,6.56,.37,1.75,.48,3.04,1.05,3.9,1.46,.43,.21,.75,.38,.96,.5,.21,.12,.32,.19,.31,.2,0,0-.12-.05-.34-.15-.22-.11-.54-.26-.98-.45-.87-.38-2.16-.92-3.9-1.36-1.73-.42-3.96-.78-6.45-.28-1.21,.3-2.52,.77-3.61,1.7-.6,.39-1.04,1-1.55,1.55-.46,.6-.92,1.24-1.34,1.92-1.7,2.7-3.19,5.95-3.83,9.66-.63,3.7-.37,7.82,1.06,11.8,1.41,3.99,3.96,7.75,7.17,11.06,1.64,1.62,3.33,3.26,5.26,4.64,1.96,1.3,4.1,2.49,6.48,3.01,2.34,.56,4.79,.72,7.12,.28,2.33-.4,4.55-1.18,6.61-2.2,2.06-1.03,3.95-2.29,5.7-3.65,.88-.67,1.71-1.39,2.51-2.12,.82-.72,1.56-1.46,2.12-2.35,1.15-1.73,1.66-3.81,1.49-5.77-.06-.98-.36-1.92-.64-2.85-.3-.92-.64-1.82-1.02-2.68-1.52-3.45-3.62-6.32-5.7-8.75-4.25-4.83-8.53-7.91-11.47-9.95-1.48-1.03-2.67-1.76-3.47-2.27-.38-.24-.68-.44-.91-.58-.2-.13-.31-.21-.3-.21Z" style="fill:#263238;"></path></g><g style="opacity:.21;"><path d="M198.85,193.66c7.04,5.44,16.17,7.41,24.83,5.36l.04-.04c1.54-1.6,2.21-3.83,1.86-6.03-.9-5.63-5.19-16.81-24.01-27.66,0,0-11.3-6.56-17.06,1.02-.4,.5-.77,1.06-1.15,1.61,1.58,10.28,7.15,19.53,15.49,25.74Z" style="fill:#263238;"></path></g><g><path d="M207.18,161.37l-11.91,11.9c1,6.03,4.51,11.35,9.66,14.64,8.29,4.67,10.22,1.55,10.22,1.55l10.39-10.22c1.17-1.15,1.46-2.92,.73-4.38-2.43-4.83-5.93-9.07-10.25-12.37-7.72-5.13-8.85-1.12-8.85-1.12Z" style="fill:#e0e0e0;"></path><path d="M207.18,161.37s0-.08,.07-.23c.06-.15,.19-.35,.39-.58,.42-.45,1.34-.89,2.52-.75,1.17,.1,2.54,.6,3.99,1.38,.37,.19,.74,.39,1.11,.63,.37,.24,.78,.44,1.14,.75,.75,.57,1.5,1.2,2.27,1.9,1.53,1.4,3.09,3.06,4.55,5.02,.73,.98,1.43,2.03,2.1,3.14,.33,.56,.66,1.13,.96,1.73,.33,.56,.61,1.28,.63,2,.04,.72-.13,1.47-.49,2.12-.18,.33-.4,.63-.67,.9l-.76,.75c-1.02,1-2.05,2.03-3.11,3.07-2.12,2.08-4.3,4.24-6.55,6.45l.04-.05c-.05,.07-.08,.11-.13,.16-.55,.57-1.29,.82-1.99,.92-.71,.09-1.42,.06-2.1-.06-1.37-.22-2.64-.7-3.85-1.23-.6-.27-1.2-.55-1.77-.87-.59-.28-1.13-.65-1.66-1.02-1.04-.75-2-1.58-2.86-2.45-3.48-3.53-5.33-7.89-5.94-11.74l-.02-.1,.07-.07c3.65-3.6,6.64-6.54,8.74-8.61,1.03-.99,1.84-1.78,2.42-2.35,.26-.25,.47-.45,.65-.61,.15-.13,.23-.2,.24-.2,0,0-.05,.08-.19,.23-.16,.17-.35,.38-.6,.64-.57,.59-1.35,1.39-2.34,2.41-2.08,2.11-5.04,5.11-8.65,8.77l.06-.18c.64,3.78,2.48,8.02,5.89,11.46,.85,.85,1.79,1.66,2.81,2.39,.51,.36,1.03,.71,1.61,.98,.56,.31,1.14,.58,1.73,.85,1.18,.52,2.43,.98,3.72,1.19,.65,.11,1.31,.13,1.95,.06,.63-.09,1.27-.33,1.68-.75l.07-.09,.04-.05c2.25-2.21,4.44-4.36,6.56-6.44,1.06-1.04,2.1-2.06,3.12-3.06,.51-.52,1.05-.95,1.35-1.53,.31-.57,.47-1.22,.44-1.86-.02-.65-.24-1.23-.57-1.81-.3-.59-.62-1.16-.94-1.71-.65-1.11-1.34-2.15-2.05-3.12-1.43-1.94-2.95-3.6-4.45-5-.75-.69-1.49-1.34-2.22-1.9-.34-.31-.75-.5-1.11-.75-.36-.24-.72-.45-1.08-.64-1.42-.79-2.74-1.3-3.87-1.43-1.13-.16-2,.21-2.43,.62-.42,.42-.51,.75-.53,.73Z" style="fill:#263238;"></path></g><g style="opacity:.15;"><path d="M197.9,173.43c-.63-.53,.87-3.42,3.64-6.23,2.77-2.81,5.82-4.27,6.32-3.56,.49,.72-1.5,3.01-4.14,5.7-2.64,2.69-5.14,4.65-5.82,4.08Z" style="fill:#fff;"></path></g><g style="opacity:.15;"><path d="M224.43,176c-.36,.17-1.4-.49-2.7-1.91-1.3-1.42-2.88-3.65-4.64-5.87-.89-1.1-1.77-2.09-2.6-2.93-.74-.75-1.54-1.44-2.41-2.04-1.44-.97-2.58-1.39-2.59-1.95-.01-.56,1.43-.67,3.49-.11,1.19,.41,2.29,1.01,3.28,1.79,1.16,.93,2.22,1.99,3.15,3.15,1.59,2.03,2.94,4.23,4.05,6.56,.96,1.86,1.38,3.03,.98,3.31Z" style="fill:#fff;"></path></g></g><path d="M224.69,177.72s-.34-.03-.92-.18c-.59-.14-1.42-.42-2.43-.83-2.01-.81-4.67-2.27-7.17-4.46-2.49-2.2-4.29-4.65-5.34-6.54-.53-.94-.91-1.73-1.13-2.3-.22-.56-.33-.88-.3-.89,.09-.04,.62,1.19,1.74,3,1.12,1.82,2.93,4.18,5.37,6.34,2.45,2.15,5.03,3.64,6.97,4.52,1.94,.89,3.23,1.26,3.2,1.35Z" style="fill:#263238;"></path><path d="M218.71,199.8s-.16,.04-.48,.05c-.32,0-.78,.06-1.39,.03-1.2,0-2.95-.13-5.07-.54-4.23-.79-9.94-3.07-15.03-7.3-5.09-4.23-8.49-9.27-10.53-13.04-1.03-1.89-1.75-3.48-2.21-4.59-.24-.55-.39-.99-.5-1.29-.11-.3-.16-.46-.14-.46,.04-.02,.32,.59,.83,1.67,.51,1.08,1.28,2.64,2.34,4.49,2.11,3.7,5.51,8.65,10.54,12.82,5.02,4.17,10.62,6.47,14.78,7.34,2.08,.46,3.81,.64,5,.7,1.19,.07,1.86,.07,1.86,.11Z" style="fill:#263238;"></path></g><g><g><g><path d="M330.48,250.68s-2.33,12.85,6.75,15.71c9.08,2.85,25,2.7,33.29-18.72,6.13-15.84-7.01-24.82-14.26-28.42-3.06-1.52-6.69-1.33-9.51,.58-5.14,3.5-12.79,11.76-16.26,30.85Z" style="fill:#e0e0e0;"></path><path d="M330.48,250.68s0-.13,.05-.37c.05-.27,.11-.62,.19-1.06,.17-.94,.42-2.31,.86-4.07,.87-3.49,2.25-8.59,5.34-14.3,1.57-2.82,3.57-5.81,6.32-8.47,.69-.66,1.42-1.3,2.2-1.91,.78-.59,1.59-1.21,2.55-1.63,1.87-.87,4.11-1.12,6.24-.61,1.07,.23,2.09,.71,3.05,1.23,.97,.51,1.94,1.05,2.89,1.66,1.89,1.2,3.76,2.56,5.45,4.17,1.68,1.62,3.21,3.48,4.41,5.59,1.24,2.09,1.94,4.52,2.22,6.99,.33,2.49-.08,4.97-.65,7.31-.66,2.34-1.64,4.5-2.62,6.61-2.05,4.18-4.78,7.91-8.12,10.64-3.33,2.74-7.21,4.4-10.97,5.06-3.78,.65-7.39,.32-10.55-.39-.79-.18-1.55-.4-2.29-.64-.71-.32-1.45-.53-2.05-.99-1.29-.74-2.2-1.86-2.9-2.94-1.33-2.25-1.72-4.5-1.88-6.29-.15-1.81-.05-3.21,.05-4.16,.05-.47,.1-.83,.14-1.07,.04-.24,.07-.36,.08-.36,0,0,0,.13-.03,.37-.03,.24-.06,.6-.09,1.07-.06,.94-.13,2.34,.05,4.13,.19,1.77,.61,3.99,1.92,6.16,.69,1.04,1.58,2.11,2.83,2.81,.57,.43,1.29,.63,1.98,.94,.72,.22,1.48,.44,2.26,.61,3.12,.68,6.68,.98,10.39,.32,3.69-.66,7.48-2.3,10.74-5,3.27-2.68,5.95-6.35,7.97-10.49,.97-2.09,1.94-4.24,2.58-6.52,.56-2.29,.95-4.7,.63-7.12-.27-2.4-.95-4.75-2.15-6.79-1.17-2.06-2.66-3.88-4.31-5.47-1.66-1.59-3.5-2.93-5.37-4.12-.93-.6-1.89-1.14-2.85-1.65-.96-.53-1.91-.97-2.93-1.2-2.02-.49-4.15-.27-5.93,.56-.9,.39-1.69,.99-2.47,1.57-.77,.59-1.49,1.22-2.17,1.87-2.73,2.6-4.72,5.55-6.3,8.33-3.11,5.64-4.54,10.7-5.47,14.17-.47,1.74-.75,3.11-.95,4.04l-.24,1.05c-.06,.24-.09,.36-.1,.36Z" style="fill:#263238;"></path></g><g style="opacity:.21;"><path d="M358.21,243.72c2.73-8.47,1.48-17.72-3.39-25.17l-.05-.02c-2.03-.91-4.36-.78-6.3,.3-4.99,2.76-14.05,10.59-17.87,31.97,0,0-2.33,12.85,6.75,15.71,.61,.2,1.26,.37,1.91,.53,9.14-4.98,15.95-13.35,18.96-23.31Z" style="fill:#263238;"></path></g><g><path d="M325.01,246.85l15.24,7.16c5.33-2.99,9.14-8.1,10.49-14.06,1.58-9.39-2.01-10.14-2.01-10.14l-13.14-6.31c-1.47-.71-3.24-.39-4.37,.8-3.72,3.93-6.52,8.66-8.16,13.84-2.2,9,1.95,8.7,1.95,8.7Z" style="fill:#e0e0e0;"></path><path d="M325.01,246.85s-.08,.02-.24,.01c-.16,0-.39-.06-.68-.17-.57-.24-1.29-.96-1.56-2.12-.31-1.14-.3-2.59-.06-4.22,.05-.41,.12-.83,.22-1.26,.11-.43,.15-.89,.32-1.33,.28-.9,.62-1.82,1.02-2.78,.79-1.91,1.83-3.95,3.17-5.98,.67-1.02,1.42-2.04,2.24-3.04,.41-.5,.84-1,1.3-1.49,.42-.5,1-1.01,1.67-1.27,.67-.28,1.42-.37,2.16-.26,.37,.06,.73,.16,1.07,.32,.32,.15,.64,.3,.96,.46,1.29,.62,2.6,1.24,3.94,1.88,2.68,1.28,5.45,2.61,8.29,3.97l-.06-.02c.08,.02,.13,.04,.2,.07,.72,.33,1.21,.93,1.54,1.56,.32,.64,.53,1.32,.66,2,.26,1.36,.23,2.72,.15,4.04-.05,.66-.11,1.31-.22,1.96-.07,.65-.23,1.28-.39,1.9-.35,1.23-.81,2.41-1.34,3.53-2.14,4.47-5.61,7.69-9.02,9.57l-.09,.05-.09-.04c-4.62-2.21-8.4-4.02-11.07-5.3-1.28-.63-2.29-1.12-3.03-1.48-.32-.16-.58-.3-.79-.4-.18-.09-.27-.15-.27-.16,0-.01,.1,.02,.28,.1,.21,.09,.47,.2,.8,.35,.74,.33,1.77,.8,3.06,1.38,2.7,1.24,6.51,3,11.18,5.16h-.18c3.33-1.88,6.71-5.05,8.78-9.43,.51-1.09,.95-2.24,1.29-3.45,.16-.6,.31-1.21,.38-1.85,.1-.63,.16-1.27,.21-1.92,.08-1.29,.1-2.62-.14-3.91-.12-.64-.32-1.27-.61-1.85-.3-.56-.74-1.08-1.28-1.33l-.11-.04-.06-.02c-2.84-1.36-5.61-2.69-8.28-3.98-1.34-.64-2.65-1.28-3.94-1.9-.66-.3-1.25-.67-1.9-.75-.64-.1-1.31-.03-1.9,.22-.6,.24-1.07,.64-1.51,1.15-.45,.48-.88,.97-1.29,1.47-.82,.99-1.57,1.99-2.24,2.99-1.34,2-2.39,4-3.19,5.89-.4,.94-.75,1.86-1.04,2.73-.17,.43-.22,.88-.33,1.3-.1,.42-.18,.83-.24,1.24-.26,1.6-.3,3.02-.03,4.12,.23,1.12,.88,1.81,1.41,2.07,.54,.26,.88,.23,.87,.25Z" style="fill:#263238;"></path></g><g style="opacity:.15;"><path d="M339.5,251.48c-.29,.77-3.51,.34-7.1-1.31-3.59-1.65-6-4.03-5.49-4.73,.51-.71,3.35,.39,6.77,1.96,3.42,1.57,6.12,3.25,5.81,4.09Z" style="fill:#fff;"></path></g><g style="opacity:.15;"><path d="M332.91,225.66c.28,.28,.02,1.48-.88,3.18-.9,1.7-2.46,3.95-3.94,6.36-.73,1.22-1.36,2.37-1.87,3.44-.46,.95-.83,1.94-1.1,2.96-.43,1.68-.43,2.9-.96,3.1-.53,.2-1.11-1.12-1.29-3.25-.02-1.25,.17-2.5,.57-3.69,.48-1.41,1.11-2.76,1.89-4.03,1.37-2.18,2.98-4.21,4.8-6.04,1.42-1.54,2.38-2.33,2.78-2.04Z" style="fill:#fff;"></path></g></g><path d="M334.44,224.84s.08,.33,.14,.93c.07,.6,.09,1.48,.05,2.56-.08,2.16-.55,5.16-1.77,8.26-1.22,3.09-2.92,5.61-4.34,7.24-.71,.82-1.32,1.45-1.78,1.84-.45,.4-.71,.61-.74,.58-.06-.07,.91-.98,2.23-2.66,1.33-1.67,2.94-4.17,4.14-7.2,1.19-3.03,1.72-5.96,1.88-8.09,.17-2.13,.09-3.46,.18-3.47Z" style="fill:#263238;"></path><path d="M357.25,222.96s.09,.14,.21,.43c.12,.29,.32,.72,.5,1.29,.41,1.13,.88,2.82,1.21,4.96,.69,4.25,.48,10.4-1.77,16.62-2.25,6.23-5.84,11.13-8.7,14.33-1.43,1.61-2.68,2.83-3.57,3.63-.44,.41-.8,.71-1.04,.91-.24,.2-.38,.3-.39,.29-.03-.03,.45-.5,1.29-1.35,.84-.85,2.04-2.1,3.43-3.73,2.77-3.24,6.26-8.12,8.48-14.26,2.22-6.14,2.48-12.18,1.89-16.39-.28-2.11-.69-3.8-1.04-4.94-.34-1.15-.57-1.77-.52-1.79Z" style="fill:#263238;"></path></g><g><g><g><path d="M122.43,308.62s-2.33,12.85,6.75,15.71c9.08,2.85,25,2.7,33.29-18.72,6.13-15.84-7.01-24.82-14.26-28.42-3.06-1.52-6.69-1.33-9.51,.58-5.14,3.5-12.79,11.76-16.26,30.85Z" style="fill:#e0e0e0;"></path><path d="M122.43,308.62s0-.13,.05-.37c.05-.27,.11-.62,.19-1.06,.17-.94,.42-2.31,.86-4.07,.87-3.49,2.25-8.59,5.34-14.3,1.57-2.82,3.57-5.81,6.32-8.47,.69-.66,1.42-1.3,2.2-1.91,.78-.59,1.59-1.21,2.55-1.63,1.87-.87,4.11-1.12,6.24-.61,1.07,.23,2.09,.71,3.05,1.23,.97,.51,1.94,1.05,2.89,1.66,1.89,1.2,3.76,2.56,5.45,4.17,1.68,1.62,3.21,3.48,4.41,5.59,1.24,2.09,1.94,4.52,2.22,6.99,.33,2.49-.08,4.97-.65,7.31-.66,2.34-1.64,4.5-2.62,6.61-2.05,4.18-4.78,7.91-8.12,10.64-3.33,2.74-7.21,4.4-10.97,5.06-3.78,.65-7.39,.32-10.55-.39-.79-.18-1.55-.4-2.29-.64-.71-.32-1.45-.53-2.05-.99-1.29-.74-2.2-1.86-2.9-2.94-1.33-2.25-1.72-4.5-1.88-6.29-.15-1.81-.05-3.22,.05-4.16,.05-.47,.1-.83,.14-1.07,.04-.24,.07-.36,.08-.36,0,0,0,.13-.03,.37-.03,.24-.06,.6-.09,1.07-.06,.94-.13,2.35,.05,4.13,.19,1.77,.61,3.99,1.92,6.16,.69,1.04,1.58,2.11,2.83,2.81,.57,.43,1.29,.63,1.98,.94,.72,.22,1.48,.44,2.26,.61,3.12,.68,6.68,.98,10.39,.32,3.69-.66,7.48-2.3,10.74-5,3.27-2.68,5.95-6.35,7.97-10.49,.97-2.09,1.94-4.24,2.58-6.52,.56-2.29,.95-4.7,.63-7.12-.27-2.4-.95-4.75-2.15-6.79-1.17-2.06-2.66-3.88-4.31-5.47-1.66-1.59-3.5-2.93-5.37-4.12-.93-.6-1.89-1.14-2.85-1.65-.96-.53-1.91-.97-2.93-1.2-2.02-.49-4.15-.27-5.93,.56-.9,.39-1.69,.99-2.47,1.57-.77,.59-1.49,1.22-2.17,1.87-2.73,2.6-4.72,5.55-6.3,8.33-3.11,5.64-4.54,10.7-5.47,14.17-.47,1.74-.75,3.11-.95,4.04-.1,.44-.18,.79-.24,1.05-.06,.24-.09,.36-.1,.36Z" style="fill:#263238;"></path></g><g style="opacity:.21;"><path d="M150.16,301.67c2.73-8.47,1.48-17.72-3.39-25.17l-.05-.02c-2.03-.91-4.36-.78-6.3,.3-4.99,2.76-14.05,10.59-17.87,31.97,0,0-2.33,12.85,6.75,15.71,.61,.2,1.26,.37,1.91,.53,9.14-4.98,15.95-13.35,18.96-23.31Z" style="fill:#263238;"></path></g><g><path d="M116.96,304.8l15.24,7.16c5.33-2.99,9.14-8.1,10.49-14.06,1.58-9.39-2.01-10.14-2.01-10.14l-13.14-6.31c-1.47-.71-3.24-.39-4.37,.8-3.72,3.93-6.52,8.66-8.16,13.84-2.2,9,1.95,8.7,1.95,8.7Z" style="fill:#e0e0e0;"></path><path d="M116.96,304.8s-.08,.02-.24,.01c-.16,0-.39-.06-.68-.17-.57-.24-1.29-.96-1.56-2.12-.31-1.14-.3-2.59-.06-4.22,.05-.41,.12-.83,.22-1.26,.11-.43,.15-.89,.32-1.33,.28-.9,.62-1.82,1.02-2.78,.79-1.91,1.83-3.94,3.17-5.98,.67-1.02,1.42-2.04,2.24-3.04,.41-.5,.84-1,1.3-1.49,.42-.5,1-1.01,1.67-1.27,.67-.28,1.42-.37,2.16-.26,.37,.06,.73,.16,1.07,.32,.32,.15,.64,.3,.96,.46,1.29,.62,2.6,1.24,3.94,1.88,2.68,1.28,5.45,2.61,8.29,3.97l-.06-.02c.08,.02,.13,.04,.2,.07,.72,.33,1.21,.93,1.54,1.56,.32,.64,.53,1.32,.66,2,.26,1.36,.23,2.72,.15,4.04-.05,.66-.11,1.31-.22,1.96-.07,.65-.23,1.28-.39,1.9-.35,1.23-.81,2.41-1.34,3.53-2.14,4.47-5.61,7.69-9.02,9.57l-.09,.05-.09-.04c-4.62-2.21-8.4-4.02-11.07-5.3-1.28-.63-2.29-1.12-3.03-1.48-.32-.16-.58-.3-.79-.4-.18-.09-.27-.15-.27-.16,0-.01,.1,.02,.28,.1,.21,.09,.47,.2,.8,.35,.74,.33,1.77,.8,3.06,1.38,2.7,1.24,6.51,3,11.18,5.16h-.18c3.33-1.88,6.71-5.05,8.78-9.43,.51-1.09,.95-2.24,1.29-3.45,.16-.6,.31-1.21,.38-1.85,.1-.63,.16-1.27,.21-1.92,.08-1.29,.1-2.62-.14-3.91-.12-.64-.32-1.27-.61-1.85-.3-.57-.74-1.08-1.28-1.33l-.11-.04-.06-.02c-2.84-1.36-5.61-2.69-8.28-3.98-1.34-.64-2.65-1.28-3.94-1.9-.66-.3-1.25-.67-1.9-.75-.64-.1-1.31-.03-1.9,.22-.6,.24-1.07,.64-1.51,1.15-.45,.48-.88,.97-1.29,1.47-.82,.99-1.57,1.99-2.24,2.99-1.34,2-2.39,4-3.19,5.89-.4,.94-.75,1.86-1.04,2.73-.17,.43-.22,.88-.33,1.3-.1,.42-.18,.83-.24,1.24-.26,1.6-.3,3.02-.03,4.12,.23,1.12,.88,1.81,1.41,2.07,.54,.26,.88,.23,.87,.25Z" style="fill:#263238;"></path></g><g style="opacity:.15;"><path d="M131.45,309.42c-.29,.77-3.51,.34-7.1-1.31-3.59-1.65-6-4.02-5.49-4.73,.51-.71,3.35,.39,6.77,1.96,3.42,1.57,6.12,3.25,5.81,4.09Z" style="fill:#fff;"></path></g><g style="opacity:.15;"><path d="M124.87,283.6c.28,.28,.02,1.48-.88,3.18-.9,1.7-2.46,3.95-3.94,6.36-.73,1.22-1.36,2.37-1.87,3.44-.46,.95-.83,1.94-1.1,2.96-.43,1.68-.43,2.9-.96,3.1-.53,.2-1.11-1.12-1.29-3.25-.02-1.25,.17-2.5,.57-3.69,.48-1.41,1.11-2.76,1.89-4.03,1.37-2.18,2.98-4.21,4.8-6.04,1.42-1.54,2.38-2.33,2.78-2.04Z" style="fill:#fff;"></path></g></g><path d="M126.39,282.78s.08,.33,.14,.93c.07,.6,.09,1.48,.05,2.56-.08,2.16-.55,5.16-1.77,8.26-1.22,3.09-2.92,5.61-4.34,7.24-.71,.82-1.32,1.45-1.78,1.84-.45,.4-.71,.61-.74,.58-.06-.07,.91-.98,2.23-2.66,1.33-1.67,2.94-4.17,4.14-7.2,1.19-3.03,1.72-5.96,1.88-8.09,.17-2.13,.09-3.46,.18-3.47Z" style="fill:#263238;"></path><path d="M149.2,280.9s.09,.14,.21,.43c.12,.29,.32,.72,.5,1.29,.41,1.13,.88,2.82,1.21,4.96,.69,4.25,.48,10.4-1.77,16.62-2.25,6.23-5.84,11.13-8.7,14.33-1.43,1.61-2.68,2.83-3.57,3.63-.44,.41-.8,.71-1.04,.91-.24,.2-.38,.3-.39,.29-.03-.03,.45-.5,1.29-1.35,.84-.85,2.04-2.1,3.43-3.73,2.77-3.24,6.26-8.12,8.48-14.26,2.22-6.14,2.48-12.18,1.89-16.39-.28-2.11-.69-3.8-1.04-4.94-.34-1.15-.57-1.77-.52-1.79Z" style="fill:#263238;"></path></g><g><g><g><path d="M253.58,356.94c-2.64-1.31-5.78-1.15-8.21,.5-4.44,3.02-11.04,10.15-14.03,26.63l.1,.11s-.79,5.33,.45,7.81c0,0,28.68,.69,29.66,.65,.98-.04,4.28-8.85,4.28-8.85,5.29-13.68-5.99-23.74-12.25-26.85Z" style="fill:#e0e0e0;"></path><path d="M253.58,356.94s1.58,.62,4.03,2.42c1.2,.92,2.63,2.13,4.09,3.72,1.43,1.61,2.91,3.62,4.03,6.11,1.12,2.48,1.83,5.48,1.62,8.7-.16,3.24-1.44,6.49-2.8,9.78-.35,.83-.71,1.66-1.1,2.49-.42,.83-.76,1.67-1.43,2.47-.1,.09-.19,.22-.46,.26h-.35l-.71-.02c-.47,0-.95-.02-1.43-.03-.96-.02-1.92-.04-2.89-.06-3.89-.08-7.92-.17-12.05-.26-4.2-.09-8.31-.19-12.24-.27h-.16l-.06-.14c-.6-1.32-.68-2.71-.72-4.04-.02-1.34,.08-2.64,.25-3.92l.07,.21-.1-.11-.09-.09,.02-.12c.55-2.84,1.18-5.56,1.98-8.11,.81-2.54,1.74-4.92,2.79-7.08,2.11-4.32,4.77-7.73,7.45-10.01,1.33-1.13,2.64-2.08,3.99-2.48,1.33-.42,2.54-.44,3.49-.32,.95,.12,1.66,.37,2.11,.56,.46,.19,.67,.34,.67,.34-.02,.07-.92-.53-2.8-.74-.93-.09-2.11-.05-3.39,.38-1.29,.4-2.56,1.35-3.87,2.48-2.61,2.28-5.22,5.67-7.27,9.96-1.03,2.15-1.94,4.51-2.73,7.03-.78,2.53-1.4,5.23-1.94,8.06l-.07-.22,.1,.1,.08,.09-.02,.12c-.16,1.24-.25,2.54-.23,3.84,.03,1.29,.13,2.65,.67,3.82l-.22-.14c3.93,.08,8.03,.17,12.23,.26,4.12,.09,8.15,.18,12.04,.27,.97,.02,1.94,.04,2.89,.07,.48,.01,.95,.02,1.42,.03l.71,.02h.35s.06-.03,.12-.1c.54-.64,.95-1.53,1.34-2.33,.39-.82,.75-1.65,1.1-2.47,1.38-3.29,2.65-6.46,2.82-9.62,.22-3.14-.45-6.08-1.53-8.52-1.08-2.46-2.51-4.45-3.91-6.07-1.43-1.59-2.82-2.81-4-3.75-1.2-.91-2.18-1.55-2.86-1.96l-.78-.45c-.18-.1-.26-.16-.26-.17Z" style="fill:#263238;"></path></g><g style="opacity:.21;"><path d="M255.27,378.07c2.36-7.31,1.28-15.3-2.92-21.73l-.05-.02c-1.75-.78-3.76-.67-5.44,.26-4.3,2.38-12.13,9.14-15.43,27.6,0,0-.79,4.16,.25,7.5,.52,.18,12.62,.63,13.18,.77,7.89-4.3,7.81-5.77,10.41-14.37Z" style="fill:#263238;"></path></g><g><path d="M226.61,380.77l13.15,6.18c4.6-2.58,7.89-6.99,9.05-12.13,1.36-8.1-1.74-8.76-1.74-8.76l-11.35-5.44c-1.27-.61-2.8-.33-3.77,.69-3.21,3.39-5.62,7.47-7.04,11.95-1.9,7.77,1.69,7.51,1.69,7.51Z" style="fill:#e0e0e0;"></path><path d="M226.61,380.77s-.07,.02-.21,.01c-.14,0-.34-.05-.59-.14-.49-.21-1.12-.83-1.36-1.83-.27-.98-.26-2.24-.06-3.65,.09-.71,.24-1.46,.46-2.24,.24-.78,.54-1.57,.88-2.4,.68-1.65,1.58-3.41,2.74-5.17,.58-.88,1.23-1.76,1.94-2.63,.36-.43,.73-.87,1.12-1.29,.36-.43,.87-.88,1.45-1.11,.58-.25,1.24-.33,1.88-.23,.32,.05,.64,.14,.93,.28l.83,.4c1.11,.53,2.25,1.07,3.4,1.63,2.31,1.11,4.7,2.25,7.16,3.43l-.06-.02c.08,.02,.12,.04,.18,.06,.64,.29,1.06,.82,1.35,1.37,.28,.56,.46,1.14,.57,1.73,.22,1.18,.2,2.36,.13,3.5-.05,.57-.1,1.14-.19,1.69-.06,.56-.2,1.11-.34,1.65-.31,1.07-.7,2.09-1.16,3.05-1.85,3.87-4.85,6.65-7.81,8.27l-.09,.05-.09-.04c-3.98-1.91-7.23-3.48-9.55-4.59-1.1-.54-1.97-.97-2.61-1.29-.27-.14-.49-.26-.68-.35-.15-.08-.23-.13-.23-.14,0-.02,.32,.11,.93,.37,.65,.29,1.53,.69,2.65,1.18,2.34,1.08,5.64,2.59,9.66,4.44h-.18c2.87-1.62,5.78-4.35,7.56-8.13,.44-.94,.82-1.93,1.11-2.97,.14-.52,.27-1.04,.32-1.59,.09-.54,.14-1.09,.18-1.65,.07-1.11,.09-2.25-.12-3.36-.2-1.07-.66-2.27-1.61-2.72l-.09-.03-.06-.02c-2.45-1.18-4.84-2.33-7.15-3.44-1.15-.56-2.29-1.1-3.4-1.64-.57-.26-1.08-.57-1.63-.64-.55-.09-1.12-.02-1.62,.19-.52,.21-.91,.54-1.29,.98-.39,.42-.76,.84-1.11,1.26-.71,.85-1.35,1.71-1.93,2.58-1.16,1.73-2.06,3.45-2.76,5.08-.34,.81-.65,1.6-.9,2.35-.22,.76-.39,1.49-.49,2.18-.23,1.38-.26,2.6-.03,3.55,.2,.97,.75,1.56,1.21,1.79,.46,.22,.75,.2,.75,.22Z" style="fill:#263238;"></path></g><g style="opacity:.15;"><path d="M239.12,384.77c-.25,.66-3.03,.29-6.13-1.13-3.1-1.42-5.18-3.47-4.74-4.09,.44-.61,2.89,.34,5.84,1.69,2.96,1.35,5.28,2.81,5.02,3.53Z" style="fill:#fff;"></path></g><g style="opacity:.15;"><path d="M233.43,362.47c.24,.25,.02,1.28-.76,2.75-.77,1.47-2.12,3.41-3.4,5.49-.63,1.05-1.18,2.05-1.62,2.97-.4,.82-.71,1.68-.95,2.55-.37,1.45-.37,2.5-.83,2.68-.46,.17-.96-.96-1.12-2.8-.02-1.08,.15-2.16,.5-3.19,.41-1.22,.96-2.38,1.63-3.48,1.18-1.88,2.57-3.63,4.14-5.21,1.23-1.33,2.05-2.01,2.4-1.76Z" style="fill:#fff;"></path></g></g><path d="M234.75,361.77s.08,.28,.14,.8c.06,.52,.08,1.28,.05,2.21-.06,1.87-.47,4.46-1.52,7.14-1.06,2.67-2.53,4.85-3.76,6.26-.61,.71-1.15,1.25-1.55,1.58-.39,.34-.62,.52-.65,.49-.06-.07,.77-.86,1.91-2.31,1.14-1.45,2.53-3.6,3.56-6.21,1.02-2.62,1.48-5.14,1.63-6.97,.16-1.84,.09-2.99,.18-2.99Z" style="fill:#263238;"></path><path d="M254.44,360.15s.16,.24,.37,.72c.21,.48,.47,1.19,.73,2.08,.53,1.79,.97,4.36,.93,7.21-.04,2.86-.54,5.41-1.05,7.2-.26,.9-.5,1.61-.7,2.09-.2,.48-.32,.74-.35,.73-.08-.03,.28-1.12,.7-2.91,.42-1.79,.84-4.31,.89-7.11,.04-2.8-.34-5.33-.77-7.11-.42-1.79-.83-2.86-.74-2.9Z" style="fill:#263238;"></path></g><g><g><path d="M268.07,301.82c-13.81,1.43-39.73,19.88-17.83,46.22,21.9,26.35,51.54,4.88,54.55-13.26,2.37-14.29-11.01-35.62-36.72-32.96Z" style="fill:#0F493D;"></path><g style="opacity:.4;"><path d="M268.07,301.82c-13.81,1.43-39.73,19.88-17.83,46.22,21.9,26.35,51.54,4.88,54.55-13.26,2.37-14.29-11.01-35.62-36.72-32.96Z"></path></g></g><path d="M268.07,298.75c-13.81,1.43-39.73,19.88-17.83,46.22,21.9,26.35,51.54,4.88,54.55-13.26,2.37-14.29-11.01-35.62-36.72-32.96Z" style="fill:#0F493D;"></path><g style="opacity:.3;"><path d="M251.25,318.84c-1.5-2,1.78-10.84,13.39-14.53,11.6-3.69,20.3,1.52,19.41,3.25-.89,1.73-2.46,10.41-13.61,12.79-10.42,2.23-17.4,.87-19.19-1.52Z"></path></g><g style="opacity:.3;"><path d="M291.63,314.94c1.68-.91,11.83,9.32,6.69,19.3-5.13,9.97-11.83,16.05-16.51,14.09-4.69-1.95-6.25-12.84-2.68-20.43,3.57-7.59,10.49-11.87,12.49-12.96Z"></path></g><g style="opacity:.3;"><path d="M247.9,325.78c1.06-1.91,14.25-2.44,20.53,2.12,6.27,4.55,8.62,19.48,6.84,22.29-1.85,2.91-15.54-1.64-20.9-6.85-5.36-5.2-8.03-14.74-6.47-17.56Z"></path></g><path d="M255.49,312.25c-1.94,1.72,3.79,7.89,4.69,6.37,.89-1.52-3.12-7.75-4.69-6.37Z" style="fill:#0F493D;"></path><path d="M261.65,308c-1.11,.37,1.64,11.97,4.32,10.86,2.68-1.11-2.39-11.51-4.32-10.86Z" style="fill:#0F493D;"></path><path d="M269.1,306.05c-1.11,.43,.22,7.66,2.45,7.41,2.23-.25-1.34-7.84-2.45-7.41Z" style="fill:#0F493D;"></path><path d="M277.18,305.18c-2.67,0-2.26,10.05,0,10.28,2.26,.23,3.68-10.27,0-10.28Z" style="fill:#0F493D;"></path><path d="M262.03,328.79c-.4-1.25-10.93,.05-10.04,2.65,.89,2.6,10.89,.05,10.04-2.65Z" style="fill:#0F493D;"></path><path d="M270.25,337.84c1.27,.23,.98,10.36-1.98,9.09-2.96-1.28,.71-9.32,1.98-9.09Z" style="fill:#0F493D;"></path><path d="M266.74,333.25c1.24,.93-5.5,11.12-9.04,8.95-3.55-2.17,7.8-9.88,9.04-8.95Z" style="fill:#0F493D;"></path><path d="M285.1,326.64c.37-2.38,11.82,.08,11.04,2.38s-11.53,.77-11.04-2.38Z" style="fill:#0F493D;"></path><path d="M287.05,322.63c.67,1.46,7.99-.13,7.14-2.13-.85-2-7.81,.67-7.14,2.13Z" style="fill:#0F493D;"></path><path d="M282.38,330.53c-.51,.77,7.61,7.23,8.22,5.34,.61-1.88-6.94-7.28-8.22-5.34Z" style="fill:#0F493D;"></path><path d="M279.44,333.34c-1.8,1.08,.69,9.7,2.76,9.11,2.07-.58-.19-10.65-2.76-9.11Z" style="fill:#0F493D;"></path><path d="M266.16,300.22c.02,.08-1.32,.33-3.35,1.07-1.02,.36-2.2,.89-3.46,1.55-1.25,.68-2.58,1.51-3.88,2.51-1.29,1.01-2.42,2.09-3.38,3.13-.94,1.05-1.73,2.06-2.32,2.94-1.19,1.77-1.74,2.98-1.81,2.94-.03-.01,.1-.32,.34-.86,.12-.28,.28-.61,.49-.98,.21-.37,.43-.81,.73-1.25,.56-.92,1.33-1.95,2.27-3.03,.96-1.07,2.1-2.17,3.4-3.2,1.32-1.01,2.68-1.85,3.96-2.52,1.29-.65,2.5-1.16,3.55-1.49,.51-.19,1-.3,1.42-.42,.42-.12,.79-.2,1.09-.25,.6-.11,.94-.16,.94-.14Z" style="fill:#fff;"></path><path d="M280.02,301.15c-.04,.11-1.4-.29-3.13-.52-1.73-.24-3.15-.21-3.16-.32-.01-.1,1.44-.32,3.22-.07,1.78,.23,3.12,.82,3.08,.92Z" style="fill:#fff;"></path><path d="M281.74,318.42c.06,.09-1.79,1.26-4.34,2.17-2.54,.92-4.73,1.2-4.75,1.1-.02-.12,2.1-.57,4.6-1.48,2.51-.9,4.42-1.9,4.48-1.79Z" style="fill:#fff;"></path></g></g></g></svg>
