<svg xmlns="http://www.w3.org/2000/svg" viewBox="0 0 500 500"><g id="freepik--Table--inject-47"><path d="M48.8,254.25c128.9-.61,273.49-.62,402.39,0-128.9,.62-273.49,.61-402.39,0h0Z" style="fill:#263238;"></path></g><g id="freepik--Shadows--inject-47"><g style="opacity:.05;"><path d="M253.15,301.86c0,15.55-38.34,28.16-85.63,28.16s-85.63-12.61-85.63-28.16,38.34-28.16,85.63-28.16,85.63,12.61,85.63,28.16Z"></path><path d="M416.92,285.52c0,12.45-30.68,22.53-68.53,22.53s-68.53-10.09-68.53-22.53,30.68-22.53,68.53-22.53,68.53,10.09,68.53,22.53Z"></path><ellipse cx="399.18" cy="326.09" rx="52.15" ry="19.03"></ellipse><ellipse cx="250" cy="414.86" rx="192.75" ry="57.06"></ellipse></g></g><g id="freepik--Coffee--inject-47"><g><g><ellipse cx="168.59" cy="286.37" rx="83.92" ry="28.59" style="fill:#0F493D;"></ellipse><g style="opacity:.6;"><ellipse cx="168.59" cy="286.37" rx="83.92" ry="28.59" style="fill:#fff;"></ellipse></g><g style="opacity:.3;"><ellipse cx="168.59" cy="283.61" rx="45.84" ry="15.62" style="fill:#fff;"></ellipse></g><path d="M168.59,309.63c-42.76,0-77.55-11.14-77.55-24.84s34.79-24.84,77.55-24.84,77.55,11.14,77.55,24.84-34.79,24.84-77.55,24.84Zm0-48.42c-40.58,0-73.6,10.58-73.6,23.57s33.02,23.58,73.6,23.58,73.6-10.58,73.6-23.58-33.02-23.57-73.6-23.57Z" style="fill:#fff;"></path></g><g><g><path d="M81.01,263.11c7.12,7.29,18.68,11.58,30.6,7.64,1.69-.56,3.38-1.27,5.08-2.19,2.3-1.23,4.59-2.78,6.87-4.71l-7.71-8.31c-1.23,1.08-2.44,1.95-3.63,2.66-11.67,7.09-20.61-1.02-22.4-2.91-8.26-8.45-13.45-29.72-7.29-39.08,.4-.68,2.36-1.96,10.9-1.48,1.58,.11,3.37,.22,5.41,.46,2.26,.28,3.6,.42,4.85,.29l-.47-5.59-.11-5.63c-.55-.01-1.42-.12-2.55-.26-3.24-.35-7.62-.83-12.05-.62-6.21,.28-12.55,1.91-15.93,7.08-10.01,15.28-1.9,42.08,8.44,52.67Z" style="fill:#0F493D;"></path><g style="opacity:.1;"><path d="M81.01,263.11c7.12,7.29,18.68,11.58,30.6,7.64,1.69-.56,3.38-1.27,5.08-2.19,2.3-1.23,4.59-2.78,6.87-4.71l-7.71-8.31c-1.23,1.08-2.44,1.95-3.63,2.66-11.67,7.09-20.61-1.02-22.4-2.91-8.26-8.45-13.45-29.72-7.29-39.08,.4-.68,2.36-1.96,10.9-1.48,1.58,.11,3.37,.22,5.41,.46,2.26,.28,3.6,.42,4.85,.29l-.47-5.59-.11-5.63c-.55-.01-1.42-.12-2.55-.26-3.24-.35-7.62-.83-12.05-.62-6.21,.28-12.55,1.91-15.93,7.08-10.01,15.28-1.9,42.08,8.44,52.67Z"></path></g></g><g><path d="M240.79,189.95s-4.41,35.33-11.48,60.17c-5.48,19.26-14.26,38.07-33.36,42-7.02,1.44-16.76,2.88-27.35,2.88s-20.33-1.43-27.35-2.88c-19.1-3.93-27.89-22.74-33.37-42-7.07-24.84-11.48-60.17-11.48-60.17H240.79Z" style="fill:#0F493D;"></path><path d="M184.98,293.94c4.22-.44,7.95-1.19,10.96-1.81,19.1-3.93,27.88-22.74,33.36-42,7.08-24.84,11.49-60.17,11.49-60.17h-16.48c-.96,17.01-7.57,94.57-39.33,103.98Z" style="fill:#fff; opacity:.2;"></path><path d="M155.92,293.15c3.35,.68,12.67,1.85,12.67,1.85-10.59,0-20.33-1.43-27.35-2.88-19.1-3.93-27.88-22.98-33.37-42.23-7.07-24.84-11.48-59.94-11.48-59.94h61.13s-34.14,6.95-37.2,18.9c-4.91,19.17,10.99,79.31,35.6,84.3Z" style="opacity:.1;"></path><g><g><path d="M96.39,189.37c0,9.31,12.19,26.86,72.2,26.86s72.2-17.55,72.2-26.86c0-10.84-22.67-25.7-72.2-25.7s-72.2,14.86-72.2,25.7Z" style="fill:#0F493D;"></path><path d="M96.39,189.37c0,9.31,12.19,26.86,72.2,26.86s72.2-17.55,72.2-26.86c0-10.84-22.67-25.7-72.2-25.7s-72.2,14.86-72.2,25.7Z" style="fill:#fff; opacity:.6;"></path></g><path d="M104.64,189.03c0,7.92,10.79,22.86,63.94,22.86s63.94-14.94,63.94-22.86c0-9.23-20.08-21.87-63.94-21.87s-63.94,12.65-63.94,21.87Z" style="fill:#0F493D;"></path><g><path d="M107.29,196.13c5.65,7.5,21.75,15.76,61.3,15.76s55.63-8.27,61.28-15.76c-6.74-7.88-26.55-15.81-61.28-15.81s-54.55,7.93-61.3,15.81Z" style="fill:#0F493D;"></path><path d="M107.29,196.13c5.65,7.5,21.75,15.76,61.3,15.76s55.63-8.27,61.28-15.76c-6.74-7.88-26.55-15.81-61.28-15.81s-54.55,7.93-61.3,15.81Z" style="opacity:.7;"></path><path d="M107.3,196.13c5.65,7.5,21.75,15.77,61.29,15.77,35.41,0,52.02-6.64,59.16-13.41-5.86,5.18-19,8.82-46.21,8.82-31.19,0-43.9-7.07-48.35-13.48,4.93-6.23,18.69-12.5,42.42-13.39-2.27-.08-4.61-.12-7.01-.12-34.73,0-54.55,7.92-61.29,15.81Z" style="opacity:.1;"></path><path d="M227.79,198.45c.84-.75,1.52-1.52,2.08-2.32-.58,.77-1.27,1.55-2.08,2.32Z" style="opacity:.7;"></path></g></g></g><g><path d="M167.6,199.64s40.07-18.46,40.07-43.21-51.97-40.67-51.97-60.01,22.66-30.72,22.66-30.72c0,0-35.8,12.23-35.8,36.69s34.26,41.04,37.53,56.6c4.55,21.62-12.51,40.65-12.51,40.65Z" style="fill:#ebebeb; opacity:.6;"></path><path d="M169.58,199.64s-40.07-14.51-40.07-33.97,51.97-31.98,51.97-47.19-22.66-24.15-22.66-24.15c0,0,35.8,9.62,35.8,28.85s-39.34,32.45-42.15,48.08c-2.76,15.32,17.12,28.38,17.12,28.38Z" style="fill:#ebebeb; opacity:.6;"></path></g></g></g></g><g id="freepik--Juice--inject-47"><g><path d="M428.95,71.93l-22.49,199.31h-.02c-.4,8.1-10.78,22.54-58.05,22.54s-57.66-14.45-58.06-22.54h-.02l-22.48-199.31h161.12Z" style="fill:#ebebeb;"></path><path d="M418.7,117.23v.04l-16.62,147.29h-.02c-.37,7.49-9.97,20.85-53.67,20.85s-53.31-13.36-53.68-20.85h-.02l-16.61-147.29v-.04c.53-.22,1.08-.45,1.66-.66,.72-.28,1.45-.56,2.2-.83,14.77-5.29,36.73-9.1,66.45-9.1,1.69,0,3.36,.02,5.01,.05,1.64,.03,3.25,.06,4.85,.11,27.35,.81,47.32,5.03,60.45,10.44Z" style="fill:#0F493D;"></path><path d="M418.7,117.23v.04l-16.62,147.29h-.02c-.37,7.49-9.97,20.85-53.67,20.85s-53.31-13.36-53.68-20.85h-.02l-16.61-147.29v-.04c.53-.22,1.08-.45,1.66-.66,.72-.28,1.45-.56,2.2-.83,14.77-5.29,36.73-9.1,66.45-9.1,1.69,0,3.36,.02,5.01,.05,1.64,.03,3.25,.06,4.85,.11,27.35,.81,47.32,5.03,60.45,10.44Z" style="fill:#fff; opacity:.3;"></path><g><path d="M418.74,117.25s-.03,0-.04,.02c-13.42,5.58-35.34,9.83-70.31,9.83-20.52,0-36.53-1.47-48.98-3.8-8.77-1.64-15.78-3.72-21.33-6.03-.02,0-.03,0-.05-.02,0,0,.03,0,.04-.02,.54-.22,1.09-.45,1.67-.66,.72-.28,1.45-.56,2.2-.83,14.77-5.29,36.73-9.1,66.45-9.1,1.69,0,3.36,.02,5.01,.05,1.64,.03,3.25,.06,4.85,.11,27.35,.81,47.32,5.03,60.45,10.44,0,0,.03,0,.04,.02Z" style="fill:#0F493D;"></path><path d="M418.74,117.25s-.03,0-.04,.02c-13.42,5.58-35.34,9.83-70.31,9.83-20.52,0-36.53-1.47-48.98-3.8-8.77-1.64-15.78-3.72-21.33-6.03-.02,0-.03,0-.05-.02,0,0,.03,0,.04-.02,.54-.22,1.09-.45,1.67-.66,.72-.28,1.45-.56,2.2-.83,14.77-5.29,36.73-9.1,66.45-9.1,1.69,0,3.36,.02,5.01,.05,1.64,.03,3.25,.06,4.85,.11,27.35,.81,47.32,5.03,60.45,10.44,0,0,.03,0,.04,.02Z" style="fill:#fff; opacity:.5;"></path><path d="M358.25,106.79c-32.18,1.12-51.3,8.71-58.84,16.5-8.77-1.64-15.78-3.72-21.33-6.03-.02,0-.03,0-.05-.02,0,0,.03,0,.04-.02,.54-.22,1.09-.45,1.67-.66,.72-.28,1.45-.56,2.2-.83,14.77-5.29,36.73-9.1,66.45-9.1,1.69,0,3.36,.02,5.01,.05,1.64,.03,3.25,.06,4.85,.11Z" style="fill:#0F493D;"></path></g><g style="opacity:.4;"><path d="M315.68,290.59c-4.58-1.1-8.39-2.42-11.53-3.86l-21.45-214.8h12.87l20.11,218.66Z" style="fill:#fff;"></path><path d="M322.91,292.01c-1.26-.2-2.46-.41-3.63-.65l-20.03-219.43h4.94l18.72,220.08Z" style="fill:#fff;"></path></g><path d="M428.95,71.93l-22.49,199.31h-.02c-.4,8.1-10.78,22.54-58.05,22.54-6.37,0-12.07-.26-17.17-.74l50.5-16.11,9.84-205h37.39Z" style="opacity:.05;"></path><g><path d="M267.83,71.42c0,9.58,13.6,27.64,80.56,27.64s80.56-18.06,80.56-27.64c0-11.15-25.3-26.44-80.56-26.44s-80.56,15.29-80.56,26.44Z" style="fill:#ebebeb;"></path><g style="opacity:.5;"><path d="M267.83,71.42c0,9.58,13.6,27.64,80.56,27.64s80.56-18.06,80.56-27.64c0-11.15-25.3-26.44-80.56-26.44s-80.56,15.29-80.56,26.44Z" style="fill:#fff;"></path></g><path d="M273.91,71.04c0,8.51,12.57,24.55,74.48,24.55s74.48-16.04,74.48-24.55c0-9.91-23.39-23.49-74.48-23.49s-74.48,13.58-74.48,23.49Z" style="fill:#dbdbdb;"></path></g></g></g><g id="freepik--Fruit--inject-47"><g><path d="M458.56,274.03c0,47.75-34.88,59.98-59.39,59.98s-59.39-12.23-59.39-59.98l59.39,.17,59.39-.17Z" style="fill:#37474f;"></path><path d="M458.56,274.02c0,10.52-10.02,30.35-59.39,30.35s-59.39-19.83-59.39-30.35c0-12.25,18.65-29.04,59.39-29.04s59.39,16.79,59.39,29.04Z" style="fill:#455a64;"></path><path d="M451.77,273.64c0,8.95-8.88,25.83-52.6,25.83s-52.6-16.88-52.6-25.83c0-10.42,16.52-24.72,52.6-24.72s52.6,14.29,52.6,24.72Z" style="fill:#263238;"></path><g><g><path d="M352.18,268.74c4.14-1.75,9.78-2.93,13.89-2.75,4.23,.18,8.85-2.83,12.34-2.57,3.49,.27,11.83,5.66,14.39,7.97,1.38,1.24,2.52,3.64,3.29,6.15-.7-1.71-1.57-3.22-2.57-4.11-2.56-2.31-10.89-7.7-14.39-7.97-3.5-.27-8.11,2.75-12.34,2.57-4.12-.18-10.44-.93-14.62,.71Z" style="fill:#0F493D;"></path><g style="opacity:.2;"><path d="M352.18,268.74c4.14-1.75,9.78-2.93,13.89-2.75,4.23,.18,8.85-2.83,12.34-2.57,3.49,.27,11.83,5.66,14.39,7.97,1.38,1.24,2.52,3.64,3.29,6.15-.7-1.71-1.57-3.22-2.57-4.11-2.56-2.31-10.89-7.7-14.39-7.97-3.5-.27-8.11,2.75-12.34,2.57-4.12-.18-10.44-.93-14.62,.71Z"></path></g><path d="M397.88,285.59c0,.6-.09,1.22-.29,1.87-.18,.62-.45,1.23-.77,1.86-.24,.47-.51,.94-.8,1.4-.09,.16-.2,.32-.31,.47-.16,.24-.32,.49-.49,.72-.76,1.08-1.59,2.11-2.35,3.02-.19,.23-.37,.45-.56,.66-.25,.31-.49,.6-.73,.88-.18,.21-.34,.41-.49,.6,0,0,0,0,0,0-.09,.12-.18,.23-.26,.34-.12,.16-.22,.31-.32,.44-.05,.07-.08,.13-.12,.2,0,.03-.03,.06-.05,.08-.02,.04-.03,.06-.05,.08-.15,.31-.29,.63-.42,.98-2.27-.14-4.42-.34-6.47-.58h0c-.65-.07-1.29-.15-1.9-.23-.06,0-.11-.02-.16-.02-2.65-.36-5.11-.81-7.39-1.33-1.67-.37-3.25-.78-4.73-1.24-.28-.07-.55-.16-.82-.25h0c-3.46-1.09-6.41-2.37-8.9-3.76-.2-.1-.37-.21-.56-.32-.99-.57-1.89-1.16-2.73-1.75-.43-.3-.85-.62-1.24-.92-1.05-.84-2-1.69-2.82-2.56-.69-.73-1.31-1.46-1.85-2.19-.03-.04-.06-.07-.08-.12-.18-.07-.31-.19-.35-.38,0-.05-.02-.09-.02-.14-2.12-3.09-3.02-6.15-3.21-8.71h0c.03-.07,.06-.12,.07-.19,.15-.34,.32-.66,.49-.98,.46-.86,1.03-1.67,1.66-2.38,.18-.2,.36-.38,.55-.56s.37-.35,.57-.51c.39-.32,.8-.61,1.23-.85,.21-.11,.44-.22,.66-.33,.1-.05,.21-.09,.33-.13,.05-.02,.08-.04,.13-.05,.18-.07,.37-.14,.56-.2,.17-.07,.35-.11,.53-.15,.07-.03,.12-.05,.19-.06,.09-.03,.18-.05,.27-.07,.11-.02,.22-.05,.34-.07,.05,0,.1-.02,.16-.03,.06-.02,.11-.03,.17-.04,.16-.03,.31-.06,.47-.08,.07,0,.15-.03,.22-.04,.08,0,.17-.03,.25-.04,.31-.04,.62-.07,.92-.1,.34-.04,.66-.06,1-.07,3.28-.19,6.79,.16,9.41,.27,.54,.02,1.09,0,1.65-.07,.02,0,.05,0,.07,0,.14-.02,.27-.04,.42-.07,.3-.05,.59-.1,.89-.17h.02c.18-.04,.34-.08,.51-.12,.43-.11,.86-.23,1.29-.36,0,0,.03,0,.05,0,.2-.07,.39-.12,.59-.19h0c.45-.14,.9-.29,1.33-.43,.35-.12,.68-.23,1.02-.34,.1-.04,.2-.07,.29-.09,.24-.07,.49-.15,.74-.21,.32-.09,.63-.17,.94-.23,.05-.02,.08-.03,.13-.04h0c.39-.08,.77-.16,1.15-.2h.07c.07,0,.14-.02,.21-.02,.29-.03,.57-.04,.84-.02,.05,0,.08,0,.13,0,.42,.04,.92,.14,1.46,.31,.02,0,.03,0,.05,.02,.15,.05,.29,.09,.44,.15,.15,.05,.3,.1,.46,.17,.15,.06,.31,.12,.47,.19,.16,.07,.32,.13,.48,.21,.09,.04,.19,.07,.28,.12,.16,.07,.32,.15,.48,.22,.26,.12,.52,.25,.78,.38,.38,.2,.77,.4,1.17,.62,.32,.18,.63,.35,.96,.53,0,0,.02,.02,.04,.03,.33,.19,.66,.38,.99,.58,.33,.2,.66,.39,.98,.6,.2,.13,.4,.25,.6,.38,.09,.06,.19,.12,.28,.18h0c.45,.3,.88,.59,1.29,.87,.43,.3,.84,.59,1.21,.86,.21,.16,.42,.32,.62,.46,.55,.42,1.01,.79,1.36,1.11,.12,.11,.24,.22,.35,.35,.04,.04,.07,.08,.11,.12,.08,.09,.17,.2,.25,.31,.07,.07,.13,.16,.2,.25,.05,.07,.1,.14,.15,.21,.09,.14,.19,.28,.28,.43,.21,.34,.41,.69,.6,1.07,.07,.13,.13,.26,.19,.38,.13,.26,.25,.53,.35,.8l.03,.06s.04,.08,.06,.13l.08,.22c.08,.2,.16,.39,.23,.6l.08,.25c.27,.76,.5,1.54,.69,2.3,.14,.55,.26,1.08,.35,1.6,.11,.56,.19,1.11,.24,1.62,.04,.26,.06,.51,.07,.75,.02,.24,.03,.48,.03,.7Z" style="fill:#0F493D;"></path><path d="M397.89,285.59c0,.6-.09,1.23-.3,1.87-.18,.62-.45,1.23-.77,1.86-.23,.47-.5,.93-.8,1.4-.09,.16-.2,.32-.31,.47-.16,.24-.32,.49-.49,.72-.76,1.08-1.59,2.11-2.35,3.02-.19,.23-.37,.45-.56,.66-.25,.31-.49,.6-.73,.88-.18,.21-.34,.41-.49,.6,0,0,0,0,0,0-.09,.12-.18,.23-.26,.34-.12,.16-.22,.31-.32,.44-.05,.07-.08,.13-.12,.2,0,.03-.03,.06-.05,.08,0,.03-.02,.06-.04,.08-.15,.31-.29,.63-.42,.98h0c-2.27-.14-4.42-.34-6.47-.58h0c-.65-.07-1.29-.15-1.9-.23-.06,0-.11-.02-.16-.02-2.65-.36-5.11-.81-7.39-1.33-1.67-.37-3.25-.78-4.73-1.24-.28-.07-.55-.16-.82-.25h0c-3.46-1.09-6.41-2.37-8.9-3.76-.2-.1-.37-.21-.56-.32-.99-.57-1.89-1.16-2.73-1.75-.43-.3-.85-.62-1.24-.92-1.05-.84-2-1.69-2.82-2.56-.69-.73-1.31-1.46-1.85-2.19-.03-.04-.06-.07-.08-.12-.18-.07-.31-.19-.35-.38,0-.05-.02-.09-.02-.14-2.12-3.09-3.02-6.15-3.21-8.71h0c.03-.07,.06-.12,.07-.19,.15-.34,.32-.66,.49-.98,.46-.86,1.03-1.67,1.66-2.38,.18-.2,.36-.38,.55-.56s.37-.35,.57-.51c.39-.32,.8-.6,1.23-.85,.21-.11,.44-.22,.66-.33,.1-.05,.21-.09,.33-.13,.05-.02,.08-.04,.13-.05,.18-.07,.37-.14,.56-.2,.17-.07,.35-.11,.53-.15,.07-.03,.12-.05,.19-.06,.09-.03,.18-.05,.27-.07,.11-.02,.22-.05,.34-.07,.05,0,.1-.02,.16-.03,.06-.02,.11-.03,.17-.04,.16-.03,.31-.06,.47-.08,.07,0,.15-.03,.22-.04,.08,0,.17-.03,.25-.04,.31-.04,.62-.07,.92-.1,.34-.04,.66-.06,1-.07,3.28-.19,6.79,.16,9.41,.27,.54,.02,1.09,0,1.65-.07,.02,0,.05,0,.07,0,.14-.02,.27-.04,.42-.07,.3-.05,.59-.1,.89-.17h.02c.18-.04,.34-.08,.51-.12,.43-.11,.86-.23,1.29-.36,0,0,.03,0,.05,0,.2-.07,.39-.12,.59-.19h0c.45-.14,.9-.29,1.33-.43,.35-.12,.68-.23,1.02-.34,.1-.04,.2-.07,.29-.09,.24-.07,.49-.15,.74-.21,.32-.09,.63-.17,.94-.23,.05-.02,.08-.03,.13-.04h0c.39-.08,.77-.16,1.15-.2h.07c.07,0,.14-.02,.21-.02,.29-.03,.57-.04,.84-.02,.05,0,.08,0,.13,0,.42,.04,.92,.14,1.46,.31,.02,0,.03,0,.05,.02,.15,.05,.29,.09,.44,.15,.15,.05,.3,.1,.46,.17,.15,.06,.31,.12,.47,.19,.16,.07,.32,.13,.48,.21,.09,.04,.19,.07,.28,.12,.16,.07,.32,.15,.48,.22,.26,.12,.52,.25,.78,.38,.38,.2,.77,.4,1.17,.62,.32,.18,.63,.35,.96,.53,0,0,.02,.02,.04,.03,.33,.19,.66,.38,.99,.58,.33,.2,.66,.39,.98,.6,.2,.13,.4,.25,.6,.38,.09,.06,.19,.12,.28,.18h0c.45,.3,.88,.59,1.29,.87,.43,.3,.84,.59,1.21,.86,.21,.16,.42,.32,.62,.46,.55,.42,1.01,.79,1.36,1.11,.12,.11,.24,.22,.35,.35,.04,.04,.07,.08,.11,.12,.08,.09,.17,.2,.25,.31,.07,.07,.13,.16,.2,.25,.05,.07,.1,.14,.15,.21,.09,.14,.19,.28,.28,.43,.21,.34,.41,.69,.6,1.07,.07,.13,.13,.26,.19,.38,.13,.26,.25,.53,.35,.8l.03,.06s.04,.08,.06,.13l.08,.22c.08,.2,.16,.39,.23,.6l.08,.25c.27,.76,.5,1.54,.69,2.3,.14,.55,.26,1.08,.35,1.6,.11,.56,.19,1.11,.24,1.62,.04,.26,.06,.51,.07,.75,.02,.24,.03,.48,.04,.7Z" style="fill:#0F493D;"></path><path d="M397.89,285.59c0,.6-.09,1.23-.3,1.87-.18,.62-.45,1.23-.77,1.86-.23,.47-.5,.93-.8,1.4-.09,.16-.2,.32-.31,.47-.16,.24-.32,.49-.49,.72-.76,1.08-1.59,2.11-2.35,3.02-.19,.23-.37,.45-.56,.66-.25,.31-.49,.6-.73,.88-.18,.21-.34,.41-.49,.6,0,0,0,0,0,0-.09,.12-.18,.23-.26,.34-.12,.16-.22,.31-.32,.44-.05,.07-.08,.13-.12,.2,0,.03-.03,.06-.05,.08,0,.03-.02,.06-.04,.08-.15,.31-.29,.63-.42,.98h0c-2.27-.14-4.42-.34-6.47-.58h0c-.65-.07-1.29-.15-1.9-.23-.06,0-.11-.02-.16-.02-2.65-.36-5.11-.81-7.39-1.33-1.67-.37-3.25-.78-4.73-1.24-.28-.07-.55-.16-.82-.25h0c-3.46-1.09-6.41-2.37-8.9-3.76-.2-.1-.37-.21-.56-.32-.99-.57-1.89-1.16-2.73-1.75-.43-.3-.85-.62-1.24-.92-1.05-.84-2-1.69-2.82-2.56-.69-.73-1.31-1.46-1.85-2.19-.03-.04-.06-.07-.08-.12-.18-.07-.31-.19-.35-.38,0-.05-.02-.09-.02-.14-2.12-3.09-3.02-6.15-3.21-8.71h0c.03-.07,.06-.12,.07-.19,.15-.34,.32-.66,.49-.98,.46-.86,1.03-1.67,1.66-2.38,.18-.2,.36-.38,.55-.56s.37-.35,.57-.51c.39-.32,.8-.6,1.23-.85,.21-.11,.44-.22,.66-.33,.1-.05,.21-.09,.33-.13,.05-.02,.08-.04,.13-.05,.18-.07,.37-.14,.56-.2,.17-.07,.35-.11,.53-.15,.07-.03,.12-.05,.19-.06,.09-.03,.18-.05,.27-.07,.11-.02,.22-.05,.34-.07,.05,0,.1-.02,.16-.03,.06-.02,.11-.03,.17-.04,.16-.03,.31-.06,.47-.08,.07,0,.15-.03,.22-.04,.08,0,.17-.03,.25-.04,.31-.04,.62-.07,.92-.1,.34-.04,.66-.06,1-.07,3.28-.19,6.79,.16,9.41,.27,.54,.02,1.09,0,1.65-.07,.02,0,.05,0,.07,0,.14-.02,.27-.04,.42-.07,.3-.05,.59-.1,.89-.17h.02c.18-.04,.34-.08,.51-.12,.43-.11,.86-.23,1.29-.36,0,0,.03,0,.05,0,.2-.07,.39-.12,.59-.19h0c.45-.14,.9-.29,1.33-.43,.35-.12,.68-.23,1.02-.34,.1-.04,.2-.07,.29-.09,.24-.07,.49-.15,.74-.21,.32-.09,.63-.17,.94-.23,.05-.02,.08-.03,.13-.04h0c.39-.08,.77-.16,1.15-.2h.07c.07,0,.14-.02,.21-.02,.29-.03,.57-.04,.84-.02,.05,0,.08,0,.13,0,.42,.04,.92,.14,1.46,.31,.02,0,.03,0,.05,.02,.15,.05,.29,.09,.44,.15,.15,.05,.3,.1,.46,.17,.15,.06,.31,.12,.47,.19,.16,.07,.32,.13,.48,.21,.09,.04,.19,.07,.28,.12,.16,.07,.32,.15,.48,.22,.26,.12,.52,.25,.78,.38,.38,.2,.77,.4,1.17,.62,.32,.18,.63,.35,.96,.53,0,0,.02,.02,.04,.03,.33,.19,.66,.38,.99,.58,.33,.2,.66,.39,.98,.6,.2,.13,.4,.25,.6,.38,.09,.06,.19,.12,.28,.18h0c.45,.3,.88,.59,1.29,.87,.43,.3,.84,.59,1.21,.86,.21,.16,.42,.32,.62,.46,.55,.42,1.01,.79,1.36,1.11,.12,.11,.24,.22,.35,.35,.04,.04,.07,.08,.11,.12,.08,.09,.17,.2,.25,.31,.07,.07,.13,.16,.2,.25,.05,.07,.1,.14,.15,.21,.09,.14,.19,.28,.28,.43,.21,.34,.41,.69,.6,1.07,.07,.13,.13,.26,.19,.38,.13,.26,.25,.53,.35,.8l.03,.06s.04,.08,.06,.13l.08,.22c.08,.2,.16,.39,.23,.6l.08,.25c.27,.76,.5,1.54,.69,2.3,.14,.55,.26,1.08,.35,1.6,.11,.56,.19,1.11,.24,1.62,.04,.26,.06,.51,.07,.75,.02,.24,.03,.48,.04,.7Z" style="opacity:.1;"></path><g style="opacity:.4;"><path d="M388.4,286.23s4.84-4.99,5.81-3.43c1.06,1.71-5.74,3.71-5.81,3.43Z" style="fill:#fff;"></path><path d="M385.31,279.32s2.92-6.31,4.35-5.16c1.56,1.26-4.19,5.4-4.35,5.16Z" style="fill:#fff;"></path><path d="M379.35,277.55s.17-6.95,1.95-6.46c1.93,.54-1.7,6.62-1.95,6.46Z" style="fill:#fff;"></path><path d="M372.73,276.31s-1.13-5.98,.48-5.89c1.75,.1-.24,5.98-.48,5.89Z" style="fill:#fff;"></path><path d="M364.84,275.79s-2.4-4.91-.98-5.21c1.54-.33,1.21,5.23,.98,5.21Z" style="fill:#fff;"></path><path d="M358.37,275.9s-3.7-4.02-2.42-4.72c1.39-.75,2.65,4.67,2.42,4.72Z" style="fill:#fff;"></path><path d="M358.7,287.73s0,.05-.06,.1c-.24,.32-1.36,1.24-2.46,1.87-.43-.3-.85-.62-1.24-.92,1.32-.6,3.42-.98,3.72-1.04,.03,0,.04,0,.04,0Z" style="fill:#fff;"></path><path d="M354.93,282.05c.1,.16-3.22,2.13-4.56,1.89-.07,0-.12-.03-.18-.05-.18-.07-.31-.19-.35-.38,0-.05-.02-.09-.02-.14,.02-.66,1.45-1,2.79-1.17h0c1.19-.14,2.31-.16,2.31-.16Z" style="fill:#fff;"></path><path d="M353.83,277.76s-5.4-.85-4.83-2.18c.62-1.45,4.98,2,4.83,2.18Z" style="fill:#fff;"></path><path d="M383.5,293.23c-.32,.47-.49,1.14-.69,1.89h0c-.27,1.05-.57,2.23-1.32,3.25-.06,0-.11-.02-.16-.02-2.65-.36-5.11-.81-7.39-1.33-1.67-.37-3.25-.78-4.73-1.24-.28-.07-.55-.16-.82-.25h0c-1.66-1.72-3.18-3.45-3.87-4.22-.63-.7-2.66-2.38-4.67-4.39-.29-.28-.58-.58-.86-.88-.96-1.02-1.87-2.09-2.55-3.14-.63-.95-1.05-1.88-1.18-2.72-.08-.58-.03-1.13,.21-1.61,.47-.95,1.95-1.44,3.97-1.61h0c.21-.02,.41-.03,.63-.05,1.21-.06,2.58-.03,4.02,.07,.29,.02,.58,.05,.87,.07,2.12,.18,4.36,.49,6.43,.85,3.62,.62,6.77,1.37,8.01,1.79,.42,.14,.84,.33,1.25,.55,.42,.23,.83,.49,1.22,.79,.63,.47,1.22,1.01,1.76,1.58,.69,.74,1.29,1.53,1.73,2.28,.52,.85,.84,1.64,.91,2.25,.24,2.05-1.3,3.86-2.78,6.09Z" style="fill:#fff;"></path></g><g><path d="M380.52,288.11c-.61-2.36-7.42-4.54-11.14-5.54-3.72-1-9.58-2.81-10.16-1.59-.57,1.22,6.66,6.47,8.04,7.49,1.39,1.02,7.47,5.81,8.76,5.87,2.83,.12,5.21-3.48,4.5-6.23Z" style="fill:#0F493D;"></path><path d="M380.52,288.11c-.61-2.36-7.42-4.54-11.14-5.54-3.72-1-9.58-2.81-10.16-1.59-.57,1.22,6.66,6.47,8.04,7.49,1.39,1.02,7.47,5.81,8.76,5.87,2.83,.12,5.21-3.48,4.5-6.23Z" style="opacity:.1;"></path></g></g><g><path d="M451.77,273.64c0,4.12-1.88,9.92-8.17,14.98-1.45,1.17-3.13,2.29-5.07,3.34,0,0,0,0,0,0-2.08,1.13-4.46,2.17-7.18,3.12-.62,.21-1.25,.42-1.9,.62-.31,.09-.62,.19-.93,.28-.3,0-.55,0-.76,.02h-.39s-.07,0-.1,0c-.08,0-.21,.02-.35,.06-.06,0-.1,.03-.16,.05-.06,.02-.12,.03-.2,.05-.33,.09-.76,.21-1.24,.37-.24,.07-.49,.16-.76,.24-.35,.12-.74,.25-1.14,.38h0s-.08,.03-.13,.05h-.02c-.23,.07-.47,.16-.71,.23-.07,.03-.14,.04-.21,.05-.29,.07-.58,.12-.87,.17-.74,.14-1.49,.27-2.27,.39-.75,.12-1.5,.24-2.28,.35-2.11,.29-4.33,.52-6.69,.7-.07,0-.13-.04-.2-.07-.15-.07-.29-.12-.43-.19-.16-.07-.31-.15-.46-.22-.15-.08-.3-.16-.44-.24-.12-.07-.23-.14-.35-.21-.02,0-.03-.02-.05-.04-.33-.19-.64-.41-.94-.64-.2-.15-.4-.31-.58-.48-.18-.14-.35-.3-.51-.46-.07-.07-.14-.12-.2-.2,0,0-.55-.58-1.06-1.12-.28-.3-.56-.59-.73-.77-.07-.07-.13-.12-.19-.2l2.35-1.18,.57-.29,2.55-1.27,3.61-1.81,.4-.37,1.08-1.01,.26-.24,.21-.18,.55-.52,.85-.78,.91-.84,3.09-2.88h0l1.44-1.33,2.67-2.48,.84-.78s.03-.02,.04-.03l2.02-1.88,4.9-4.55,1.07-1,3-2.78,.46-.42,5.57-5.19c1.64,1.35,3.89,2.52,5.84,4.23,0,0,0,0,.02,0,.99,.85,1.9,1.85,2.64,3.07h0c.49,1.34,.73,2.66,.73,3.91Z" style="fill:#0F493D;"></path><path d="M451.77,273.64c0,4.12-1.88,9.92-8.17,14.98-1.45,1.17-3.13,2.29-5.07,3.34,0,0,0,0,0,0-2.08,1.13-4.46,2.17-7.18,3.12-.62,.21-1.25,.42-1.9,.62-.31,.09-.62,.19-.93,.28-.3,0-.55,0-.76,.02h-.39s-.07,0-.1,0c-.08,0-.21,.02-.35,.06-.06,0-.1,.03-.16,.05-.06,.02-.12,.03-.2,.05-.33,.09-.76,.21-1.24,.37-.24,.07-.49,.16-.76,.24-.35,.12-.74,.25-1.14,.38h0s-.08,.03-.13,.05h-.02c-.23,.07-.47,.16-.71,.23-.07,.03-.14,.04-.21,.05-.29,.07-.58,.12-.87,.17-.74,.14-1.49,.27-2.27,.39-.75,.12-1.5,.24-2.28,.35-2.11,.29-4.33,.52-6.69,.7-.07,0-.13-.04-.2-.07-.15-.07-.29-.12-.43-.19-.16-.07-.31-.15-.46-.22-.15-.08-.3-.16-.44-.24-.12-.07-.23-.14-.35-.21-.02,0-.03-.02-.05-.04-.33-.19-.64-.41-.94-.64-.2-.15-.4-.31-.58-.48-.18-.14-.35-.3-.51-.46-.07-.07-.14-.12-.2-.2,0,0-.55-.58-1.06-1.12-.28-.3-.56-.59-.73-.77-.07-.07-.13-.12-.19-.2l2.35-1.18,.57-.29,2.55-1.27,3.61-1.81,.4-.37,1.08-1.01,.26-.24,.21-.18,.55-.52,.85-.78,.91-.84,3.09-2.88h0l1.44-1.33,2.67-2.48,.84-.78s.03-.02,.04-.03l2.02-1.88,4.9-4.55,1.07-1,3-2.78,.46-.42,5.57-5.19c1.64,1.35,3.89,2.52,5.84,4.23,0,0,0,0,.02,0,.99,.85,1.9,1.85,2.64,3.07h0c.49,1.34,.73,2.66,.73,3.91Z" style="opacity:.21;"></path><path d="M450.69,274.08c0,.46-.04,.92-.09,1.4-.02,.16-.04,.32-.07,.49-.02,.16-.06,.32-.08,.49-.09,.49-.21,.97-.35,1.46-.09,.34-.2,.66-.32,1-1.22,3.56-3.57,7.15-6.18,9.7-1.45,1.17-3.13,2.29-5.07,3.34,0,0,0,0,0,0l-.59,.2c-.28,.09-.59,.18-.88,.26-.41,.12-.83,.22-1.25,.33-.72,.17-1.45,.32-2.16,.45-.69,.11-1.37,.21-2.02,.3-.05,0-.09,0-.14,.02-.66,.08-1.3,.14-1.88,.2l-.36,.03c-.17,.02-.33,.03-.49,.05-.46,.03-.86,.05-1.24,.07-.12,0-.23,0-.35,.02s-.22,0-.34,.02h-.13c-.37,0-.69,.02-.95,.03h-.49c-.08,0-.21,0-.35,.05-.03,0-.05,.02-.07,.02-.11,.02-.23,.06-.37,.1-.32,.08-.71,.21-1.15,.35-.23,.07-.49,.16-.76,.24-.12,.04-.24,.08-.36,.12-.29,.1-.6,.21-.91,.31h0l-.5,.17c-.35,.11-.7,.22-1.06,.35-.04,.02-.07,.03-.11,.04-.14,.05-.29,.09-.43,.14-.09,.03-.19,.06-.29,.09-.27,.08-.54,.17-.82,.25l-.2,.06c-.27,.08-.54,.16-.81,.23-.23,.07-.47,.14-.7,.21-.19,.06-.37,.09-.56,.15-.16,.05-.32,.08-.48,.12h0c-.18,.05-.35,.08-.52,.13-.83,.19-1.63,.35-2.37,.43-.15,.03-.3,.04-.44,.05-.42,.05-.81,.06-1.18,.05-.07,0-.15,0-.22-.02-.15,0-.3-.03-.44-.05-.15-.02-.3-.05-.44-.07-.15-.03-.3-.06-.44-.1-.04,0-.08-.02-.12-.04-.36-.09-.72-.21-1.07-.35-.14-.07-.28-.12-.43-.19-.15-.07-.31-.15-.45-.22-.15-.07-.3-.16-.44-.24-.12-.07-.24-.14-.35-.21-.34-.21-.66-.45-.99-.69-.1-.08-.21-.16-.31-.25-.09-.07-.19-.15-.27-.22-.18-.14-.35-.3-.5-.46h0c-.07-.07-.13-.12-.19-.2l-.02-.02,3.94-3.66,3.17-2.95,.41-.37,1.66-1.55,.44-.41,.84-.77,.02-.02,1.36-1.26,.39-.37,1.15-1.06,5-4.65,2.62-2.43h0l2.07-1.93,4.36-4.05,3-2.79,6.02-5.6c2.25,1.84,5.61,3.35,7.83,6.3,0,0,0,0,.02,0,1.34,1.8,2.28,4.14,2.29,7.42Z" style="fill:#0F493D;"></path><path d="M450.69,274.08c0,.46-.03,.92-.09,1.4-.02,.16-.04,.32-.07,.49-.02,.16-.06,.32-.08,.49-.09,.49-.21,.97-.35,1.46-.09,.34-.2,.66-.32,1-1.22,3.56-3.57,7.15-6.18,9.7-1.45,1.17-3.13,2.29-5.07,3.34,0,0,0,0,0,0l-.59,.2c-.28,.09-.59,.18-.88,.26-.41,.12-.83,.22-1.25,.33-.72,.17-1.45,.32-2.16,.45-.69,.11-1.37,.21-2.02,.3-.05,0-.09,0-.14,.02-.66,.08-1.3,.14-1.88,.2l-.36,.03c-.17,.02-.33,.03-.49,.05-.46,.03-.86,.05-1.24,.07-.12,0-.23,0-.35,.02s-.22,0-.34,.02h-.13c-.37,0-.69,.02-.95,.03h-.49c-.08,0-.21,0-.35,.05-.03,0-.05,.02-.07,.02-.03,0-.05,.02-.08,.03-.09,.02-.19,.05-.29,.07-.32,.08-.71,.21-1.15,.35-.23,.07-.49,.16-.76,.24-.12,.04-.24,.08-.36,.12-.29,.1-.6,.21-.91,.31h0l-.5,.17c-.35,.11-.7,.22-1.06,.35-.04,.02-.07,.03-.11,.04-.14,.05-.29,.09-.43,.14-.09,.03-.19,.06-.29,.09-.27,.08-.54,.17-.82,.25l-.2,.06c-.27,.08-.54,.16-.81,.23-.23,.07-.47,.14-.7,.21-.19,.06-.37,.09-.56,.15-.16,.05-.32,.08-.48,.12h0c-.18,.05-.35,.08-.52,.13-.83,.19-1.63,.35-2.37,.43-.15,.03-.3,.04-.44,.05-.42,.05-.81,.06-1.18,.05-.07,0-.15,0-.22-.02-.15,0-.3-.03-.44-.05-.15-.02-.3-.05-.44-.07-.15-.03-.3-.06-.44-.1-.04,0-.08-.02-.12-.04-.36-.09-.72-.21-1.07-.35-.14-.07-.28-.12-.43-.19-.15-.07-.31-.15-.45-.22-.15-.07-.3-.16-.44-.24-.12-.07-.24-.14-.35-.21-.34-.21-.66-.45-.99-.69-.1-.08-.21-.16-.31-.25-.09-.07-.19-.15-.27-.22-.18-.14-.35-.3-.5-.46h0c-.07-.07-.13-.12-.19-.2l-.02-.02,3.94-3.66,3.17-2.95,.41-.37,1.66-1.55,.44-.41,.84-.77,.02-.02,1.36-1.26,.39-.37,1.15-1.06,5-4.65,2.62-2.43h0l2.07-1.93,4.36-4.05,3-2.79,6.02-5.6c2.25,1.84,5.61,3.35,7.83,6.3,0,0,0,0,.02,0,1.34,1.8,2.28,4.14,2.29,7.42Z" style="fill:#0F493D;"></path><g style="opacity:.4;"><path d="M439.87,269.63s6.21,3.13,6.62,1.33c.44-1.96-6.64-1.62-6.62-1.33Z" style="fill:#fff;"></path><path d="M439.22,277.17s4.83,5.01,5.8,3.44c1.06-1.7-5.73-3.72-5.8-3.44Z" style="fill:#fff;"></path><path d="M434.17,280.8s2.45,6.51,3.96,5.46c1.65-1.14-3.78-5.69-3.96-5.46Z" style="fill:#fff;"></path><path d="M428.32,284.15s.89,6.02,2.39,5.4c1.62-.67-2.19-5.57-2.39-5.4Z" style="fill:#fff;"></path><path d="M421.04,287.23s-.66,5.43,.78,5.24c1.56-.2-.57-5.34-.78-5.24Z" style="fill:#fff;"></path><path d="M414.53,289.24s-1.49,5.26-.04,5.3c1.58,.05,.26-5.36,.04-5.3Z" style="fill:#fff;"></path><path d="M410.6,289.61s-2.34,4.94-3.46,4.01c-1.22-1,3.33-4.21,3.46-4.01Z" style="fill:#fff;"></path><path d="M437.85,268.6c1.3,1.88,.54,5.74-.98,7.77-1.51,2.03-8.77,5.36-10.76,6.3-2,.94-11.63,7.98-14.79,5.07-.04-.04-.09-.08-.12-.14l3.35-3.11,16.98-15.77,3-2.78c1.06,.66,2.43,1.36,3.32,2.65Z" style="fill:#fff;"></path></g><g><path d="M431.53,268.74c.81,1.13,1.19,2.52,.76,3.77-.42,1.23-6.74,5.69-8.11,6.73-1.37,1.04-8.45,6.49-9.46,5.59-.08-.08-.14-.18-.16-.32l16.98-15.77Z" style="fill:#0F493D;"></path><path d="M431.53,268.74c.81,1.13,1.19,2.52,.76,3.77-.42,1.23-6.74,5.69-8.11,6.73-1.37,1.04-8.45,6.49-9.46,5.59-.08-.08-.14-.18-.16-.32l16.98-15.77Z" style="opacity:.1;"></path></g></g><g><path d="M431.49,293.51c0,.12,0,.22,0,.34,0,.07,0,.15-.02,.22,0,.15-.02,.3-.04,.44-.02,.15-.04,.3-.07,.44,0,.05-.02,.08-.03,.13-.62,.21-1.25,.42-1.9,.62-.31,.09-.62,.19-.93,.28-.67,.2-1.36,.38-2.08,.56-.92,.24-1.88,.47-2.86,.67-.04,.02-.07,.02-.1,.03l-.05-.1v-.02h-.02l-1.18-2.32-.65-1.26-1.39-1.46-1.14-1.19-.62-.65-.29-.3-1.9-2.02-.51-.53-.6-.63-1.38-1.46-3.75-3.95h0l-.11-.13-6.39-6.74-1.01-1.05-2.82-2.97-.43-.45-2.78-2.93-2.45-2.58c1.32-1.67,2.48-3.93,4.16-5.9,1.99-2.37,4.74-4.33,9.45-4.38,.62,0,1.24,.04,1.88,.13,.17,.02,.32,.05,.49,.08,.49,.08,.98,.2,1.47,.33,.34,.09,.66,.2,1,.31,5.63,1.88,11.41,6.54,13.01,10.67,.13,.34,.25,.67,.37,1.03,.09,.28,.19,.58,.27,.88,.12,.41,.23,.83,.34,1.25,.18,.71,.34,1.44,.48,2.15,.1,.6,.21,1.18,.29,1.75,0,.09,.03,.18,.04,.26,.09,.71,.17,1.38,.23,2.02,.03,.3,.06,.58,.07,.86,0,.15,.03,.3,.03,.44,.02,.12,.03,.24,.03,.35,.02,.15,.03,.3,.04,.44,0,.24,.02,.48,.04,.68v.13c.02,.37,.03,.69,.04,.95,0,.09,0,.18,0,.25v.13s0,.07,0,.1c0,.08,.02,.21,.06,.35,.02,.05,.03,.09,.05,.16,.09,.35,.24,.84,.44,1.43,.03,.09,.07,.19,.09,.28,.05,.15,.1,.31,.16,.48,.14,.39,.29,.82,.44,1.27,0,0,0,0,0,.02,.22,.65,.47,1.37,.7,2.1,.04,.09,.07,.19,.1,.29,0,.03,.02,.05,.03,.07h0c.08,.25,.16,.49,.23,.75,.02,.06,.04,.12,.07,.19,.15,.5,.3,1.01,.45,1.5,.06,.2,.1,.38,.16,.57,.06,.21,.11,.42,.17,.63,.03,.13,.07,.25,.09,.37,.2,.83,.36,1.63,.46,2.37,.03,.15,.04,.29,.06,.44,.03,.3,.05,.58,.06,.85Z" style="fill:#0F493D;"></path><path d="M431.49,293.51c0,.12,0,.22,0,.34,0,.07,0,.15-.02,.22,0,.15-.02,.3-.04,.44-.02,.15-.04,.3-.07,.44,0,.05-.02,.08-.03,.13-.62,.21-1.25,.42-1.9,.62-.31,.09-.62,.19-.93,.28-.67,.2-1.36,.38-2.08,.56-.92,.24-1.88,.47-2.86,.67-.04,.02-.07,.02-.1,.03l-.05-.1v-.02h-.02l-1.18-2.32-.65-1.26-1.39-1.46-1.14-1.19-.62-.65-.29-.3-1.9-2.02-.51-.53-.6-.63-1.38-1.46-3.75-3.95h0l-.11-.13-6.39-6.74-1.01-1.05-2.82-2.97-.43-.45-2.78-2.93-2.45-2.58c1.32-1.67,2.48-3.93,4.16-5.9,1.99-2.37,4.74-4.33,9.45-4.38,.62,0,1.24,.04,1.88,.13,.17,.02,.32,.05,.49,.08,.49,.08,.98,.2,1.47,.33,.34,.09,.66,.2,1,.31,5.63,1.88,11.41,6.54,13.01,10.67,.13,.34,.25,.67,.37,1.03,.09,.28,.19,.58,.27,.88,.12,.41,.23,.83,.34,1.25,.18,.71,.34,1.44,.48,2.15,.1,.6,.21,1.18,.29,1.75,0,.09,.03,.18,.04,.26,.09,.71,.17,1.38,.23,2.02,.03,.3,.06,.58,.07,.86,0,.15,.03,.3,.03,.44,.02,.12,.03,.24,.03,.35,.02,.15,.03,.3,.04,.44,0,.24,.02,.48,.04,.68v.13c.02,.37,.03,.69,.04,.95,0,.09,0,.18,0,.25v.13s0,.07,0,.1c0,.08,.02,.21,.06,.35,.02,.05,.03,.09,.05,.16,.09,.35,.24,.84,.44,1.43,.03,.09,.07,.19,.09,.28,.05,.15,.1,.31,.16,.48,.14,.39,.29,.82,.44,1.27,0,0,0,0,0,.02,.22,.65,.47,1.37,.7,2.1,.04,.09,.07,.19,.1,.29,0,.03,.02,.05,.03,.07h0c.08,.25,.16,.49,.23,.75,.02,.06,.04,.12,.07,.19,.15,.5,.3,1.01,.45,1.5,.06,.2,.1,.38,.16,.57,.06,.21,.11,.42,.17,.63,.03,.13,.07,.25,.09,.37,.2,.83,.36,1.63,.46,2.37,.03,.15,.04,.29,.06,.44,.03,.3,.05,.58,.06,.85Z" style="opacity:.21;"></path><path d="M429.43,295.7c-.31,.09-.62,.19-.93,.28-.67,.2-1.36,.38-2.08,.56-.92,.24-1.88,.47-2.86,.67-.04,.02-.07,.02-.1,.03-.3,.07-.6,.13-.91,.18-.07,.03-.14,.04-.21,.05-.29,.07-.58,.12-.87,.17l-1.88-1.98-.11-.11-3.14-3.31-1.33-1.41h0l-.33-.35-.36-.39-.72-.76-.9-.93h0l-1.07-1.15-8.63-9.09-2.58-2.72s0,0,0,0l-2.82-2.97-.99-1.05s0,0,0,0l-3.24-3.4-1.08-1.14-.35-.37c.34-.42,.66-.88,.99-1.36,1.43-2.13,2.85-4.7,5.23-6.54,1.79-1.38,4.11-2.33,7.39-2.38,.62,0,1.24,.05,1.89,.14,.16,.02,.32,.05,.49,.07,.49,.09,.97,.21,1.47,.34,.33,.09,.66,.2,1,.31,5.63,1.88,11.4,6.54,13.01,10.67,.13,.34,.24,.67,.36,1.03,.1,.28,.19,.58,.28,.88,.12,.41,.23,.83,.34,1.24,.18,.72,.34,1.44,.47,2.16,.1,.57,.2,1.12,.28,1.67h0c.02,.12,.03,.23,.05,.35,.1,.71,.18,1.38,.23,2.02,.04,.3,.06,.58,.08,.85,0,.12,.02,.23,.03,.35,.02,.32,.05,.62,.06,.9,0,.24,.03,.47,.04,.68,0,.04,0,.07,0,.1v.03c0,.12,0,.24,0,.35,0,.22,.02,.42,.02,.6,0,.08,0,.18,0,.25v.23c0,.08,.02,.21,.06,.35,.06,.24,.15,.58,.28,.99,.06,.19,.12,.38,.2,.6,.08,.23,.17,.49,.26,.76,.13,.39,.28,.82,.44,1.27v.02c.23,.65,.48,1.37,.71,2.1,.04,.09,.07,.19,.09,.28l.17,.5v.02c.04,.09,.07,.2,.09,.3,.03,.07,.05,.13,.07,.2,.15,.5,.31,1.01,.45,1.5,.06,.19,.1,.37,.16,.57,.09,.33,.18,.66,.26,1,.15,.64,.29,1.28,.38,1.88,.03,.17,.06,.34,.07,.49,.03,.15,.05,.29,.06,.44,.04,.36,.06,.71,.06,1.03Z" style="fill:#0F493D;"></path><path d="M429.43,295.7c-.31,.09-.62,.19-.93,.28-.67,.2-1.36,.38-2.08,.56-.92,.24-1.88,.47-2.86,.67-.04,.02-.07,.02-.1,.03-.3,.07-.6,.13-.91,.18-.07,.03-.14,.04-.21,.05-.29,.07-.58,.12-.87,.17l-1.88-1.98-.11-.11-3.14-3.31-1.33-1.41h0l-.33-.35-.36-.39-.72-.76-.9-.93h0l-1.07-1.15-8.63-9.09-2.58-2.72s0,0,0,0l-2.82-2.97-.99-1.05s0,0,0,0l-3.24-3.4-1.08-1.14-.35-.37c.34-.42,.66-.88,.99-1.36,1.43-2.13,2.85-4.7,5.23-6.54,1.79-1.38,4.11-2.33,7.39-2.38,.62,0,1.24,.05,1.89,.14,.16,.02,.32,.05,.49,.07,.49,.09,.97,.21,1.47,.34,.33,.09,.66,.2,1,.31,5.63,1.88,11.4,6.54,13.01,10.67,.13,.34,.24,.67,.36,1.03,.1,.28,.19,.58,.28,.88,.12,.41,.23,.83,.34,1.24,.18,.72,.34,1.44,.47,2.16,.1,.57,.2,1.12,.28,1.67h0c.02,.12,.03,.23,.05,.35,.1,.71,.18,1.38,.23,2.02,.04,.3,.06,.58,.08,.85,0,.12,.02,.23,.03,.35,.02,.32,.05,.62,.06,.9,0,.24,.03,.47,.04,.68,0,.04,0,.07,0,.1v.03c0,.12,0,.24,0,.35,0,.22,.02,.42,.02,.6,0,.08,0,.18,0,.25v.23c0,.08,.02,.21,.06,.35,0,.05,.03,.09,.05,.15,.06,.22,.14,.51,.24,.84,.06,.19,.12,.38,.19,.6,.08,.23,.17,.49,.26,.76,.13,.39,.28,.82,.44,1.27v.02c.23,.65,.48,1.37,.71,2.1,.04,.09,.07,.19,.09,.28l.17,.5v.02c.04,.09,.07,.2,.09,.3,.03,.07,.05,.13,.07,.2,.15,.5,.31,1.01,.45,1.5,.06,.19,.1,.37,.16,.57,.09,.33,.18,.66,.26,1,.15,.64,.29,1.28,.38,1.88,.03,.17,.06,.34,.07,.49,.03,.15,.05,.29,.06,.44,.04,.36,.06,.71,.06,1.03Z" style="fill:#0F493D;"></path><path d="M429.43,295.7c-.31,.09-.62,.19-.93,.28-.67,.2-1.36,.38-2.08,.56-.92,.24-1.88,.47-2.86,.67-.04,.02-.07,.02-.1,.03-.3,.07-.6,.13-.91,.18-.07,.03-.14,.04-.21,.05-.29,.07-.58,.12-.87,.17l-1.88-1.98-.11-.11-3.14-3.31-1.33-1.41h0l-.33-.35-.36-.39-.72-.76-.9-.93h0l-1.07-1.15-8.63-9.09-2.58-2.72s0,0,0,0l-2.82-2.97-.99-1.05s0,0,0,0l-3.24-3.4-1.08-1.14-.35-.37c.34-.42,.66-.88,.99-1.36,1.43-2.13,2.85-4.7,5.23-6.54,1.79-1.38,4.11-2.33,7.39-2.38,.62,0,1.24,.05,1.89,.14,.16,.02,.32,.05,.49,.07,.49,.09,.97,.21,1.47,.34,.33,.09,.66,.2,1,.31,5.63,1.88,11.4,6.54,13.01,10.67,.13,.34,.24,.67,.36,1.03,.1,.28,.19,.58,.28,.88,.12,.41,.23,.83,.34,1.24,.18,.72,.34,1.44,.47,2.16,.1,.57,.2,1.12,.28,1.67h0c.02,.12,.03,.23,.05,.35,.1,.71,.18,1.38,.23,2.02,.04,.3,.06,.58,.08,.85,0,.12,.02,.23,.03,.35,.02,.32,.05,.62,.06,.9,0,.24,.03,.47,.04,.68,0,.04,0,.07,0,.1v.03c0,.12,0,.24,0,.35,0,.22,.02,.42,.02,.6,0,.08,0,.18,0,.25v.23c0,.08,.02,.21,.06,.35,0,.05,.03,.09,.05,.15,.06,.22,.14,.51,.24,.84,.06,.19,.12,.38,.19,.6,.08,.23,.17,.49,.26,.76,.13,.39,.28,.82,.44,1.27v.02c.23,.65,.48,1.37,.71,2.1,.04,.09,.07,.19,.09,.28l.17,.5v.02c.04,.09,.07,.2,.09,.3,.03,.07,.05,.13,.07,.2,.15,.5,.31,1.01,.45,1.5,.06,.19,.1,.37,.16,.57,.09,.33,.18,.66,.26,1,.15,.64,.29,1.28,.38,1.88,.03,.17,.06,.34,.07,.49,.03,.15,.05,.29,.06,.44,.04,.36,.06,.71,.06,1.03Z" style="opacity:.1;"></path><g style="opacity:.4;"><path d="M401.19,267.08s3.06-6.25,1.26-6.63c-1.96-.42-1.55,6.65-1.26,6.63Z" style="fill:#fff;"></path><path d="M408.74,267.64s4.95-4.88,3.38-5.84c-1.71-1.04-3.66,5.77-3.38,5.84Z" style="fill:#fff;"></path><path d="M412.43,272.65s6.48-2.52,5.42-4.02c-1.16-1.64-5.65,3.84-5.42,4.02Z" style="fill:#fff;"></path><path d="M415.84,278.46s6.01-.96,5.38-2.44c-.69-1.62-5.54,2.25-5.38,2.44Z" style="fill:#fff;"></path><path d="M419,285.71s5.43,.6,5.23-.84c-.21-1.56-5.33,.63-5.23,.84Z" style="fill:#fff;"></path><path d="M421.08,292.2s5.27,1.43,5.3-.02c.03-1.58-5.36-.21-5.3,.02Z" style="fill:#fff;"></path><path d="M423.55,297.21s-.07,.02-.1,.03c-.3,.07-.6,.13-.91,.18-.07,.03-.14,.04-.21,.05-.54-.7-.91-1.3-.84-1.34,0,0,.91,.42,1.88,1h0v.02h.02s.09,.06,.14,.07Z" style="fill:#fff;"></path><path d="M400.19,269.1c1.86-1.32,5.73-.6,7.78,.89,2.04,1.49,5.45,8.71,6.42,10.69,.96,1.99,8.1,11.54,5.23,14.73-.04,.04-.08,.09-.14,.12l-3.14-3.31-15.95-16.8-2.82-2.97c.65-1.07,1.33-2.45,2.62-3.35Z" style="fill:#fff;"></path></g><g><path d="M400.39,275.42c1.12-.82,2.5-1.21,3.76-.8,1.23,.41,5.77,6.68,6.82,8.04,1.06,1.36,6.58,8.38,5.69,9.4-.08,.08-.18,.14-.32,.16l-15.95-16.8Z" style="fill:#0F493D;"></path><path d="M400.39,275.42c1.12-.82,2.5-1.21,3.76-.8,1.23,.41,5.77,6.68,6.82,8.04,1.06,1.36,6.58,8.38,5.69,9.4-.08,.08-.18,.14-.32,.16l-15.95-16.8Z" style="opacity:.1;"></path></g></g><g><path d="M393.4,262.53c0,.14-.02,.29-.04,.44,0,.07,0,.15,0,.22-.05,.37-.13,.76-.23,1.17-.04,.14-.07,.28-.12,.42-.04,.11-.07,.22-.11,.35-.18,.55-.39,1.13-.63,1.74-.02,.07-.05,.12-.07,.19-.13,.32-.27,.64-.41,.95-.08,.18-.16,.35-.24,.53-.04,.08-.08,.17-.12,.26-.17,.35-.34,.72-.51,1.08,0,.03-.03,.05-.04,.07-.03,.07-.06,.12-.09,.19-.12,.26-.25,.52-.38,.77-.02,.03-.03,.07-.05,.09-.03,.07-.07,.12-.09,.18-.35,.68-.69,1.35-1.02,1.97,0,0,0,0,0,.02-.21,.39-.4,.77-.59,1.11,0,.03-.03,.05-.04,.07-.13,.25-.25,.49-.37,.71-.27,.55-.5,1.01-.64,1.34-.03,.06-.05,.1-.07,.15-.06,.14-.08,.26-.1,.34,0,.03,0,.07-.02,.1,0,.05,0,.08-.02,.13,0,.07-.03,.17-.05,.25-.04,.21-.08,.46-.14,.76,0,.06-.03,.11-.04,.18v.03s0,.07-.02,.1c-.05,.21-.09,.43-.15,.66-.07,.37-.17,.77-.27,1.21-.07,.26-.13,.54-.21,.83-.16,.62-.34,1.27-.54,1.96-.18,.58-.37,1.18-.59,1.79,0,.05-.03,.1-.05,.15-.24,.68-.5,1.37-.79,2.05-.16,.4-.34,.79-.52,1.18-.13,.28-.27,.56-.41,.83-.17,.33-.34,.64-.51,.96-.36,.63-.84,1.26-1.41,1.87-.5,.54-1.07,1.06-1.71,1.57-1.68,1.37-3.79,2.59-6.02,3.53-1.67-.37-3.25-.78-4.73-1.24-.28-.07-.55-.16-.82-.25h0c-3.46-1.09-6.41-2.37-8.9-3.76-.2-.1-.37-.21-.56-.32-.99-.57-1.89-1.16-2.73-1.75-.43-.3-.85-.62-1.24-.92-1.05-.84-2-1.69-2.82-2.56l4.3-3.31,1.38-1.07,.49-.37,3.24-2.5,1.16-.9,1.4-1.08,6.08-4.7s.02,0,.02,0l8.82-6.82,.86-.66,.93-.73,1.09-.84,1.59-1.22,2.37-3.26,1.68-2.3,1.92-2.65c.07,.07,.11,.14,.17,.22,0,0,0,0,0,.02,.45,.59,1.55,2.03,1.56,2.05,.06,.07,.1,.14,.16,.22,.13,.19,.25,.37,.36,.58,.14,.21,.26,.43,.37,.64,.2,.35,.37,.72,.52,1.09,.05,.12,.09,.24,.15,.37l.17,.48c.05,.16,.09,.32,.14,.49,.05,.15,.08,.3,.12,.45,.09,.42,.16,.83,.19,1.24,.02,.15,.03,.3,.03,.45,0,.15,0,.3,0,.45Z" style="fill:#0F493D;"></path><path d="M393.4,262.53c0,.14-.02,.29-.04,.44,0,.07,0,.15,0,.22-.05,.37-.13,.76-.23,1.17-.04,.14-.07,.28-.12,.42-.04,.11-.07,.22-.11,.35-.18,.55-.39,1.13-.63,1.74-.02,.07-.05,.12-.07,.19-.13,.32-.27,.64-.41,.95-.08,.18-.16,.35-.24,.53-.04,.08-.08,.17-.12,.26-.17,.35-.34,.72-.51,1.08,0,.03-.03,.05-.04,.07-.03,.07-.06,.12-.09,.19-.12,.26-.25,.52-.38,.77-.02,.03-.03,.07-.05,.09-.03,.07-.07,.12-.09,.18-.35,.68-.69,1.35-1.02,1.97,0,0,0,0,0,.02-.21,.39-.4,.77-.59,1.11,0,.03-.03,.05-.04,.07-.13,.25-.25,.49-.37,.71-.27,.55-.5,1.01-.64,1.34-.03,.06-.05,.1-.07,.15-.06,.14-.08,.26-.1,.34,0,.03,0,.07-.02,.1,0,.05,0,.08-.02,.13,0,.07-.03,.17-.05,.25-.04,.21-.08,.46-.14,.76,0,.06-.03,.11-.04,.18v.03s0,.07-.02,.1c-.05,.21-.09,.43-.15,.66-.07,.37-.17,.77-.27,1.21-.07,.26-.13,.54-.21,.83-.16,.62-.34,1.27-.54,1.96-.18,.58-.37,1.18-.59,1.79,0,.05-.03,.1-.05,.15-.24,.68-.5,1.37-.79,2.05-.16,.4-.34,.79-.52,1.18-.13,.28-.27,.56-.41,.83-.17,.33-.34,.64-.51,.96-.36,.63-.84,1.26-1.41,1.87-.5,.54-1.07,1.06-1.71,1.57-1.68,1.37-3.79,2.59-6.02,3.53-1.67-.37-3.25-.78-4.73-1.24-.28-.07-.55-.16-.82-.25h0c-3.46-1.09-6.41-2.37-8.9-3.76-.2-.1-.37-.21-.56-.32-.99-.57-1.89-1.16-2.73-1.75-.43-.3-.85-.62-1.24-.92-1.05-.84-2-1.69-2.82-2.56l4.3-3.31,1.38-1.07,.49-.37,3.24-2.5,1.16-.9,1.4-1.08,6.08-4.7s.02,0,.02,0l8.82-6.82,.86-.66,.93-.73,1.09-.84,1.59-1.22,2.37-3.26,1.68-2.3,1.92-2.65c.07,.07,.11,.14,.17,.22,0,0,0,0,0,.02,.45,.59,1.55,2.03,1.56,2.05,.06,.07,.1,.14,.16,.22,.13,.19,.25,.37,.36,.58,.14,.21,.26,.43,.37,.64,.2,.35,.37,.72,.52,1.09,.05,.12,.09,.24,.15,.37l.17,.48c.05,.16,.09,.32,.14,.49,.05,.15,.08,.3,.12,.45,.09,.42,.16,.83,.19,1.24,.02,.15,.03,.3,.03,.45,0,.15,0,.3,0,.45Z" style="opacity:.21;"></path><path d="M391.67,259.79c0,.15,0,.3,0,.45,0,.14,0,.29-.03,.44,0,.07,0,.15,0,.22-.05,.37-.13,.76-.24,1.17-.03,.14-.07,.28-.11,.42-.21,.72-.49,1.48-.82,2.27-.13,.32-.27,.64-.41,.95-.08,.18-.16,.35-.24,.53-.21,.47-.45,.94-.67,1.42-.03,.07-.07,.12-.09,.19-.09,.18-.19,.36-.27,.55-.04,.07-.07,.15-.11,.21-.05,.09-.09,.19-.14,.27-.12,.23-.23,.47-.35,.69-.18,.35-.35,.69-.52,1.02-.05,.08-.09,.18-.14,.26,0,0,0,0,0,.02-.22,.42-.43,.81-.63,1.18-.13,.25-.25,.49-.37,.71-.06,.11-.11,.21-.17,.32h0s0,.04-.03,.06c-.23,.47-.42,.85-.52,1.12-.06,.14-.08,.26-.1,.34,0,.04,0,.07-.02,.1,0,.05,0,.09-.02,.13,0,.07-.03,.17-.05,.25-.05,.25-.1,.56-.18,.93v.03s0,.07-.03,.1c-.04,.21-.09,.43-.14,.66-.07,.37-.17,.77-.27,1.21-.07,.26-.13,.54-.21,.83-.16,.62-.35,1.27-.54,1.96-.19,.59-.38,1.19-.59,1.81-.02,.05-.03,.08-.05,.13-.24,.68-.5,1.37-.79,2.05-.17,.4-.34,.79-.52,1.18-.13,.28-.27,.56-.41,.83-.17,.33-.34,.64-.51,.96-.21,.35-.45,.71-.72,1.06-.02,.02-.03,.04-.04,.05-.48,.61-1.05,1.19-1.7,1.77-1.24,1.1-2.75,2.13-4.41,3-1.66,.89-3.46,1.62-5.27,2.13-.28-.07-.55-.16-.82-.25h0c-3.46-1.09-6.41-2.37-8.9-3.76-.2-.1-.37-.21-.56-.32-.99-.57-1.89-1.16-2.73-1.75-.43-.3-.85-.62-1.24-.92-1.05-.84-2-1.69-2.82-2.56-.69-.73-1.31-1.46-1.85-2.19l.09-.07,2.24-1.74h0l2.62-2.03,1.32-1.02,2.86-2.21h0l.37-.29,4.09-3.16,1.09-.84,7.28-5.63h.02l4.55-3.54,1.31-1.01,3.61-2.79,7.69-5.93v.02c.07,.07,.12,.14,.18,.22,0,0,0,0,0,.02,.13,.18,.24,.36,.35,.56,.14,.21,.26,.43,.37,.64,.2,.35,.37,.72,.51,1.09,.06,.12,.1,.24,.16,.37,.06,.16,.11,.32,.16,.48,.06,.16,.1,.32,.15,.49,.04,.15,.07,.3,.12,.45,.08,.42,.16,.83,.19,1.24,.02,.15,.03,.3,.03,.45Z" style="fill:#0F493D;"></path><path d="M391.67,259.79c0,.15,0,.3,0,.45,0,.14,0,.29-.03,.44,0,.07,0,.15,0,.22-.05,.37-.13,.76-.24,1.17-.03,.14-.07,.28-.11,.42-.21,.72-.49,1.48-.82,2.27-.13,.32-.27,.64-.41,.95-.08,.18-.16,.35-.24,.53-.21,.47-.45,.94-.67,1.42-.03,.07-.07,.12-.09,.19-.09,.18-.19,.36-.27,.55-.04,.07-.07,.15-.11,.21-.05,.09-.09,.19-.14,.27-.12,.23-.23,.47-.35,.69-.18,.35-.35,.69-.52,1.02-.05,.08-.09,.18-.14,.26,0,0,0,0,0,.02-.22,.42-.43,.81-.63,1.18-.13,.25-.25,.49-.37,.71-.05,.1-.09,.2-.14,.29,0,0,0,0-.03,.03h0s0,.04-.03,.06c-.18,.39-.34,.71-.45,.97-.03,.06-.05,.1-.07,.15-.06,.14-.08,.26-.1,.34,0,.04,0,.07-.02,.1,0,.05,0,.09-.02,.13,0,.07-.03,.17-.05,.25-.05,.25-.1,.56-.18,.93v.03s0,.07-.03,.1c-.04,.21-.09,.43-.14,.66-.07,.37-.17,.77-.27,1.21-.07,.26-.13,.54-.21,.83-.16,.62-.35,1.27-.54,1.96-.19,.59-.38,1.19-.59,1.81-.02,.05-.03,.08-.05,.13-.24,.68-.5,1.37-.79,2.05-.17,.4-.34,.79-.52,1.18-.13,.28-.27,.56-.41,.83-.17,.33-.34,.64-.51,.96-.21,.35-.45,.71-.72,1.06-.02,.02-.03,.04-.04,.05-.48,.61-1.05,1.19-1.7,1.77-1.24,1.1-2.75,2.13-4.41,3-1.66,.89-3.46,1.62-5.27,2.13-.28-.07-.55-.16-.82-.25h0c-3.46-1.09-6.41-2.37-8.9-3.76-.2-.1-.37-.21-.56-.32-.99-.57-1.89-1.16-2.73-1.75-.43-.3-.85-.62-1.24-.92-1.05-.84-2-1.69-2.82-2.56-.69-.73-1.31-1.46-1.85-2.19l.09-.07,2.24-1.74h0l2.62-2.03,1.32-1.02,2.86-2.21h0l.37-.29,4.09-3.16,1.09-.84,7.28-5.63h.02l4.55-3.54,1.31-1.01,3.61-2.79,7.69-5.93v.02c.07,.07,.12,.14,.18,.22,0,0,0,0,0,.02,.13,.18,.24,.36,.35,.56,.14,.21,.26,.43,.37,.64,.2,.35,.37,.72,.51,1.09,.06,.12,.1,.24,.16,.37,.06,.16,.11,.32,.16,.48,.06,.16,.1,.32,.15,.49,.04,.15,.07,.3,.12,.45,.08,.42,.16,.83,.19,1.24,.02,.15,.03,.3,.03,.45Z" style="fill:#0F493D;"></path><g style="opacity:.4;"><path d="M359.55,291.77h-.07c-.2-.1-.37-.21-.56-.32-.48-.64-.45-2.2-.27-3.62,0-.03,0-.07,.02-.09,.07-.63,.19-1.23,.31-1.7,.14-.63,.28-1.03,.35-1.01,0,0,.25,.81,.5,1.88,.47,1.97,.92,4.79-.28,4.85Z" style="fill:#fff;"></path><path d="M366.87,285.62s4.15,5.58,2.45,6.29c-1.85,.77-2.74-6.26-2.45-6.29Z" style="fill:#fff;"></path><path d="M371.28,281.23s6.02,3.48,4.74,4.8c-1.4,1.44-5-4.66-4.74-4.8Z" style="fill:#fff;"></path><path d="M375.54,276.01s5.8,1.87,4.94,3.24c-.93,1.49-5.14-3.07-4.94-3.24Z" style="fill:#fff;"></path><path d="M379.77,269.33s5.46,.24,5.05,1.63c-.45,1.51-5.17-1.44-5.05-1.63Z" style="fill:#fff;"></path><path d="M382.81,263.23s5.43-.61,5.24,.83c-.21,1.56-5.33-.62-5.24-.83Z" style="fill:#fff;"></path><path d="M383.83,259.43s5.25-1.5,4.53-2.76c-.79-1.36-4.7,2.6-4.53,2.76Z" style="fill:#fff;"></path><path d="M358.64,282.87c1.64,1.59,5.58,1.47,7.83,.31,2.25-1.16,6.72-7.77,7.98-9.58,1.26-1.82,9.77-10.17,7.42-13.76-.04-.05-.07-.1-.12-.14l-3.61,2.79-18.33,14.17-3.24,2.5c.47,1.16,.94,2.62,2.07,3.71Z" style="fill:#fff;"></path></g><g><path d="M359.81,276.66c.98,.99,2.29,1.58,3.59,1.37,1.28-.21,6.72-5.72,7.97-6.91,1.25-1.18,7.78-7.28,7.06-8.42-.06-.1-.15-.17-.29-.21l-18.33,14.17Z" style="fill:#0F493D;"></path><path d="M359.81,276.66c.98,.99,2.29,1.58,3.59,1.37,1.28-.21,6.72-5.72,7.97-6.91,1.25-1.18,7.78-7.28,7.06-8.42-.06-.1-.15-.17-.29-.21l-18.33,14.17Z" style="opacity:.1;"></path></g></g><g><path d="M391.37,268.81c-.39,.19-.77,.38-1.14,.58h0c-.21,.12-.4,.23-.6,.35-.21,.12-.4,.25-.59,.39-.16,.1-.31,.21-.46,.33s-.28,.22-.42,.35c0,0-.02,.02-.03,.02-.13,.12-.25,.24-.36,.35-.12,.13-.24,.26-.35,.39-.06,.07-.1,.12-.16,.2-.02,.03-.06,.07-.08,.1-.07,.11-.17,.22-.26,.35-.06,.08-.11,.17-.18,.25-.12,.18-.26,.37-.4,.58,0,0,0,0-.03,.03h0s0,.04-.03,.06c-.28,.42-.59,.89-.9,1.38-.2,.31-.39,.63-.59,.96-1.03,1.72-2.09,3.69-2.94,5.56-.06,.11-.1,.22-.16,.34-.16,.35-.31,.71-.45,1.05-.14,.35-.26,.68-.38,1-.11,.33-.21,.64-.31,.94-.13,.46-.23,.88-.3,1.26-.02,.13-.04,.25-.05,.37,0,.12-.02,.23-.02,.35,0,.42,.03,.86,.11,1.31h0c0,.07,0,.13,.03,.19,.06,.35,.14,.68,.24,1.04,0,.06,.03,.1,.05,.16v.02h0s0,.03,0,.04c.07,.22,.14,.45,.21,.67,.04,.12,.08,.25,.13,.37,.1,.29,.21,.58,.33,.88,.11,.3,.23,.61,.35,.91,.23,.62,.49,1.25,.71,1.88,.16,.44,.31,.88,.43,1.32h0c.05,.15,.08,.29,.12,.43,.04,.14,.08,.29,.11,.43,.04,.14,.07,.29,.1,.43,.13,.57,.21,1.14,.24,1.71,0,.14,.02,.28,.02,.42v.07h0c-.65-.07-1.29-.15-1.9-.23-.06,0-.11-.02-.16-.02-.19-1.63-.77-3.27-1.37-4.86-.15-.37-.29-.74-.43-1.1-.23-.6-.45-1.18-.63-1.74-.42-1.23-.71-2.4-.68-3.48,0-.35,.07-.76,.17-1.2h0c.35-1.58,1.22-3.65,2.27-5.72,1.6-3.19,3.6-6.39,4.79-7.85,.52-.64,1.29-1.26,2.2-1.81,.35-.23,.73-.44,1.12-.63,.44-.22,.9-.44,1.36-.63,.41-.19,.83-.35,1.25-.5Z" style="fill:#0F493D;"></path><g style="opacity:.2;"><path d="M391.37,268.81c-.39,.19-.77,.38-1.14,.58h0c-.21,.12-.4,.23-.6,.35-.21,.12-.4,.25-.59,.39-.16,.1-.31,.21-.46,.33s-.28,.22-.42,.35c0,0-.02,.02-.03,.02-.13,.12-.25,.24-.36,.35-.12,.13-.24,.26-.35,.39-.06,.07-.1,.12-.16,.2-.02,.03-.06,.07-.08,.1-.07,.11-.17,.22-.26,.35-.06,.08-.11,.17-.18,.25-.12,.18-.26,.37-.4,.58,0,0,0,0-.03,.03h0s0,.04-.03,.06c-.28,.42-.59,.89-.9,1.38-.2,.31-.39,.63-.59,.96-1.03,1.72-2.09,3.69-2.94,5.56-.06,.11-.1,.22-.16,.34-.16,.35-.31,.71-.45,1.05-.14,.35-.26,.68-.38,1-.11,.33-.21,.64-.31,.94-.13,.46-.23,.88-.3,1.26-.02,.13-.04,.25-.05,.37,0,.12-.02,.23-.02,.35,0,.42,.03,.86,.11,1.31h0c0,.07,0,.13,.03,.19,.06,.35,.14,.68,.24,1.04,0,.06,.03,.1,.05,.16v.02h0s0,.03,0,.04c.07,.22,.14,.45,.21,.67,.04,.12,.08,.25,.13,.37,.1,.29,.21,.58,.33,.88,.11,.3,.23,.61,.35,.91,.23,.62,.49,1.25,.71,1.88,.16,.44,.31,.88,.43,1.32h0c.05,.15,.08,.29,.12,.43,.04,.14,.08,.29,.11,.43,.04,.14,.07,.29,.1,.43,.13,.57,.21,1.14,.24,1.71,0,.14,.02,.28,.02,.42v.07h0c-.65-.07-1.29-.15-1.9-.23-.06,0-.11-.02-.16-.02-.19-1.63-.77-3.27-1.37-4.86-.15-.37-.29-.74-.43-1.1-.23-.6-.45-1.18-.63-1.74-.42-1.23-.71-2.4-.68-3.48,0-.35,.07-.76,.17-1.2h0c.35-1.58,1.22-3.65,2.27-5.72,1.6-3.19,3.6-6.39,4.79-7.85,.52-.64,1.29-1.26,2.2-1.81,.35-.23,.73-.44,1.12-.63,.44-.22,.9-.44,1.36-.63,.41-.19,.83-.35,1.25-.5Z"></path></g><path d="M427.83,288.28v.02c0,1.81-.23,3.71-.66,5.57-.18,.77-.38,1.53-.63,2.27-.04,.13-.08,.27-.13,.4-.92,.24-1.88,.47-2.86,.67-.04,.02-.07,.02-.1,.03-.3,.07-.6,.13-.91,.18-.07,.03-.14,.04-.21,.05-.29,.07-.58,.12-.87,.17-.74,.14-1.49,.27-2.27,.39-.75,.12-1.5,.24-2.28,.35-2.11,.29-4.33,.52-6.69,.7-1,.07-2.03,.15-3.08,.2-1.6,.08-3.26,.15-4.97,.18-.99,.02-1.99,.03-3.01,.03-.77,0-1.54,0-2.3-.02-1.49-.02-2.94-.06-4.35-.12-.91-.04-1.78-.08-2.65-.14h0c-2.27-.14-4.42-.34-6.47-.58h0v-.07c0-.14,0-.28,0-.42-.04-.57-.12-1.14-.24-1.71-.03-.14-.07-.29-.1-.43-.03-.14-.07-.29-.11-.43-.04-.14-.07-.28-.12-.42h0c-.12-.45-.27-.89-.43-1.33-.22-.63-.48-1.27-.71-1.88-.23-.62-.47-1.21-.67-1.79-.05-.13-.09-.25-.13-.37-.07-.22-.15-.45-.21-.67,0,0,0-.02,0-.03h0v-.03c-.02-.06-.04-.1-.05-.16-.1-.35-.19-.69-.24-1.04-.02-.07-.04-.13-.04-.2-.08-.44-.12-.88-.11-1.3,0-.11,0-.22,.03-.35,0-.12,.03-.24,.05-.37,.07-.38,.17-.8,.3-1.26,.09-.3,.2-.62,.31-.94,.12-.32,.24-.65,.38-1,.14-.35,.29-.7,.45-1.05,.06-.11,.1-.22,.16-.34,.85-1.87,1.91-3.84,2.94-5.56,.2-.33,.39-.65,.59-.96,.31-.49,.62-.96,.9-1.38,.02-.02,.03-.04,.03-.05h0s.03-.03,.03-.04c.14-.21,.28-.4,.4-.58,.07-.08,.12-.17,.18-.25,.09-.12,.19-.23,.26-.35,.03-.04,.07-.07,.08-.1,.05-.07,.1-.14,.15-.21,.11-.13,.22-.26,.35-.38,.11-.11,.23-.23,.36-.35,0,0,.02,0,.03-.02,.14-.12,.27-.23,.42-.35,.14-.11,.29-.22,.45-.34,.19-.13,.39-.26,.6-.38,.2-.12,.39-.23,.6-.35h0c.36-.21,.75-.4,1.14-.59,0,0,.03,0,.04-.02,.21-.09,.42-.2,.63-.28,.14-.07,.28-.12,.42-.18,.29-.12,.58-.23,.88-.34,.05-.03,.09-.05,.15-.06,.27-.1,.55-.2,.83-.28,.71-.24,1.42-.44,2.1-.6,.52-.12,1.03-.22,1.5-.3,.24-.05,.49-.08,.73-.11,.25-.03,.49-.05,.71-.07,.55-.04,1.12,.02,1.72,.16,.08,.02,.17,.04,.25,.07,1.42,.36,2.92,1.15,4.36,2.05h0s0,0,.02,0c0,0,0,0,0,0,1.22,.77,2.4,1.62,3.42,2.41,.05,.04,.08,.07,.13,.1,1.36,1.02,2.46,1.88,3.07,2.14,.82,.35,1.74,.62,2.72,.87,.33,.08,.66,.17,1,.25,.17,.05,.34,.09,.5,.13,.69,.18,1.38,.36,2.08,.59,.35,.11,.7,.23,1.04,.36,.04,0,.07,.02,.09,.04,.49,.19,.96,.4,1.44,.63,.43,.21,.85,.46,1.25,.74,.74,.49,1.44,1.08,2.09,1.8,.03,.04,.06,.07,.08,.1,.34,.39,.66,.81,.95,1.28,.41,.62,.77,1.3,1.09,2.07,.14,.31,.26,.63,.38,.96,.5,1.46,.75,3.14,.76,4.92Z" style="fill:#0F493D;"></path><path d="M427.83,288.28v.02c0,1.81-.23,3.71-.66,5.57-.18,.77-.38,1.53-.63,2.27-.04,.13-.08,.27-.13,.4-.92,.24-1.88,.47-2.86,.67-.04,.02-.07,.02-.1,.03-.3,.07-.6,.13-.91,.18-.07,.03-.14,.04-.21,.05-.29,.07-.58,.12-.87,.17-.74,.14-1.49,.27-2.27,.39-.75,.12-1.5,.24-2.28,.35-2.11,.29-4.33,.52-6.69,.7-1,.07-2.03,.15-3.08,.2-1.6,.08-3.26,.15-4.97,.18-.99,.02-1.99,.03-3.01,.03-.77,0-1.54,0-2.3-.02-1.49-.02-2.94-.06-4.35-.12-.91-.04-1.78-.08-2.65-.14h0c-2.27-.14-4.42-.34-6.47-.58v-.07c0-.14,0-.28-.02-.42-.03-.57-.11-1.14-.24-1.71-.03-.14-.07-.29-.1-.43-.03-.14-.07-.29-.11-.43-.04-.14-.07-.28-.12-.42h0c-.12-.45-.27-.89-.43-1.33-.22-.63-.48-1.27-.71-1.88-.23-.62-.47-1.21-.67-1.79-.05-.13-.09-.25-.13-.37-.07-.22-.15-.45-.21-.67,0,0,0-.02,0-.03h0v-.03c-.02-.06-.04-.1-.05-.16-.1-.35-.19-.69-.24-1.04-.02-.06-.03-.11-.03-.18h0c-.08-.46-.12-.9-.11-1.32,0-.11,0-.22,.02-.35,0-.12,.03-.24,.05-.37,.07-.38,.17-.8,.3-1.26,.09-.3,.2-.62,.31-.94,.12-.32,.24-.65,.38-1,.14-.35,.29-.7,.45-1.05,.06-.11,.1-.22,.16-.34,.85-1.87,1.91-3.84,2.94-5.56,.2-.33,.39-.65,.59-.96,.31-.49,.62-.96,.9-1.38,.02-.02,.03-.04,.03-.05h0s.03-.03,.03-.04c.14-.21,.28-.4,.4-.58,.07-.08,.12-.17,.18-.25,.09-.12,.19-.23,.26-.35,.03-.04,.07-.07,.08-.1,.07-.07,.11-.13,.16-.2,.1-.13,.22-.26,.35-.39,.11-.11,.23-.23,.36-.35,0,0,.02,0,.03-.02,.14-.12,.27-.23,.42-.35s.3-.22,.46-.33c.19-.14,.38-.27,.59-.39,.2-.12,.39-.23,.6-.35h0c.36-.21,.75-.4,1.14-.59,0,0,.03,0,.04-.02,.21-.09,.42-.2,.63-.28,.14-.07,.28-.12,.42-.18,.29-.12,.58-.23,.88-.34,.05-.03,.09-.05,.15-.06,.27-.1,.55-.2,.83-.28,.71-.24,1.42-.44,2.1-.6,.52-.12,1.03-.22,1.5-.3,.24-.05,.49-.08,.73-.11,.25-.03,.49-.05,.71-.07,.55-.04,1.12,.02,1.72,.16,.08,.02,.17,.04,.25,.07,1.42,.36,2.92,1.15,4.36,2.05h0s0,0,.02,0c0,0,0,0,0,0,1.22,.77,2.4,1.62,3.42,2.41,.03,.03,.07,.05,.1,.07,0,0,0,.02,.02,.02t0,.02c1.36,1.02,2.46,1.88,3.07,2.14,.82,.35,1.74,.62,2.72,.87,.33,.08,.66,.17,1,.25,.17,.05,.34,.09,.5,.13,.69,.18,1.38,.36,2.08,.59,.35,.11,.7,.23,1.04,.36,.04,0,.07,.02,.09,.04,.49,.19,.96,.4,1.44,.63,.43,.21,.85,.46,1.25,.74,.74,.49,1.44,1.08,2.09,1.8,.03,.04,.06,.07,.08,.1,.34,.39,.66,.81,.95,1.28,.41,.62,.77,1.3,1.09,2.07,.14,.31,.26,.63,.38,.96,.5,1.46,.75,3.14,.76,4.92Z" style="fill:#0F493D;"></path><g style="opacity:.4;"><path d="M400.48,276.04s-5.23-4.58-3.72-5.63c1.65-1.14,4,5.54,3.72,5.63Z" style="fill:#fff;"></path><path d="M393.74,279.47s-6.45-2.59-5.37-4.08c1.18-1.62,5.6,3.91,5.37,4.08Z" style="fill:#fff;"></path><path d="M392.27,285.51s-6.95,.18-6.55-1.62c.44-1.96,6.69,1.36,6.55,1.62Z" style="fill:#fff;"></path><path d="M391.37,292.19s-5.92,1.44-5.9-.18c.01-1.76,5.98-.07,5.9,.18Z" style="fill:#fff;"></path><path d="M415.4,282.76s6.9,.89,6.68-.94c-.24-1.99-6.8,.67-6.68,.94Z" style="fill:#fff;"></path><path d="M417.3,290.09s6.22,3.12,6.62,1.32c.44-1.96-6.64-1.61-6.62-1.32Z" style="fill:#fff;"></path><path d="M419.2,298.02c-.75,.12-1.5,.24-2.28,.35-.55-.43-1.12-.96-1.61-1.46h0c-.89-.91-1.57-1.71-1.57-1.71,.06-.14,1.77,.43,3.31,1.23,.91,.49,1.76,1.05,2.16,1.6Z" style="fill:#fff;"></path><path d="M415.15,287.9c0,.11,0,.21,0,.32h0c0,.06,0,.1,0,.15-.04,.61-.14,1.18-.29,1.69h0s0,.05-.02,.07c-.04,.11-.08,.23-.14,.35-.15,.36-.39,.77-.69,1.21-1.15,1.7-3.18,3.88-4.86,5.59-.27,.29-.54,.57-.8,.82l-1.17,1.17c-1.6,.08-3.26,.15-4.97,.18-.99,.02-1.99,.03-3.01,.03-.77,0-1.54,0-2.3-.02-1.49-.02-2.94-.06-4.35-.12,.07-1.46,.19-2.95,.34-4.4,.44-4.24,1.15-8.13,1.55-9.55,.46-1.61,1.54-3.18,2.77-4.45,1.48-1.53,3.2-2.62,4.31-2.81,.5-.08,1-.07,1.49,.05,1.51,.32,3,1.39,4.74,2.43,.53,.31,1.28,.45,2.12,.63,0,0,.02,0,.03,0,1.06,.22,2.27,.5,3.29,1.25,.61,.45,1.08,1.17,1.41,2.02,.04,.09,.07,.19,.1,.29,.21,.62,.35,1.28,.42,1.96,.04,.39,.05,.77,.05,1.16Z" style="fill:#fff;"></path></g><g><path d="M409.21,287.99c0,.43-.49,1.41-1.18,2.58-.47,.78-1.02,1.65-1.57,2.5-.48,.73-.95,1.43-1.38,2.05,0,.03-.03,.06-.06,.08-.54,.81-1,1.47-1.23,1.83-.27,.41-.88,1.33-1.61,2.41-.99,.02-1.99,.03-3.01,.03-.77,0-1.54,0-2.3-.02,.3-1.46,.65-2.96,.91-4.22,.81-3.78,2.65-10.68,4.96-11.42,2.72-.85,6.43,1.34,6.46,4.18Z" style="fill:#0F493D;"></path><path d="M409.21,287.99c0,.43-.49,1.41-1.18,2.58-.47,.78-1.02,1.65-1.57,2.5-.48,.73-.95,1.43-1.38,2.05,0,.03-.03,.06-.06,.08-.54,.81-1,1.47-1.23,1.83-.27,.41-.88,1.33-1.61,2.41-.99,.02-1.99,.03-3.01,.03-.77,0-1.54,0-2.3-.02,.3-1.46,.65-2.96,.91-4.22,.81-3.78,2.65-10.68,4.96-11.42,2.72-.85,6.43,1.34,6.46,4.18Z" style="opacity:.1;"></path></g></g></g></g></g><g id="freepik--Plate--inject-47"><g><g><g><ellipse cx="257.9" cy="387.59" rx="194.85" ry="66.38" style="fill:#fff;"></ellipse><path d="M452.75,387.59c-.42,18.61-20.3,30.65-35.17,38.11-32.92,15.52-69.35,21.97-105.3,25.83-63.06,5.67-128.03,3.17-188.87-15.49-21.29-7.05-60.12-22.26-60.86-48.46,.7-26.2,39.69-41.46,60.86-48.46,60.85-18.66,125.81-21.16,188.87-15.49,35.96,3.86,72.38,10.31,105.3,25.83,14.93,7.5,34.71,19.47,35.17,38.11h0Zm0,0c-.47-18.6-20.35-30.58-35.22-38-32.93-15.44-69.35-21.8-105.28-25.57-62.99-5.52-127.87-2.88-188.59,15.89-20.82,6.93-59.42,22.13-60.11,47.68,.44,18.38,20.18,30.27,34.89,37.66,16.32,7.9,33.81,13.12,51.44,17.2,35.39,8.01,71.77,11.15,108.02,11.26,53.13-.45,110.88-5.79,159.63-28.13,14.94-7.46,34.72-19.37,35.22-38h0Z" style="fill:#263238;"></path></g><path d="M257.9,441.6c-99.29,0-180.06-25.87-180.06-57.68s80.78-57.68,180.06-57.68,180.06,25.87,180.06,57.68-80.78,57.68-180.06,57.68Zm0-112.41c-94.23,0-170.89,24.56-170.89,54.74s76.66,54.74,170.89,54.74,170.88-24.56,170.88-54.74-76.66-54.74-170.88-54.74Z" style="fill:#c7c7c7;"></path></g><g><g><g><path d="M292.53,318.7c37.78,.82,45.21,8.46,60.28,11.87,15.07,3.41,19.11,4.22,35.86,10.18,16.75,5.95,22.33,19.2,17.38,24.02-10.72,10.44-46.12,13.78-59.11,17.25-12.99,3.47-41.43,5.21-67.48-.42-26.05-5.63-47.11-12.42-58.24-20.63-14.34-10.58,3.57-17.34,7.11-23.64s2.33-19.96,64.2-18.62Z" style="fill:#0F493D;"></path><g style="opacity:.9;"><g><path d="M292.53,318.7c37.78,.82,45.21,8.46,60.28,11.87,15.07,3.41,19.11,4.22,35.86,10.18,16.75,5.95,22.33,19.2,17.38,24.02-10.72,10.44-46.12,13.78-59.11,17.25-12.99,3.47-41.43,5.21-67.48-.42-26.05-5.63-47.11-12.42-58.24-20.63-14.34-10.58,3.57-17.34,7.11-23.64s2.33-19.96,64.2-18.62Z" style="fill:#fff;"></path><path d="M292.53,318.7c13.31,.3,26.74,1.41,39.56,5.21,6.41,1.85,12.55,4.56,19.02,6.19,6.48,1.58,13.03,2.87,19.46,4.68,6.43,1.8,12.74,3.97,19.01,6.24,8.03,3.11,16.58,9,18.21,18.01,2.9,13.62-42.87,19.1-52.72,21.34-4.39,.75-8.66,2-13.03,2.84-21.93,3.65-44.64,2.59-66.28-2.35-18.24-4.42-37.18-8.7-53.18-18.9-3.47-2.33-7.87-5.92-6.67-10.61,1.79-5.45,7.4-8.21,11.05-12.26,1.6-1.59,2.2-3.82,3.2-5.79,1.45-3.01,3.86-5.55,6.74-7.21,3.73-2.31,8.21-3.62,12.47-4.59,.81-.23,2.44-.54,3.27-.66,13.16-2.33,26.58-2.3,39.9-2.15h0Zm0,0c-13.32-.13-26.74-.15-39.89,2.2-.78,.11-2.49,.45-3.27,.66-4.24,.98-8.73,2.27-12.44,4.59-2.87,1.66-5.26,4.19-6.7,7.19-1,1.96-1.6,4.21-3.21,5.82-3.03,3.25-6.92,5.65-9.55,9.27-4.22,5.6,.41,10.36,5.17,13.44,16,10.16,34.93,14.42,53.16,18.81,17.32,4.03,35.26,5.22,52.98,3.93,4.43-.33,8.85-.82,13.22-1.63,4.36-.84,8.65-2.09,13.03-2.83,8.74-1.63,17.52-3.08,26.17-5.13,6.46-1.57,12.95-3.33,18.92-6.32,2.77-1.58,6.21-3.18,7.3-6.38,.91-3.25-.43-6.66-2.17-9.4-4.91-7.68-13.63-11.36-22-14.01-10.46-3.82-21.33-6.24-32.16-8.73-6.47-1.65-12.61-4.36-19.01-6.22-12.81-3.82-26.24-4.94-39.55-5.26h0Z" style="fill:#263238;"></path></g></g></g><path d="M234.58,338.76c3.59-7.34,10.73-12.12,18.65-13.58,3.89-.73,7.81-.69,11.64-1.04,3.84-.25,7.65-.74,11.49-1.2,9.56-1.2,19.28-1.21,28.84-.08,5.75,.7,11.44,1.66,17.03,3.31l-.05,.4c-11.52,.55-22.93,.14-34.35-.69-7.51-.3-15.35-1.56-22.82-.46-3.77,.58-7.41,1.81-10.94,2.98-3.45,1.2-7,2.25-10.21,3.99-3.4,1.66-5.99,4.24-8.99,6.63l-.29-.27h0Z" style="fill:#fff;"></path><path d="M274.95,380.59c-23.97-5.44-43.27-11.9-53.73-19.63-14.34-10.58,3.56-17.34,7.11-23.64,.74-1.31,1-2.42,1.93-4.17,1.54,.41,4.37,1.44,5.41,1.84,11.46,4.43,11.11,5.65,17.94,8.65,6.85,3,29.82,6.87,35.85,13.2,3.93,4.12-3.02,15.17-14.52,23.75Z" style="opacity:.05;"></path><g><path d="M325.6,315.5c-25.52,.57-39.99,19.28-39.81,27.32,.18,8.04,20.5,16.27,40.77,15.82,20.27-.45,38.76-8.96,38.54-18.72-.22-9.77-14.56-24.97-39.5-24.42Z" style="fill:#0F493D;"></path><path d="M365.09,339.92c.22,9.74-18.26,18.28-38.53,18.73-20.27,.45-40.6-7.78-40.78-15.83-.01-.48,.04-1.04,.14-1.59,2.05,6.73,19.13,13.23,36.18,12.85,18.08-.4,34.58-7.99,34.38-16.7-.19-8.4-12.08-21.3-32.84-21.78,.65-.08,1.3-.1,1.95-.11,24.94-.55,39.27,14.65,39.48,24.43Z" style="opacity:.05;"></path><g style="opacity:.4;"><path d="M293.47,333.6c-.7-2.72,12.87-12.55,19.6-12.7,2.46-.05-2.76,11.37-5.74,13.06-2.98,1.69-12.89,3.47-13.87-.36Z" style="fill:#fff;"></path><path d="M316,319.78c-.2-2.2,9.97-2.52,10.33-1,.36,1.52-3.3,4.48-5.08,4.42-1.78-.06-5.02-.92-5.25-3.43Z" style="fill:#fff;"></path></g></g></g><g><g><path d="M84.01,366.58c11.24-13.61,34.56-16.65,46.86-20.87,12.3-4.23,9.89-8.96,29.04-12.81,19.16-3.86,59.47-.4,69.88,3.57,10.41,3.96,11.31,6.32,17.54,9.04,6.23,2.72,21.12,5.75,26.77,11.9,5.65,6.14-2.66,29.37-23.26,36.78-20.6,7.41-71.16,10.99-79.81,11-30.44,0-36.01-4.76-51.13-8.52-15.12-3.76-54.3-7.78-35.89-30.07Z" style="fill:#0F493D;"></path><g style="opacity:.9;"><g><path d="M84.01,366.58c11.24-13.61,34.56-16.65,46.86-20.87,12.3-4.23,9.89-8.96,29.04-12.81,19.16-3.86,59.47-.4,69.88,3.57,10.41,3.96,11.31,6.32,17.54,9.04,6.23,2.72,21.12,5.75,26.77,11.9,5.65,6.14-2.66,29.37-23.26,36.78-20.6,7.41-71.16,10.99-79.81,11-30.44,0-36.01-4.76-51.13-8.52-15.12-3.76-54.3-7.78-35.89-30.07Z" style="fill:#fff;"></path><path d="M84.01,366.58c9.23-10.77,23.71-14.4,36.85-18.01,6.67-1.79,13.58-3.45,19.25-7.59,13.28-9.88,30.88-9.82,46.74-9.76,9.26,.21,18.52,.84,27.7,2.05,4.58,.63,9.19,1.29,13.64,2.6,4.41,1.43,8.66,3.39,12.57,5.88,1.96,1.24,3.91,2.48,6.03,3.41,8.46,3.63,18.05,4.99,25.6,10.57,.23,.18,.47,.35,.69,.54l.63,.61c1.35,1.16,1.97,2.97,2.15,4.69,.42,4.68-1.18,9.27-3.23,13.4-9.87,19.14-27.68,21.82-46.97,25.03-13.73,2.15-27.56,3.55-41.42,4.58-13.83,1.05-27.87,1.01-41.54-1.55-9.12-1.75-17.7-5.48-26.81-7.24-14.15-3.1-49.53-8.16-31.9-29.2h0Zm0,0c-17.6,21.05,17.77,26.05,31.91,29.14,9.12,1.75,17.71,5.47,26.82,7.21,13.66,2.54,27.69,2.57,41.51,1.5,13.85-1.05,27.68-2.46,41.4-4.63,19.2-3.23,36.97-5.89,46.78-24.96,2.04-4.08,3.62-8.65,3.22-13.26-.19-1.7-.76-3.41-2.08-4.55-.42-.4-.84-.82-1.3-1.13-7.52-5.56-17.09-6.93-25.54-10.57-2.13-.94-4.09-2.2-6.04-3.43-3.9-2.48-8.13-4.44-12.52-5.87-4.43-1.31-9.04-1.98-13.61-2.61-9.18-1.22-18.43-1.86-27.68-2.08-15.85-.07-33.42-.16-46.7,9.7-5.67,4.15-12.6,5.8-19.28,7.58-13.15,3.6-27.62,7.21-36.86,17.97h0Z" style="fill:#263238;"></path></g></g></g><path d="M90.01,383.18c-3.41-1.95-5.39-6.74-3.43-10.45,1.69-3.74,5.37-5.35,8.82-6.74,4.04-1.66,7.78-4,11.48-6.29,.76-.5,1.71-.89,2.54-1.2,14.73-4.52,30.38-7.05,41.29-18.88l.33,.23c-5.05,9.59-15.26,15.43-25.35,18.44-5.37,1.69-10.99,2.29-16.28,3.91-1.19,.5-2.48,.89-3.71,1.2-5.09,1.09-9.9,3.37-13.2,7.4-3.99,4.08-4.73,6.79-2.19,12.11l-.3,.26h0Z" style="fill:#fff;"></path><g><path d="M190,332.13c-25.53,0-40.41,18.39-40.41,26.43,0,8.05,20.14,16.72,40.41,16.72,20.27,0,38.95-8.1,38.95-17.86s-14-25.29-38.95-25.29Z" style="fill:#0F493D;"></path><path d="M228.94,357.42c0,9.75-18.66,17.87-38.93,17.87-20.28,0-40.42-8.68-40.42-16.73,0-.48,.06-1.04,.18-1.59,1.9,6.77,18.83,13.65,35.89,13.65,18.08,0,34.74-7.22,34.74-15.93s-11.6-21.57-32.35-22.5c.65-.07,1.3-.07,1.96-.07,24.94,0,38.93,15.52,38.93,25.3Z" style="opacity:.05;"></path><g style="opacity:.4;"><path d="M157.48,349.51c-.64-2.73,13.14-12.26,19.88-12.26,2.46,0-3.01,11.3-6.02,12.93-3.01,1.63-12.96,3.18-13.86-.67Z" style="fill:#fff;"></path><path d="M180.31,336.2c-.15-2.2,10.02-2.3,10.35-.77,.33,1.53-3.4,4.41-5.18,4.31-1.78-.1-5-1.03-5.18-3.54Z" style="fill:#fff;"></path></g></g></g></g><g><g><path d="M318.61,392.4h-.03c.16,.89-.14,1.81-1.06,2.55l-81.23,66.13c-3.22,2.63-8.56,3.08-12.89,1.11l-108.99-49.7c-1.26-.57-1.98-1.44-2.23-2.35l-.05-1.22-.3-7.71,206.54-16.76,.23,7.96Z" style="fill:#0F493D;"></path><path d="M318.61,392.4h-.03c.16,.89-.14,1.81-1.06,2.55l-81.23,66.13c-3.22,2.63-8.56,3.08-12.89,1.11l-108.99-49.7c-1.26-.57-1.98-1.44-2.23-2.35l-.05-1.22-.3-7.71,206.54-16.76,.23,7.96Z" style="opacity:.1;"></path></g><path d="M115.4,398.04l197.82-17.08c4.06-.35,6.79,3.46,4.06,5.68l-81.23,66.13c-3.23,2.63-8.56,3.09-12.9,1.11l-108.99-49.7c-3.66-1.67-2.83-5.79,1.23-6.14Z" style="fill:#0F493D;"></path><path d="M112.18,410.14c-.11-.41-.12-.82-.05-1.22l.05,1.22Z" style="fill:#0F493D;"></path><path d="M312.04,383.34c-.1,.56-.41,1.12-.99,1.58l-76.59,62.34c-3.05,2.49-8.07,2.92-12.16,1.05l-102.75-46.85c-.78-.35-1.34-.83-1.7-1.35,.21-1.24,1.36-2.34,3.32-2.51l186.51-16.1c1.96-.17,3.58,.69,4.37,1.85Z" style="fill:#0F493D; opacity:.5;"></path><path d="M312.04,383.34c-.1,.56-.41,1.12-.99,1.58l-76.59,62.34c-3.05,2.49-8.07,2.92-12.16,1.05l-102.75-46.85c-.78-.35-1.34-.83-1.7-1.35,.21-1.24,1.36-2.34,3.32-2.51l186.51-16.1c1.96-.17,3.58,.69,4.37,1.85Z" style="fill:#fff; opacity:.5;"></path><g><path d="M234.08,425.44h0s-.04-.07-.06-.09c-.02-.02-.03-.04-.05-.06-.09-.11-.21-.21-.38-.29-.99-.44-1.88,.47-1.22,1.14,.7,.7,2.18,.12,1.71-.69Z" style="fill:#0F493D;"></path><path d="M158.37,401.28h0s-.04-.07-.06-.09c-.02-.02-.03-.04-.05-.06-.09-.11-.21-.21-.38-.29-.99-.44-1.88,.47-1.22,1.14,.7,.7,2.18,.12,1.71-.69Z" style="fill:#0F493D;"></path><path d="M273.87,407.57h0s-.04-.07-.06-.09c-.02-.02-.03-.04-.05-.06-.09-.11-.21-.21-.38-.29-.99-.44-1.88,.47-1.22,1.14,.7,.7,2.18,.12,1.71-.69Z" style="fill:#0F493D;"></path><path d="M235.82,424.27h-.03c-.19-.03-.38,0-.5,.12h0s0,.01-.02,.02c0,.01-.02,.02-.03,.03-.53,.47,.49,1.2,1.06,.7,.42-.37-.02-.79-.47-.87Z" style="fill:#0F493D;"></path><path d="M156.12,398.18h-.03c-.19-.03-.38,0-.5,.12h0s0,.01-.02,.02c0,.01-.02,.02-.03,.03-.53,.47,.49,1.2,1.06,.7,.42-.37-.02-.79-.47-.87Z" style="fill:#0F493D;"></path><path d="M190.03,418.14h-.03c-.19-.03-.38,0-.5,.12h0s0,.01-.02,.02c0,.01-.02,.02-.03,.03-.53,.47,.49,1.2,1.06,.7,.42-.37-.02-.79-.47-.87Z" style="fill:#0F493D;"></path><path d="M293.49,392.32h-.03c-.19-.03-.38,0-.5,.12h0s0,.01-.02,.02c0,.01-.02,.02-.03,.03-.53,.47,.49,1.2,1.05,.7,.42-.37-.02-.79-.47-.87Z" style="fill:#0F493D;"></path><path d="M237.87,428.65c-.47-.86-2.16-.78-2.28,.14-.1,.76,1.08,1.3,1.73,.93,.49-.17,.82-.58,.55-1.07Z" style="fill:#0F493D;"></path><path d="M160.77,398.62c-.47-.86-2.16-.78-2.28,.14-.1,.76,1.08,1.3,1.73,.93,.49-.17,.82-.58,.55-1.07Z" style="fill:#0F493D;"></path><path d="M251.19,394.38h.02s.08,0,.12-.01c.03,0,.06,0,.09-.01,.16-.02,.31-.07,.45-.16,.8-.54-.09-1.55-1.09-1.33-1.05,.23-.71,1.53,.41,1.52Z" style="fill:#0F493D;"></path><path d="M247.56,395.66v-.02c.1-.13,.11-.27,0-.41h0s-.01-.02-.02-.02c-.01-.01-.02-.02-.03-.03-.45-.57-1.61-.12-1.14,.49,.35,.45,.98,.3,1.2,0Z" style="fill:#0F493D;"></path><path d="M215.69,395.31s0-.01,0-.02c0-.15-.07-.29-.25-.38h0s-.02-.01-.02-.02c-.02,0-.03-.01-.05-.02-.72-.38-1.47,.43-.72,.83,.56,.3,1.02-.05,1.05-.4Z" style="fill:#0F493D;"></path><path d="M261,418.87s0-.01,0-.02c0-.15-.07-.29-.25-.38h0s-.02-.01-.02-.02c-.02,0-.03-.01-.05-.02-.72-.38-1.47,.43-.72,.83,.56,.3,1.02-.05,1.05-.4Z" style="fill:#0F493D;"></path><path d="M146.56,409.7s0-.02,0-.02c0-.15-.07-.29-.25-.38h0s-.02-.01-.02-.02c-.02,0-.03-.01-.05-.02-.72-.38-1.47,.43-.72,.83,.56,.3,1.02-.05,1.05-.4Z" style="fill:#0F493D;"></path><path d="M195.93,431.5c1.19,0,1.52-1.26,.42-1.71-.91-.37-1.9,.27-1.6,.88,.08,.42,.5,.82,1.18,.82Z" style="fill:#0F493D;"></path><path d="M291.6,392.8c-.47-.86-2.16-.78-2.28,.14-.1,.76,1.08,1.3,1.73,.93,.49-.17,.82-.58,.55-1.07Z" style="fill:#0F493D;"></path></g><path d="M255.91,395.66c-1.15,.96-1.55,2.3-1.06,3.55l2.26,5.71c.81,2.02-.73,4.09-3.46,4.63l-6.35,1.24c-1.08,.21-2.02,.68-2.69,1.34l-1.48,1.49c-3.6,3.58-9.31,5.65-15.44,5.57l-2.54-.04c-1.13-.02-2.22,.24-3.1,.74l-5.2,2.93c-2.23,1.24-5.41,.88-7.17-.8l-4.94-4.74c-1.09-1.05-2.8-1.62-4.54-1.54l-12.01,.65c-2.68,.14-5.11-1.31-5.58-3.3l-1.63-7.4c-.33-1.44-1.72-2.65-3.58-3.11l-7.66-1.86c-3.09-.76-4.56-3.42-3.08-5.5l1.22-1.69,96.84-8.36c.72,1.31,.44,2.83-.87,3.92l-7.94,6.54Z" style="fill:#0F493D; opacity:.2;"></path></g><g><g><path d="M425.08,356.96h-.03c.35,.83,.28,1.8-.45,2.73l-64.1,82.84c-2.54,3.29-7.64,4.95-12.31,4.01l-117.43-23.66c-1.35-.27-2.26-.95-2.7-1.78l-.32-1.18-2.04-7.45,197.35-63.21,2.03,7.7Z" style="fill:#0F493D;"></path><path d="M425.08,356.96h-.03c.35,.83,.28,1.8-.45,2.73l-64.1,82.84c-2.54,3.29-7.64,4.95-12.31,4.01l-117.43-23.66c-1.35-.27-2.26-.95-2.7-1.78l-.32-1.18-2.04-7.45,197.35-63.21,2.03,7.7Z" style="opacity:.1;"></path></g><path d="M228.45,408.58l188.78-61.54c3.88-1.26,7.4,1.83,5.25,4.61l-64.1,82.84c-2.55,3.29-7.64,4.95-12.31,4.01l-117.42-23.66c-3.94-.79-4.07-4.99-.19-6.26Z" style="fill:#0F493D;"></path><path d="M228.06,421.09c-.2-.37-.31-.77-.32-1.18l.32,1.18Z" style="fill:#0F493D;"></path><path d="M416.62,349.62c.03,.57-.15,1.18-.61,1.77l-60.44,78.1c-2.4,3.11-7.2,4.68-11.61,3.78l-110.71-22.31c-.84-.17-1.49-.5-1.96-.93-.08-1.26,.8-2.59,2.66-3.2l177.99-58.02c1.87-.61,3.65-.14,4.67,.81Z" style="fill:#0F493D; opacity:.5;"></path><path d="M416.62,349.62c.03,.57-.15,1.18-.61,1.77l-60.44,78.1c-2.4,3.11-7.2,4.68-11.61,3.78l-110.71-22.31c-.84-.17-1.49-.5-1.96-.93-.08-1.26,.8-2.59,2.66-3.2l177.99-58.02c1.87-.61,3.65-.14,4.67,.81Z" style="fill:#fff; opacity:.5;"></path><g><path d="M350.25,408.32h-.01s-.05-.05-.08-.08c-.02-.02-.04-.03-.06-.05-.11-.08-.25-.16-.43-.19-1.06-.21-1.73,.89-.93,1.38,.84,.53,2.15-.38,1.51-1.07Z" style="fill:#0F493D;"></path><path d="M271.03,401.98h-.01s-.05-.05-.08-.08c-.02-.02-.04-.03-.06-.05-.11-.08-.25-.16-.43-.19-1.06-.21-1.73,.89-.93,1.38,.84,.52,2.15-.38,1.51-1.07Z" style="fill:#0F493D;"></path><path d="M384.94,381.89h-.01s-.05-.05-.08-.08c-.02-.02-.04-.03-.06-.05-.11-.08-.25-.16-.43-.19-1.06-.21-1.73,.89-.93,1.38,.84,.53,2.15-.38,1.51-1.07Z" style="fill:#0F493D;"></path><path d="M351.68,406.79h-.03c-.19,.02-.37,.09-.46,.23h0s0,.02-.01,.02c0,.01-.02,.02-.02,.04-.41,.58,.75,1.05,1.19,.44,.33-.46-.2-.76-.66-.74Z" style="fill:#0F493D;"></path><path d="M268.14,399.47h-.03c-.19,.02-.37,.09-.46,.23h0s0,.02-.01,.02c0,.01-.02,.02-.02,.04-.41,.58,.75,1.05,1.19,.45,.33-.46-.2-.76-.66-.74Z" style="fill:#0F493D;"></path><path d="M305.69,411.22h-.03c-.19,.02-.37,.09-.46,.23h0s0,.02-.01,.02c0,.01-.02,.02-.02,.04-.41,.58,.75,1.05,1.19,.44,.33-.46-.2-.76-.66-.74Z" style="fill:#0F493D;"></path><path d="M400.59,362.59h-.03c-.19,.02-.37,.09-.46,.23h0s0,.02-.01,.02c0,.01-.02,.02-.02,.04-.41,.58,.75,1.05,1.19,.45,.33-.46-.2-.76-.66-.74Z" style="fill:#0F493D;"></path><path d="M354.67,410.59c-.66-.73-2.28-.27-2.19,.65,.07,.76,1.35,1.02,1.89,.51,.44-.27,.67-.75,.29-1.16Z" style="fill:#0F493D;"></path><path d="M272.77,398.84c-.66-.73-2.28-.27-2.19,.65,.07,.76,1.35,1.02,1.89,.51,.44-.27,.67-.75,.29-1.16Z" style="fill:#0F493D;"></path><path d="M359.87,374.19h.02s.07-.03,.11-.04c.03-.01,.06-.02,.09-.03,.15-.06,.29-.14,.4-.26,.66-.71-.44-1.49-1.36-1.05-.97,.46-.35,1.65,.75,1.38Z" style="fill:#0F493D;"></path><path d="M356.62,376.26v-.02c.06-.14,.04-.29-.1-.4h0s-.01-.01-.02-.02c-.01,0-.02-.02-.04-.03-.57-.45-1.59,.25-1,.73,.44,.36,1.02,.07,1.17-.27Z" style="fill:#0F493D;"></path><path d="M325.5,383.15v-.02c-.04-.14-.14-.26-.34-.31h0s-.02,0-.03,0c-.02,0-.03,0-.05,0-.78-.21-1.33,.75-.51,.98,.61,.17,.98-.28,.93-.63Z" style="fill:#0F493D;"></path><path d="M374.98,395.81v-.02c-.04-.14-.14-.26-.34-.31h0s-.02,0-.03,0c-.02,0-.03,0-.05,0-.78-.21-1.33,.75-.51,.98,.61,.17,.98-.28,.93-.63Z" style="fill:#0F493D;"></path><path d="M261.44,412.86v-.02c-.04-.14-.14-.26-.34-.31h0s-.02,0-.03,0c-.02,0-.03,0-.05,0-.78-.21-1.33,.75-.51,.98,.61,.17,.98-.28,.93-.62Z" style="fill:#0F493D;"></path><path d="M314.48,422.89c1.16-.27,1.2-1.57,.03-1.76-.97-.16-1.79,.69-1.36,1.22,.17,.39,.67,.69,1.33,.53Z" style="fill:#0F493D;"></path><path d="M398.86,363.48c-.66-.73-2.28-.27-2.19,.65,.07,.76,1.35,1.02,1.89,.51,.44-.27,.67-.75,.29-1.16Z" style="fill:#0F493D;"></path></g><path d="M364.75,374.37c-.9,1.19-.99,2.59-.23,3.7l3.49,5.05c1.25,1.79,.21,4.15-2.31,5.29l-5.9,2.65c-1,.45-1.82,1.12-2.32,1.92l-1.1,1.79c-2.69,4.31-7.79,7.61-13.77,8.93l-2.48,.54c-1.1,.24-2.1,.74-2.86,1.42l-4.4,4.04c-1.89,1.71-5.07,2.08-7.16,.85l-5.88-3.49c-1.3-.77-3.1-.95-4.77-.46l-11.54,3.36c-2.58,.75-5.27-.11-6.18-1.94l-3.27-6.84c-.65-1.33-2.28-2.19-4.2-2.21l-7.89-.07c-3.18-.04-5.22-2.29-4.24-4.65l.81-1.92,92.41-30.12c1,1.11,1.07,2.66,.04,4.02l-6.25,8.17Z" style="fill:#0F493D; opacity:.2;"></path></g></g></g></svg>
